<mxfile host="65bd71144e">
    <diagram id="1qkhbEJm3k1ug5PzscKg" name="Page-1">
        <mxGraphModel dx="1386" dy="717" grid="1" gridSize="10" guides="1" tooltips="1" connect="1" arrows="1" fold="1" page="1" pageScale="1" pageWidth="850" pageHeight="1100" math="0" shadow="0">
            <root>
                <mxCell id="0"/>
                <mxCell id="1" parent="0"/>
                <mxCell id="2" value="" style="rounded=0;whiteSpace=wrap;html=1;fillColor=#eae2b7;" parent="1" vertex="1">
                    <mxGeometry x="160" y="270" width="490" height="220" as="geometry"/>
                </mxCell>
                <mxCell id="16" value="" style="edgeStyle=none;html=1;strokeColor=#1D3557;fontSize=14;fontColor=#000000;" parent="1" source="3" target="11" edge="1">
                    <mxGeometry relative="1" as="geometry"/>
                </mxCell>
                <mxCell id="3" value="" style="shape=image;verticalLabelPosition=bottom;labelBackgroundColor=default;verticalAlign=top;aspect=fixed;imageAspect=0;image=data:image/png,iVBORw0KGgoAAAANSUhEUgAAAgAAAAIACAYAAAD0eNT6AAAAAXNSR0IArs4c6QAAAERlWElmTU0AKgAAAAgAAYdpAAQAAAABAAAAGgAAAAAAA6ABAAMAAAABAAEAAKACAAQAAAABAAACAKADAAQAAAABAAACAAAAAAAL+LWFAABAAElEQVR4AeydCZxcRbX/T93uWRJiXgwR+YdkZowhICAgIrJJQJBVFhFk31UEnmCAZGYSlUFeMjMJsqkgILLILouAKOsDIgIiIPIwhhDizCRElhhiDMks3bf+v+rMhJlM90x331t36f71hzDdt+89depbp2+dW3XqlBK+AiVQ16SrZaRsrbVMUmmZLI5sql35mHJkk7TIqAT+QaFq0TJG45gS2cR1ZZTj4Lgrna4jaxyRD10tH0LGahz/UClZg3P+4yhZi2NrcN2/IaNNubK4MyGL352u3gu0kiyMBEiABEgg8gTQv/Bli0DtXL2TpGVHrWRHdNo7oFPfGh3+ZrbKyyUXzsEalLvQ0bJAlPwFjsSrq7vklZVNanWua3icBEiABEigtAnQAfChfcc36ZHJatkJHetOeArfCZ3tDhC7ow+irYqAY7AEzsmrKOTlhJZX1iXlFY4WWEVO4SRAAiQQGQJ0AIpoCjOMn66WAxxXDkAHOhXD8NsUISaSl7giyzGN8AJGCx7uqZAHl1+oVkRSUSpFAiRAAiTgiQAdgDzxTWzV43HqEZhXPwQd/sF5Xhb70zBK8BxiDH6POIX7OmaqBbGvECtAAiRAAiSQIUAHYAhDmHyVHt3zoRyFp/zjMX+/Dzp+TOWX8cuV18DhtnRCbl1ar5aXMQlWnQRIgARiT4AOQJYmrGvVRyBY7lR0dodn+ZqHDAEt87ES4TanS25pa1KdhEICJEACJBAvAnQAettr/KV6XGVKvomO7Sw859fEqxnD09ZNy0osYbwJcQM/62hUS8LThCWTAAmQAAkUQqDsHYDaFr27FjkL0fsnFgKO5w4mgBGBJxEvcHV7vbpv8Lc8QgIkQAIkECUCZekAmCh+XSXHY27/nMyyvSi1SGno0o78B1fLCLmubZpaVRpVYi1IgARIoLQIlJUDgI5/DDr+CzFcfZaTkLGl1ZSRrc11yI/Q3Nao2iKrIRUjARIggTIkUBYOgHnil0o5VxLSiDYeU4btHG6VXenGaMtPESp4CQIGOSIQbmuwdBIgARLIEChtB6BJO3VVcjLy51+C9XsT2OYhE8DeBYgTmIOVA1dy5UDIbcHiSYAEyp5AyToAE1v0XkrLNaWUpa9krNWVDlfJrI5OuV2akFqJLxIgARIggcAJlJwDsMUcPSWZkCtRsQMDp8kCCyXwakrkzGX16sVCL+T5JEACJEAC3giUjAOQydq3RlpUAuv4+YoVAQwB3IOtkKe9Xa+WxUpxKksCJEACMSZQEg5AXYs+Fgl8rkQCn8C32o1x20dKdbNlMaZrZrWtk59yWiBSTUNlSIAESpRArB0As0EPtrG9EWl79y/R9im7amE04CWdktOWzlKvl13lWWESIAESCJBAbDe3qWvW30H42Jvs/AO0lgCKgkHunEjK/9XM1T8MoDgWQQIkQAJlSyB2IwBmrj/1ofwKw/2HlW2rlUnFkbDp2ZSS4xgbUCYNzmqSAAkESiBWDkBNi94TqXt/DUKbB0qJhYVHALkDECB48tIG9UB4SrBkEiABEig9ArFxAOrm6IuRya8kh4WxGdFbMK02BDJ+gDnwf2MY/N/awV+TOEfJSvMX6XRXIZveJjjvv3BsDGIfRuP9xzEFMgZ598foBD6nZRw249kOoyPVpWeq2FegXp1ZgvVilUiABEggFAKRdwDGN+mRFSPkXiga63X92pUV6OgXYevcN/D+DUS8v4EOe2FbtyxG1DuWw/v32qJVT0g4sjXKmZJwZSs4E1MQL7ENnIsJKDe2cR8g9EJ3Qg5dfqFa4R8tSiIBEiCB8iQQaQegpllPwpD/7/GUOyVuzYNlbUvQ2T+Dp/annbTMj8JmOJ9o0qNGVspe0GsqeO6NtLw7wSFIxoktuL6DXA+HtM9Qr8RJb+pKAiRAAlEjEFkHYGKz3j8hmO93MkPdUeM2SB8zjA+YT6JT/QM61SfaZqh3Bp0UsQNmdKWySvaCzlPhqOyNUYNdI6ZiTnWg80kdDerWnCfwCxIgARIggSEJRNIBqGvV38OT3ryoP51CxwWIS7jLTcvtyxrV4iFJx+DLTDbFD+UoOAPHIx5hatT5Y2SopW2tzGLioBgYF1UkARKIHIFoOQDYva92hPwCSp0WOVIfKdSODv8OJyl34Sn/1Y8Ol9a7T87Tm1Wn5BsY2TgONdsVzkAkYwfghP0Ouwt+va0Jmw3zRQIkQAIkkDeByDgAmfX9a+UhPNXtlbf2AZ2IDn8lur/bAOvO9gb1XEDFRqaY8S26JqnhCCg5GTEZ20RGsY8UeRW6HRSHaZePVOY7EiABEgiXQCQcgAmX6bHJLnkKnez24eIYWDqi6N/GkrvL0p3y8+VNau3Ab8vzU+0cfTDaqRHLDfeMFAFsMdzjyB5MGhSpVqEyJEACESYQugNQN1dvjjXuz+AJLjqR/loWIQtd67ix8quXz1Q9EW6/0FRDnMaucJBmYYrg4KhMD2CZ43JMCUwthXiM0BqWBZMACZQNgVAdAOTzrwPpZ/BEWRMF4uhAXoIerR3r5D4GluXXIjVz9DZmRABBg8dGIWgQTsmKtCv7LpulXsuvBjyLBEiABMqTQGgOwBZz9JQKJX9A5xH+Fr6uvIcRiPPaGtSd5WkG3muNTI1boy2vBce9vEvzKMGV1ciMuA9zBXjkyMtJgARKmkAoDkAmU50rf8YTY6g5/TFcnMJc9lVrO+Wi95vUmpJu6YAqV9uijwfTH6O4UNvWjAQgXfIeS2aqRQFVncWQAAmQQKwIBO4AjL9Uj0v2yJ/Q+U8KkxQ6/+eQY/+MtplqYZh6lGLZY5v06NFVcgmmVM4Oc1oA5S/HRkJfZGBgKVoZ60QCJOCVQKAOgOkYRlXJ8+gUwltKhuF+RPZfwCxyXk1n+OsnzNbbJxNyPaYFdhn+bDtnwNFb4iRkDy4RtMOXUkmABOJLIDAHoK5JV7sjkCZXZOewcOm0XFMxShoWn6tWh6VDOZZb26xPx6qKeeiIx4ZRfzgBCyo3kd3Y7mHQZ5kkQAJRJRCMA7A+w9/DKCyUHf0wFLwCAWrHdUxXT0S1IUpdr8xyTy33o567hlFXOCDPjvu4fJnLOsOgzzJJgASiSCCQ9K411XJzWJ2/ufF3ObItO/9wzc8Mwbetkz0QnDcbT+TwyYJ9mcRF/1op9wRbKksjARIggegSsD4CUDNX/xDBdheHgQBz/Rd1zFA/CqNslpmbQM08vZ+TktvCWAIKh/AypHO+ILd2/IYESIAEyoOAVQcgs6WvI48GjhKBftjR7mvlmLc/cNZFFpjZbCgt95on8yJFeLnsa2316jdeBPBaEiABEog7AWsOwMRWPT4h8jcAGhMoJC2PpSrluGXnq5WBlsvCCidgYkOqZSaeyi8KdLkgEgV1K/ns8gbVUbjSvIIESIAESoOAHQfA3Ngr5U8qEWzEv4nyb5+pzi6NpimfWiAltAkOvR9TAtUB1vrVTcfILgwKDJA4iyIBEogUAStBgHUjZXaQnX8mqCwt9ez8I2VbeSvT1qgeQerePTLbLud9lecTd0RQ4KWepVAACZAACcSUgO8jAHia2xsh3k9iSNeKczGIsyvdriMndNQrRngPghOvAzXNehKMxmwLXROY5q4cZByQwMpjQSRAAiQQEQK+OgCZwK6U/E05Mi6I+uHJfy2C/Q5a2qDmB1Eey7BPIJMqOiXPOCqwbJGrkC5426X1arn92rEEEiABEogOAf+e0jHvX22iugPq/LGS/D04ALux84+OMfmhyfIL1Yp1nfJFbC8clFM3BpsG3S+wXz/0pwwSIAESiAsB3256dZVyUVBLusxcsVstu3HP97iYWWF6mp0ZsTXzVCQN+m1hVxZ5NvYqqKmU2UVezctIgARIIJYEfHEAaufqnZB05/uBEMASLlfLPh3T1JJAymMhoRFQXXI0RgJeDEIB7FPQYOw4iLJYBgmQAAlEgYAvDgCW3/0qkKA/BPwhQOwAPvlHwXTs69DWpDqTI+UrcAIW2S9NRKXlRk4FBEGaZZAACUSBgGcHoGaOPhedv/Xtfc1SPwT8HYkMbi9EARx1CIZAZgc/R6ZiZYn9ID1Htp9YLd8LpmYshQRIgATCJeBpFYCJ+q9KyVtwAEbZrgamGE5BXv9bbJdD+dEksMUcPaUiIX+CdlYzS5qVJV1J+dS709V70SRBrUiABEjAHwJJL2JG9MhPJGG/85e0/KhjZrQ7/wmtehfA3B26fjzDNCEfIMXtmwhk+wd0X+CFM68VeXumWlTXqg8Ci+dt8oAzO7LKlZ+hjKNtlkPZJEACJBA2gaJHADI7urnyuO0KpLXch6V+X7ddTqHyMx1+WvZGTMK+CErcfbhREDOEjV0RX0c5NyLC/c5Cy+P56wnUtujjsdrkNts8kFzqK9xC2jZlyicBEgiTQHEOQJNO1lTJG+j0JllWvv3DdbKdWRZmuZz8xGOteF2VnIyTL/aUrc6VDgS2/Sw5Sn6emePOr3Se1UugtlX/EoZ7mk0gmApY0tElW0mTStksh7JJgARIICwCRQUBYge3hgA6f8Gd9xtR6fzx5HkIOv+/oeO/0VPnb1rapLpNSGv3h/LPmhZ9VV2TtjqvHZZx2SpXrZOzkQhqoS35Rq6xbwQEzrBZBmWTAAmQQJgECh4B2KJVT6hw5U10YrZ3bpuGiP8rwoRjyh7bpEePrpTr0WF/w5YuiBNYIUrOa29Qt9sqo9TkYvXJNmD2Z3TUI63VzZXOHke2fLteLbNWBgWTAAmQQEgECh4BwDx2k+3O32SAi0LnP2G23n5UlfzFZudv2t2kTzbz2nUt+tHxLbomJFuIVbEmsBLe63etKg0nN2PvVguhcBIgARIIh0BBIwDY6a8Onf8/bKqKYLllTqV8tm2aWmWznOFkY575SOUi2Mz+SMdAVfDUiSfbixEo2DLwC37KRgDtdDuM+Lhs3/l1rFtL7fIG1eGXPMohARIggSgQKHQEoMmm0plkPyJfC7vz/1SrPgyjEHcF3vkbuMbhUNIMZ+uvTE07vLUhHuB0nNU+/JnFn1GpZFbxV/NKEiABEogmgbxHAIJ4+tcis9vrVTB7CuRoj7rZekdJYtg/Ki9XruruksblTWptVFSKmh5BtBlHAaLW6tSHBEjAK4G8RwDStjf7wdK4sDv/yVfp0Vj/fa9XqL5e78i5FVWyqHaOPthXuSUkrG2WehX7UVxjs0oIfG2wKZ+ySYAESCBoAnk5ACblr9JyilXlHDnPqvw8hPd8KLcFsbwxD1UGnIIgwS1UQh6uadW/Nm0x4Et+yBCoGJXpoK3FjSBI8zQu16SxkQAJlBKBvByA6pSYDX88pQ0eChqG/h9B1P9vhjrH9nc1c/XJ6Gi/arscL/LRWEeNSMubE1v12V7klOK1JqES4jYusFY3xGboavlva/IpmARIgAQCJjBsDACeeqrdSnkb+6WPtaKb2eJXZKu2RtVmRX4+Qtdn+PsHAvDitATvBew7cFrbTGU1IU4++KJ0DqZK/ozRkp2t6OTKe5uOlQkvn6l6rMinUBIgARIIkMCwIwDpEXK6tc7fVFRLS6idP1SoqZQjY9b5G3K7Ij/B3+vm6IvNB756CSTlTGssHNlsxUo5yZp8CiYBEiCBAAkM6wDghPOt6WNy4ndLszX5+Qp25Dv5nhq58xLyQyQQemNii94rcrqFoFD7DPUKir3OVtFaWZxmsKU05ZIACZBAFgJDTgHY3vHPVXJKx4xwt/nNpDYWWZqFTewOYefEG6pGyvnlvsGQCZQc4cq7FhtwN8SsvGBRPkWTAAmQgHUCQ44AqLTF4VQ8/XeslVut13CYArC8K9KBf8OoP+DrhJIzUh/KmxgROHbAF2X24d3p6j1s0fwTa9V2YzxiZA0KBZMACcSNQE4HILP0T8lRFivUjK1Wkfk35JeWfULWwN/iMU+NTIJ3IEXu783ohr/C4yMNeSvmWtT2mLrLuYOjRb4UTQIkEACBnA5AZVq+aat89PorEE19gy35hcjFNMR2hZwfl3Mxt3NgwkWQYKv+nmCVQ1z09ktPs4Mflpfe6Je8AXJMuuZuOXnAMX4gARIggZgRyNkxIPHPGbbqorU0R2UpFfIbbGOrnmHLRd1GQYfLayvlT3VzkeK4zF6JtFjbUAlOLFcDlJk9sbokUGoEsjoAprOwmBFvVaJTri41kFGuj1kX76blz1gpMM/kdYiyrn7qtmSmWoRcCXf7KbNPFn44O5fzFEsfB/4lARKIL4GsDgDyqlub+0ek+ry2JtUZX2R5aO7K6jzOCvQUk8kRQYIXSpW8YVZ3BFp4iIXB3i6xVXxFWo63JZtySYAESMA2gawOAOaPrQxvYrvfNVim9lPblQpbPtaKn4WOZ5a4Ej1HB9kOHVceR5Dg7eMv1ePCZmW7/KWz1OtohwdtlIMYg6NtyKVMEiABEgiCwCAHILMHvb2UuHeWwxp15KTvXtqg5qABPwNn4OkgGrLQMuDkHZfsljdqm/XphV4bt/PTIj+zobOZWuE0gA2ylEkCJBAEgUEOAOZMj7RVMDrDX9mSHSm5DhIL42VSHCMz3T5Yk36SWfkQKR2hjEnxjA2QbkDegGfqmnVd1PTzS5+lXfIERgHe80tefzkV2KCp/2e+JwESIIG4EBjkAKCTPsiG8ugAl+GpeL4N2VGX2dGgbnXWyZbohG6OpK5K9oJef69t0d///LUafVqJvZBvAss9b7dRKzh3JZNIygYfyiQBEogugQEOwITL9FhHyU421IXc0LP+2ahXvjIR+LgKIwKnosP4EjZAWpTvdYGdh7Xt2PP+kvdXyqsTWvUugZUbUEFwbG+zUpSWqeOb9EgrsimUBEiABCwSGOAAJLrkCGtlpSL69GutwtkFYzTg2U0/juRDafkRRgTMVsiRepm8CAgSfB7b6l49+So9OlLKeVBmab16CUGoiz2IyHppZnVFtXwl65c8SAIkQAIRJjDAAcAw6SFWdHXlNe5b/xFZkwQJPC5KiWyL0YDITYugU3MQ4HZW9zpMC7RqazEhHxEJ6F3CTgwKllceHFANWAwJkAAJ+EZggAOQ0GJlfTgy/5VH8F+BzbKsUS1ua1BTsWrgDCTqWVng5dZPh3GMx2qBe7FS4CEkh9rceoG2C6iwNA2lZW/bqlM+CZAACfhNYIMDUDNHb4PYdd+HfDHs6nZWyC1+K15K8tob1S9TlbIV1pXfEcV6YaXAVzFlYZYM/nec9xXomKaWgK//2/gqmWLiZ6LYdtSJBEiABHIR2OAAYAe5PXOd5Om4I6+Y7Vk9ySiDi5dfqFa016vjERewD/51RK7KcA7hCPykZoT8aeJsHdsNlJCg6SEbbCt6LP1+bChLmSRAAiQAAhscALzZ3QYRDP8/bUNuqcrESoGnpUu2gkPWgtEThAlE6wU72TnhyMsYMWqO474C0P9pG0SxymA3G3IpkwRIgARsEdjgAKDDsXIDs3XDtQUkCnLNXgltM1QjYgM+h/wJL0VBpwE6OFKJJEINbpX8DQmE9h7wXcQ/tHdiCsBGimbXjgMdcZxUjwRIIMYEMg5AZv4S85g26vGfTvmDDbmRlom4Bz/0M3nsO+rVF5DK9hyzj4IfMv2UgdUCkzCG9BScgJswGjDGT9nWZCEpEJzd+X7LR36Hnf2WSXkkQAIkYJNAxgFI9MgONgrBTfGVlU1qtQ3ZkZbZmwrYLx2xhv1qPHFvCa/iHr9k+irHkVPcEfJmTYs+0Ve5loQh2NJ3pxTO0MhJc7QVJ9oSBoolARIocwIZBwBLvaw4AJD7dJnz9a36mBJ4B6MBR2Or5kPgCCzzTbBPgmBI45Dt8VfYTOqp8S26xiexVsTAAXjahuB0Agme+CIBEiCBmBDIOAC4IW5vQ190VPNtyC1nme0z1e9S67BkUMtlUQwSVFgTn9Ty97o5ekZUlwx2dMpzNuIAVNqOI13O9s66kwAJ2COQcQCwxvuzfhdh1v+nO+Vxv+VSnsjyJrW2vUFdAMafB49Xo8bEDIdLQlrrquX5ia16fNT0k/WbA/3Rd72SdAB8Z0qBJEAC1ghkHABsAmNj6LLNdFTWNI+yYJ+CAIer4rJZ6rW2evU5nDcNzkD0WCvZBU/F/4d0wvsMV5egv4fhv+x7ma58xneZFEgCJEAClgg4W7TqCYjkrvZbPuaDF/stMzbyfA4CHK7ecAKu0I5siWWDvx3u3KC/R/DiWOj1GLYaPj7osocqDwGqbw31fTHfQeakYq7jNSRAAiQQBgEH+f/rbBSM+f83bMilzOwEsFJgOVIKH4pO6Bic8U72s8I5iimBJEaZbsukEg5HhUGlInHPwkEHPR4w9Yx6AKTHKvJyEiCBEiJgnlXtPLVY2Hq1hLhbqwq2G747OUK2giPwExOHYa2gIgQj2PTKCa16lyIu9f8SSyNUCbHjUPsPgBJJgATKnYDjpOTTNiDYeMKyoacVmSF3vIvPVavhCJzrOrIbnIAFVupYhFA8IeM/uXfyVdr3TacKVceMmICN78mVsF9CXaG68HwSIAESCIOAGQGos1GwkjKOAbABtAiZy+rVix2Nalt0dA02lr0VoRLMTSZ0r5X/KeZav6+BN2IjTqXObz0pjwRIgARsEMD9WHzf5x0dTgodzxIbCsdCZsBBgMMxQVu0ditsMKTlseHODeR7LedMmK2t5J4oRH/Mj/juAKiU/7+nQurEc0mABEggXwIOboLj8j053/PgVfh+Y823bJ6XncDyBtXR1qAOgBNwHEYDQt2e2UwFYEfB2dk1DfBo2n87xcjXpgHWgEWRAAmQQNEEHEf77wDoRLSi0IumU4IXwgm4M7mJbImqXYeRmtCCBBEQeHBmCWqIjLFE8Z9+Fw/bpwPgN1TKIwESsELAjACM9Vsykr+U3wZAfkO0KM8ECSJ3wJnYFW8qXADfl8Plo7oZBUi68p18zrV1jqtkld+yOQLgN1HKIwESsEXAwY14lN/CcWOlA+A3VAvysFLg2U3HyvbYV+AHcAQ6LRQxpEiMAnxtyBMsf4l9C3xfBQCOvjvUljFQPAmQQJkSMEGAvr+w4/p/fBcaJ4EhDq0XiunlM1UP9hX4H0wF7YClm08Xer2X8+F8blPTrCd5keHlWmRP9N1RtTGi5qWOvJYESIAEchGw4gBg/fmHuQosi+MRWwWQD/MlM9Wi9hlqH4zenILUvSvyucaPc2CAe/khpxgZmP/yfQTAjKjVNWnfU2sXUz9eQwIkQAJDEbDiAEDov4cqlN9Fl0DHDHVLTwU2tdFySxBaYtTB950o89U7lbK0gdJIGZOvDjyPBEiABMIiYMUBQN5335+swgJUjuUuv1CtwGqBUzBH/2WsFFhikwHiD7a2KX8o2W7C/yBAU56bYhzAUNz5HQmQQDQIWHEAMITs+9xqNHCVlxbt9eopp0u2hSMwG8Ft3TZqD9mhBc05lXYcVcQW+J5bwwZ7yiQBEihvAlYcAIwARG9v+iDbOUZBgMNhaWtSnXAEvo8pgR0wGvDccOcX+j2WzYW2L8Cy89XKQvXN8/yP53keTyMBEiCB0Ag4Jm2v36UjCLDSb5mxkhfDIMDh+PZgZHu4c+L2va1gPUcJNgXkiwRIgASiTSCJIQDjACT9VBPzur7nFvBTP8rKn0CmkxwpF0lazsdOPjYcO9+T8eRbu3WbyOgRNtyadPA5FfKtM88jARIggT4CpuM3c7u+LltKpMvcASiRKYC6Zn0gbONaDP/XmG38bLwgNrAlhxvrPyIlI23US1fYiZfYWH9+JgESIAEvBJKulpSFe/smXpSK/bUxnwKom6s3RyDnT5Aq+CjbbYFlgKFtHJVyZbQZAvP9xREA35FSIAmQgP8EHMxW+p4CFlHQnALwv60CkVjXqr/npuVNBHJa7/xNhbAK4C+BVCxLIYmEHTtFMiUrKyayVIGHSIAESKBoAkmEdq3CMOj4oiVkuRCdR3k7ADGcApjQqnfB5jzXozm3Rza7wF5IQfxsYIVtVBBGv0YlsAzB75eTtrO80G89KY8ESKC8CZgYAN+DsPBU97GyxhqjKYCxTXr0qGr5HziC58ARDLDrx7ICVxZ0NKq2sGxFOXaWIDpJsbW8MCxULJcESKAECSTxAOT7zQqbAZV3DEBMRgBq5uijnATm+kU2x3x/4C90wPcHXmj/AhWCAOGt+v1qm6He8Vsm5ZEACZCA3wSSCMJa5fe9H3kAfJ1S8LvS1uUF/CRdaH3Gt+gaDP38EuvV9y30Wr/Ox9O/i1iRq/2SV4wcbAY03oLj4/uIWjF14zUkQAIkMBwBM+Tr/zIsN7z87sNVOJDvIzwCUDNX/7BSSXuYnb9pA4w8PLS0Xi0PpD1yFALnd0qOr4o/rOW94i/mlSRAAiQQHIEkhuvf9jtvmdkS9ZPz9GbvTle8GQbXlkOWNLFF74X0dNdjyNv/Tm/IkrN/iZH3H2X/JsCjWrb0ewQA9aLNB9iELIoESKB4AknMwy4r/vLcV1alMx1Ned4MIzQFMOEyPTbZLZejozs5d2sF/s117TPUK4GXulGBGAHY2u/pLzgAbRsVw48kQAIkEEkCmAa14wCoiDxpRpJ6QErVNOtvo/P/R5Q6fyQYehsJhesDQpCzmLrL9RjMf/m+ax9+UEtyFsovSIAESCBCBJJYh73M72FQUz/sB7BlhOpZVqrUzdFbY0HfzWjXXaJUcRP4hxwR32ibpkIPlEt1yxSzBtb3l4LDxRcJkAAJxICA02ZpHTYivCMx1xxKG4QUBGg27sHSvmbEdPw9ap2/aQc4m43tDeq5UNpko0ITWiZvdMiXj2nFEQBfQFIICZCAdQKZxC8mIYvfJWEKYGu/ZVJebgK1c/TBUiVvILq+IfdZoX4zrW2mmhuqBv0KR/DrVv0++vYWaYA5BeAbTQoiARKwSSDjAGBY1ncHACsBtrG137pNIHGTPbFVj0eE/70qIQ9j2L8mcvq70pnWckRbvboiSrqlHdnOd31cWf12vbISVOu7rhRIAiRQ9gTWT4NqecNKHMAI2Q2Enyo7ykGsAmjSTt0IORejN5eYZZeRZOxKB/LtH7S0UfnuYHqtL0YA9vZ7+SsCal/3qhevJwESIIGgCPSNAFi5cak0brLl+LIcA2A27qmryuyid3lUO3889d8g1bJDx8zodf4TZ+vtMFUy1m/TxLTXX/2WSXkkQAIkYItAZgQAT5Gv4Ybo/8spUwfA0giA2bjnY5XSgqV0Zwa9cU++xoF18G9hbf2JSxvUC/leE/R5cJr2tlGmm+AIgA2ulEkCJGCHQGYEoKNbFsIJWOt3ERj+3V0wVO233HKUV9eijx09Qt7AXP9Z6MCixxRz/Vj6+YNxY+QzmO+PbOefsR0lU23YEEYAXrMhlzJJgARIwAaB9TEATcp1WrW5ee3qZyHoqJITq2XPpSLz/ZRbTrLMxj2VIr9CjMZeUa03HL0nU0pOX96gOtqjqmQ/vTCC8mU4Ur6+4EC7Tpe85KtQCiMBEiABiwTWOwAoQKflL7gp+uoAGL2Ranhv/KEDYGAU8Pr8tbri/X9Lo5OWRjzvVxdwaWCnotN7B5sKTetoUHcGVqjHgmzN/8PZfa2tSXV6VI+XkwAJkEBgBDYMJeuk2Bm2daP75GqNsscgwNpWvc+/PpDXkTjn4qh2/nAYr1nTJVu1xajzN+2NjnpvG+2OUZA/2JBLmSRAAiRgi8CGEQA8ac63MbOMTuxLJu96FNK/2oI4SG6Rc/Rm4x6nW640QXQ2lmUO0rOYAwgYFVdOaZ+lXi3m8rCvQc6LQ23ogDaz40DbUJYySYAESAAENowAmJTAWMe83HcqjlS6nfIN3+WWkkAESpqNe5xOeRND6idGsmpIcgO9prV1yefaYtr5my2q8aT+ZRt8EQAYiRTHNupGmSRAAqVJYMMIgKkentafwJPnyX5XFbEFx0HmdX7Ljay8AqYAkLt/GzC/HkPTu0e2PiJ3ImnOtLYZ6p0I6zisaiNcORYu7wCbH/aiPE6A47ysw9KeGnkUz1NIgARIoCgCA2+GGln7bDgAWvY2KWuX1iv/RxiKqnb4F41v0iMT1XIxnvgvDF+bHBogkx++OROjQ4/kOCNuh40j6vsLw2i/810oBZIACZCAZQIbpgAy5STE3o1e4+mrXF7DxABMbNb7J0fIm4modv6udMMRbBET5Fcinb9xQGF+u1oywd9bkkuxJEACJGCNwIARADPEW9OqX4JXsLPfJSJI6gTIvMxvuXGSZzohdPpXi5bDo6o3lvY9hzS+p709Qy2Kqo7F6IXprdPh1Pj+Aq8U1v/bc5x915gCSYAESGA9gYEjADiGYKYHbMDBUPdONZfrSTZkR14mgvywY9/52IDmjah2/kiOswL/zsBc9h5vzyytzt/YB7IUnmbFTpQ8w/X/VshSKAmQgGUCgxyAdFoetFWms05OsSU7UnL7BQHWtepda6rk//Dk/2ME+kVy1z6zcU+6SrZqb1S/jBRHn5SZMFtvD/Z2nE/X3u/Fp+pTDAmQAAlkJTDIAVg2S72GYc0lWc/2elDJqV5FxOV6s3FP7Rx9NfR9Hp3PNpHUW8sidP5TsXHPN5edr1ZGUkcflMJGV9/0QUxWEToh92T9ggdJgARIIOIEBjkAGX213G1Fb0dqauZq35cZWtHVg1B0+IeOrpI3sfzxLA9i7F6qpRFZ/LZC5z/fbkHhSh9/qR6HaZczbGiBaYVnubLFBlnKJAESCIJAVgcA25reb6twx5VZtmQXIxejHb7vgphZSunIZsXoY/sas3FPt5ZadP4ttsuKgvyKtHwPDtlIG7ogq+C9NuRSJgmQAAkEQSCrA7CsXr2IdK8dVhRQMgXz4kdYkV2EUABYU8RlsbsEyWqWu2k5Ghv37Gd27YtdBYpQ2ORaQGDjeUVcOuwlcBzddY7cPuyJPIEESIAEIkogqwNgdMWTorWbGzqjyIwCuEqWRbRtfFMLbXnFmnXymY6Zqqzmqysq5Ww8/VsJvMT0zvx3p6v3fGskCiIBEiCBgAnkdACQIOBGW7qg0J3rmvXetuQXIhfDuG8Ucn6szsXGPamU7ICn/mkrm5TJ5V82L7OdMgL06m1VGEs6r7Ulm3JJgARIIAgCOR2AJVgLboKcbCmhHXs350J0xtPxS4WcH4dzMTxtpjXOQxa/Hcyqjjjo7LeO76+U02Dc4/yWa+SZnAlx2wbZBgfKJAESiDeBnA6AqRaSAt1gq3pIynZgZiMcWwXkKRdPcqWVxS0td2PZ25Zt9eqqPBGU3mlIvATDtjbNhGmjm0oPGmtEAiRQbgSGdACQC/7O3qdJK1wwjxp6J4V58QVYJhb7tLdopyWuI19pm6mOifuufV6NbeII+Q52/avxKifX9RgZ4/B/Ljg8TgIkEBsCQzoAJsWpVvJzW7XBKMC+GAU4ypb8fOViGuCX+Z4bufOwcQ+GpGcjH/22HdPVE5HTL2CFJlymxyZEZtsqVos8sqxRLbYln3JJgARIICgCQzoAGSWUXG5TGQThXWGWa9ksYzjZqQq5AU/Q/ucDGK5gr99rmY/Rix2Qwvf7zEe/HmayK7Ph1BivaHNdj9iVH+f6jsdJgARIIE4EhnUATKYzPCHfaqtSypEtEtVysS35+chdfqFagZEOa0+N+ehQyDlYRrkCeRpOQyDaVAz5Lyzk2lI+1+y7gKF/e/tNYKqIoyylbEGsGwmUF4FhHQCDAwlk5tnEgo1yLqybo7e2WcZwspESd04cYgGMM+ZWyFaI8L9puDqV3fe2l+ZpaS47pqwwCZBAyRLIywHILCVTdrYJ3kDWCT+wCvO7p23QJ2JvMEWxAMFne2BN/0mlvHFPsdjx9P89PP1vX+z1w17nynt0uoalxBNIgARiRCAvB6C3Pk1W66Vkr5oWfaLVMoYR3t6gnpO0/GiY0wL9OhObgI17Orow12/042sQgU/O05thSsTqNBJGXmIzRTQIEA+QAAmQQBYCKsuxnIfq5urfYJj88JwneP1Cy+oeJdu+Xa+WeRXl5fq6Fv0oNvTZ34sMP641EecpkW+FzcOPutiUUdOsH8bC/4NtlYGYi2Ud9WqiLfmUSwIkQAJhEChkBMDo12RVSSWjK7TcZrWMfIR3wskxEfYhvfDU/47ZuKe9Xh3Ezn/oRpjYos+32fmb0pEs6qKhteC3JEACJBA/AgU5AEgw8yqqeKfVamIqoLZZ/4/VMoYRbpbUbfpx2Q/TAXcPc6qvX6PjT2Go+Yp1XbJluW3cUwzIia16Z2SrbC3m2nyvQZssae+Sm/I9n+eRAAmQQFwIFDQFYCqFTXzqEGz1D9sVNFntorDkCvU1WeWusV5fkZccJd/qdbJsFxd7+XWX6zHSKX9F29TYrAymYb6OkZj7bJZB2SRAAiQQBoGCRgCMgoiEbkPAlfUUvioldyDmYPMwoPQvE/X9udlRT6ftbBqEJ8w1aZFzMMf8BXb+/ckP874HT+WWO3+0zXPs/IdpB35NAiQQWwIFOwCmpt0VcgmcgNU2a40EQeOw7O1Wm2XkK9ssg2yfqb6A4fmT0q68kO91Q51nOn7M87e4VVKLZEtXD3UuvxtIAEv+zrUajNpbHLL+nTewZH4iARIggdIhUPAUQF/VTfAVEvhYT4ua1jIrk6Snr+AI/J0wW2+PHffMdrOnY7XA6AJVMnEUNyZHyE2Lz1VWnagC9YrF6XWz9Y6SlL/YVtYkXDI5F2yXQ/kkQAIkEBaBoh0AozCWy72BDnCKbeXhBBwBJ+AB2+UUI9+kn8XT/FRcOxlz+GY+ug6dxwQ4BymweQdPkctVWl7DUrK/4an12czug8UUxGsEQX/jE648H8DQ/1q025YmDTaxkwAJkECpEvDkANTM0/s5rjxuHY7Z8U7JPkyEY510ZAuYfJUenVorfw7C4QSEaW316orIwqBiJEACJOADAU8OgCkfS/Yewnz9V33QZWgRSBKEuIMvcvOboTGV4rd1TboasRJPYr3/7tbrp+VFbLL0RevlsAASIAESCJlAUUGA/XXGcr0zTUBb/2NW3mOu3U3Ik1FYGWClfhSanUATBuOr5K4gOn/YcQpO5inZFeFREiABEigtAp4dgN550guCwAJlx+MG/YwZDg6iPJYRPoGJ1XId5vwPC0ITR8scjjAFQZplkAAJRIGAZwfAVKKjUV2HJXvPBlIhBB1iLvhxMywcSHksJDQC2CL6Yqw0OSMQBVx5ra3b7oZCgdSDhZAACZBAngR8cQBMWT0iJwQyFWAKU7ILuv/HM9ngzGe+So5AJh10Qn4YWMW0HCNNyPrPFwmQAAmUCQHPQYD9OSE3wOF4YvtN/2NW37uyUBKyDzLovWO1HAoPjgDm/M2wf2BP/utrxqj/4FqYJZEACUSEgK8OgKkTcudfiTnbcwOrnysdbrXs0zFNLQmsTBZkhcDnr9UVK1bJgzDKA60UkE0odn1E1L/J48AXCZAACZQVAd+mAPqoIXf+ebby5veVMeCvyQe/Tv48oVXvMuA4P8SKgAns/NcH8kSQnT9SMa/sUXJCrEBRWRIgARLwiYDvDoDRK5WQr5mbq086DisGaXnHIiHRUyYx0bAn84TIEfjkPL1Z91pk+MNW0EEph3gVFyNVh79dr5YFVSbLIQESIIEoEbDiAGRuqri5Zm6yAdUW68RHYhX375Ge+NiAimQxPhCoadaTqlx5GWmUt/FBXN4isOSvEbn+g1m5krdWPJEESIAEgiPgewxAf9WD2jCof5nG6UDa4MuWdkojorpT/b/j+2gRqJ2jD0YWyTvw5B9oXgftym/bG9Wh0aJBbUiABEggWAJWRgD6qoANfC7D+zv7PgfxFyMBDiLIL6ypkmfM5jFBlMkyCidQ06IvVwl5OOjOHwP/r/V0YckfXyRAAiRQ5gSsjgAYtpnI7n/Jc7jZ7xw0axOHgKHlExCY+EjQZbO87AS2aNUTkmm5PxR7EFne5cjn3p2u3suuHY+SAAmQQPkQsO4AGJTjL9Xjkj3yf3g63zxotJk4BC1zO7plFhO9BE1/YHmZ3SPTcm/gT/3r1VjVk5Yvvj1TLRqoFT+RAAmQQHkSCMQBMGgnzNbbwwF4PhOsFwJrOALPpZQct7xBdYRQfNkXiXiQeWZqJhQQrnQi4n8fbPH7Qijls1ASIAESiCCBwBwAU/fMMj1E6sMJSIbBAk7AWgQIzt7s4zLv5TMVshfzZZsAUvp+WYtcjzafZLusbPLR5iml5Ij2BvVwtu95jARIgATKlUCgDoCBXNuqj0QU9q/RIVgNQByqQdEhvYWO4eyljeqxoc7jd8UTMHP9Fa78DK18WPFSvF2JNnYzMSANKtBAVG9a82oSIAESCIZA4A6AqVbNXH0y1mHfHEwVhyhFyQM9Wv6byWCGYFTgV2aXRnekzJC01Ic13dOnMhyAM81OlX2f+ZcESIAESOAjAqE4AKZ4LNE7OyF4QozAy1VyUccM9aMIqBJrFbAPxIHYTu9nYQ3394eX1jILy1Dn9D/G9yRAAiRAAh8RCM0BMCpEygnAEjEnLVeu7pafr2xSqz9CxHdDEsDufbUj5AhM61yAjn/3Ic8N7kvu7hcca5ZEAiQQUwKhOgCGWRjZAodsK1dWp5Vch6Vqly+tV8uHPLeMv8wM9VfJyZhjvwCspkQBRWbOX+Qc5H34eRT0oQ4kQAIkEGUCoTsABk7dHD1DEtIaOVBabkGn0toxUy2InG4hKYSOfwzm+M/FvgvnmU2YQlIja7GYyjkFUzm3ZP2SB0mABEiABAYQiIQDYDTC/PGpiBi/cYB2EfmAVQMmk+D17fXqvoioFLgamK7ZWWk88Wv5FtqpOnAFhikQbfT1cm6fYfDwaxIgARIYRCAyDoDRzASR4c/9UexgjH6Z1MIJuQcBZrdhs6FnSz2z4PgWXVMhcjI6/hPQJlsbBlF7YYTG5HY4CAF/86OmG/UhARIggSgTiJQDYEDVtepdEUn+EJIEjIsyOHQ874iWm6DnzW0z1cIo61qIbhMu02MTXXI8duk7AdftWsi1QZ+bcci07Ns2S70adNksjwRIgATiTiByDoABanbxg2IPoHMNfAOhohpUyyJEwT+JOfFHutbJE8ub1Nqi5IR0kXG6sG7/IO3Il5E1b8+Q1CioWDhgSzAR8ZWOaWpJQRfyZBIgARIggQyBSDoARjOzi+D7H8gvEWV+YqzaypVuncDuh648imHzR9rWymtRmyqom6s312k5GEP7B2C0Zb+oBfMN195wtn77ny45gcs1hyPF70mABEggN4HIOgB9KiMu4DvoSK/p+xy3v2aYGvr/Do7Mn9OuLMQSw4VBbkg0tkmP/li1bIfOfgrK3jahZX/os33cOPbpC57nYVXGVX2f+ZcESIAESKA4ApF3AEy1aufqnRT2kEfHVVNcNaN3lavlFceVxRgteFNrWYgo9g4Es3VieV1nJf52OvjrSLdU4Ni/pbOtSXWaWky+So/G02910pXKqrSMRCrjSmytVI0OvhqN+V+QtR3m77dCfMKW+Lc13kc6lqKAlmkHnyPbZ6hXCriGp5IACZAACeQgEAsHwOhu1p/rEXIHFDYrBfgqIwJwju74zzr5TjkP+We2007KFCzDnGwcOziOtXD2RuH9SPwzyzJHYpRppCgZbUzDrI7A8U7k11iLazLv04L3jqzC8QX49w9M/yxCOu5FSJzUZq7hiwSiSqBg+8fIq0rIB7h3fAD7Xyku7D6BfwrvtfwTv523ME37VikFcBfTdrFxAPoqh+1l/xtPtT/p+8y/pUsAndga/GjPKafkPmaEp+tD2RU3r10xQrQHblZbBzHyBdYLcKN8PZ2QZxIpeY4rK0r3dxXlmoVh/3CElyH4eTF+A2/hN7cQv4H5y+rVi1Hm5JdusXMATMUnNOvJUPxXCSfay9T8aqSylKPlRXR+x5T602lm2WU3RrVc2RM3oT2iEp9hnC+MKDwHvV5wK+QPHdPVE2Vph6y0VQJRtX/YfSdWRT2Nqdo/oK+Z39GgnrUKIiThsXQA+lhFNoVwn4L8WzgB/PDQCTa21asrCr84HleMb9Ijk9VyJDr8E/ADjMWUFlZerEAMxh1wCm5H27wQD9LUMooE4mj/GY5aHsNowa/gDNwaRa7F6BRrB8BUeIs5egpuSjdzNKCY5o/WNehgnu5x5ZQgV0kERqBJJ2ur5QDMQZ6AzvRQzMWPCqxsnwvCvOpbCMq9LaXkV8sa1WKfxVNcKRIoIfvH6MB7GBn4ZQqr0+J+r4q9A9D3W4ncroJ9ivHvsAQyGf2wqyCG+28a9uSYnbBFq56AFRvfwQ/N7KGwWczUH1ZdBFOZodFr2hvU7cOezBPKjkDJ27/Ik1iB9Yu2BnVnHBu3ZBwAA9/krq90ZR4Cx74Rx8YoN50xz+ziqf/GRJVc2DZNrSqZ+jdpp64K+RZEzsKQ4cF42k+WTN1yVaT3qQgBVD97u14ty3Uaj5cBgTK0f4zqvY2YpSvWdsvP329Sa+LSyiXlAPRBx2jAXkh485OoBFT16cW//QiY9Mkip+HJ8bl+R2P/FmmVvwfH5rvo9CfFvjLFVkDJAyktc8olkrpYTKV4XdnbvyurMT1wtZOUK9tmqHei3sYl6QD0Qe/dYrgJn2v7jvFv6ATegbc8u71R/TR0TXxUoGaOPgpL91rwg/q0j2JjLQoO3h0pkRkcEYh1M+alPO1/MCbsGnsDpshaohwnU9IOQKZJEHyC4dgTsaTj+7w5DzbSwI640oGymjcdKze8fKbqCaxcywWZBCXIS3Etg1BzgDbLqUR+3NMlc+K2SVaOGvFwPwK0/34wsrw105wYDfwF8rXWR3Gas/QdgH6NUjNXn4xd736ABpnc7zDfWiSAH8ASGFkznvh/YbGYwEWbDZUQDdyKqP6TAy88jgWaGAGRH3Q0quviqD51HkiA9j+Qx3CfYPsrkGRoetQCncvKAcg0kglQqZZvmJsRlg9uM1zD8fviCKDjX4DOsbmjU26P2m6IxdWo9yrYT02VfBO2Mw/1y6Td9SSv/C5+IeXKSVEeFi2/JimgxrT/AmANPhX3xeeQcfOMqKQgLj8HoF+b1LbqIzFHczZu5vv2O8y3Hghgm+GXMBc+G8lifuNBTCQvNTknko7cgAQ+e0ZSwRgphd/dDxAA+j8xUrnsVaX9+2cCiA+4NNEpP+jb5M0/yYVJKmsHoA/VJNzYXSXn4InuVD7V9VEp4K/J3idyF5ZfXoHI11cLuDIWp37+Wl2x4gOpx3rfWVhZUh0LpWOgpBklgrN4End4jHZj0f4ttQ9WQiHx2aFvz1SLLJUwrFg6AP0QZVJUImAQMQJn4fCO/b7i2ywEsNxlAUZPrkeAy01RDHDJonLBhzK5JbQ8xCWlBaPL/4K0/AhDohflfwHPDIoA7d8+aTjCZ4YVG0MHIEf7Yj3rrujgzsF8zWG4+XOut4+TlvnYVvYBVSW/6ZimlvQdLsW/xgawZPEhRPmPK8X6RapOyB3QvVaO50qB6LQK7T/AtkjL3au75VtBb3lOByCPNq5p0Xsi4vsQJ5HZuKW8RgaQ2AIZrh5xHXmocqQ8uPhctToPZLE/pTeHxI2xr0iMKgCH+xVkhjx0ab1aHiO1S1JV2n/wzYqRgCWYEjs6yCkxOgAFtvMn5+nNqrQc6KTkEKwk2A9OwdgCRUT+dDM3i1iIxzDn/RCW7/1v5BX2WcHaFv1jBPqd77NYisuHAJYLYpOVQ5lFMB9Yds6h/dvhmq9UBMh+FQGyD+d7vpfz6AB4oYdrJ7TqXdBR7plQ8gV0nLvEMgWsK6/hyesJdPp/TFfI08vOVys9Yonl5XVNulqPkPvxozgwlhUoIaXhXB/dUa/uKaEqRb4qtP8INZGW44LYYIgOgM9tjh/RGLda7ons0kJ09qjyX8xwK2IbXlnXKa/GafMKn5trg7ixTXr0qCr5PRy43Tcc5JtwCbhyWtQSp4QLxF7ptH97bIuVjPijb9lOoEYHoNjWGeK6ujnaLIkLZ0dCDKFCtXeQ+ng5hpLeROzCYjgji3q0LAlzuckQuEL/asJleqzTLY+D006hK0MFBhJw5Sw4AT8feJCf/CRA+/eTpu+ypiGnyhW+S+0VWPrblNoiF4bc9U/v5w0q2pVVUiHvxGH3qUG6h3zAxHQ4XfIUnvxjkxUSufXfArY3EZy5AEPl/8L00xo4emYXsjVwYsxWpJ1YuTAaDuBIHBuN6Z1R+DwKU1V1uGZL/J2C0Z/NQkafX/GOXAOHejSWCc7N7wKeVQgB2n8htEI593IkrBvXXq++b6N0jgBYoGprBAAxBmuwXvRjFlQuS5FmjXNSy5Po/CO7N0RvQOaTCEp8OpGW15f4lDTkE016VNUI2QY3gJ3xbx/kKd8ryk5B7w6SVm6CZWn8qDTtP0b2bylzJh0AC79+Ww6AUTUl8kVGSHtvNBOrgYC/l/ADiNb2vWbZpSN34sn+cWedPIFUoau81zY/CdjSdRudkL0xQnBkFGNY4Aw1wAFuza82PGsoArT/wXSibv8Y5fN9OowOwGA78HzEpgOAHNIXLG1Ql3lWsowFmNSm/1ol84Fg10hgMFvmKvktVmHcMW6MPBSF7ZIzu71pORZTCCdFJTYCDoCLqYyjMRx6XyTaLaZK0P6Hb7io2j8eDo7xc3UMHYDhbaHgM2w6AOgkHsBc/xEFK8ULNhCoadW/dkSO2nAgpDd4yl+G+fxmDMXfGuUES7DnrRHUOg2Yvh0Sqo+KNftOOLIPAqNe+Ogg3xVCgPZfCC2RSNk/VEdStq90TFdPFFaL7GfTAcjOxdNRmw4AnoLWImht07B3kfIEKMSL61p0K5yoGSGqIGZeHw7IvLYuuRVbJWNWJx6vTBKsHpmGEYGz0QmHlh7bTctKJAv63PIG1REPctHRkvZffFtExv4RC4YEdF/yY+M1OgDF20POK206AJlCA0oSkbOCMf2itll/E0PI14em/volmvVxX9veu2ysCY7Ad0NjiZ3UMBbwxSBjJEKrq08F0/79ARkF+zdOcDohO7xdr5Z5qRUeRPiKHQFHjo2dziErPLFV74zh9mtCUQPD1vjBtnR3yafi3vkbfiZTZEeDOtdJy1Zg+mQoTJVMQRAnMwXmCZ/2nyeoPE6Lgv2bFPQVWu6VJmR88fDiCIAHeLkutT4C4Er3h5gGYAa/XC0w8Pjkq/Tong+x97wjWwz8xv4nzPPfk0LgZikPV9fO0QeD7eWYWplin+hGJaSlnjkCNmKy0Ufa/0ZAfP4Ypv2bB4uOmaqx2Cp58h6KLZTXeSTgSGX1CDnZo5SyubxnndwVdOdvhuh0Wg5BxO7Rpdz5GyNqn6l+t+nHZTusGLCWsSyXsbpKZpv9OHJ9z+MitH+7VhCm/Zt4JkztfLnYGtIBKJZcyNeh4bhbXR5tgLW952KYK+jNfV5wkrKtuTHkoWJJnGKWLmJaYJqJUDbOT1CVQhKnJH4L95rERkGVGadyaP/BtFaI9u9gEuAuE6BYTE3pABRDLQLXoFP7dM08vV8EVImsChNm6+0RqDYvKAXNOnXMic9uWyd7lGtaZrM8yTg/SEP8bFDccRObUF0tNwdVXlzKof0H31Ih2f+46nRx8QB0AIK3Ed9KdFIhRmH7Vgt7gpIJ+TWWq1XaK2GgZDyNfj2Ts7tJYeq/fF/G+cF+5l/CvgO3BEUB+yEcWTNXc1qsH3Dafz8YAb4Nw/6RKnzPuhFybqHVpANQKLEone/IYZkkFVHSKSK6gMvFgQWlmSh/DH0jOc1vIlL9SKiB/cxPwZDITwJTJiWXj79UjwusvAgXRPsPv3GCtn+MQF6SyWBYQNXpABQAK5KnJqUlknqFqNQWc/QUBIfNDEQF5O5HUpqpfmXmCkTnAAsxywUlLT8KokizNKqyRy4Noqwol0H7j07rBGr/2PETTkBBU550AKJjK8VpouXw2rma+9j3o4fh4BtNcFi/Q1beYoe6sq1ppwAAQABJREFUFWlX9uDmTEPjxTK9i3CGSSVs/+XIKXWtOhp7PNivbdYSaP9ZsYR2MEj7R8zTibUtevd8K0sHIF9SUT7PlSujrF6QumFJzOno/PP+ARStG578Eeg2deks9XrRMsroQkyPmCWCwTgBGgGBTdq6AxjF5qP9R7FVRIK0f+zmeUO+CYLoAETTXgrSygSA1LbqIwu6qARPNik60SkXNARWFIb1G9IcgAQcC4q6vkwvMjdB7GZpf4geCYkmVoe730MYTUz7D4N6/mUGZv+ObF1TKf+dj2Z0APKhFINzsCzwZybjVwxUtaZiMiXTzTywtQJ6BWPr3qPwY+ZudEWAxlbW0xEYeGsRlxZ0CZ6CGs2e9wVdFPOTaf/Rb8Cg7B9TAZfk0x/QAYi+zeSr4ebda+Vn+Z5caucZY0cCmry8Xk91x0ZMWOL2sCcZZX5xR6ecgnwJj9jEgGmgUe7IwpdF2dTJpmzav026/soOwv7Nbp09a4e3fzoA/rZtqNIyASAe0kKGqrzHwlNr5AJz0/coZsjLTapbLO25c8iT+OXwBJAnQa2Tr+HE9uFPLv4MR8u08U16ZPES4nMl7T8+bYUtwAOxfwQpT8MoWPVQZOgADEUnht9hKuCOQteCxrCaA1Q2N3ks+7ObGtmV1+C5Tx9QMD8UTQDb+HamUnKYYGOrooUMf+GYyurhn4KGFxPtM2j/0W6fbNoFYf9mOjRdLWdnK7/vGB2APhKl8teRzbAW9OFyioKuqJbzbT79g+fabiWHwnNPlYqZRKEey2ap1zBUWW9TFziGFwz3FGSz/CBk0/6DoOx/GUHYf0JL/eev1RW5tKcDkItMjI9jKmAnpIUsi3gA8/RjhrpsNhd4nlHqO/rZ5DeUbBMZjfb77VDnePkON7hxMkK+40VGlK+l/Ue5dYbXzbb9w8He7L1V8q1cmtAByEUm/se/XdOsvx3/agxdg4oqOdZm5D+Wrd3Hef+h28Drt51JOQNTAau9ysl1PUZwzsn1XdyP0/7j3oIitu0/4eYeZaMDEH/7GaoG15R6fgDl5PZuhwKT13cmx7+S8/I6lycVTeDd6eo9BFj+oGgBw1yI6aHJE1v0XsOcFsuvaf+xbLYBStu2f4wC1HyqVR82oNDeD3QAslEpkWO48TkYXr2rVLcNnoSc/2gqa2lf01hL+3a9WlYi5hDpanR0y08xCvCaLSUxF3q6LdlhyaX9h0Xe/3Jt2z8c7JOyaU0HIBuVEjoGJyApKXmgkPzQcal+2pEzbemKdepvIWnHHFvyKXcjAlgahQRLZ2101LeP2J/56E80aavLRH1TNk9BtP88QcXhNMv2j2yxR9VdPjgxVlnmy46DPfipI5yAkZgHfRxOwDdKKomNlpOx5a+Vl3ZKN3AsX2ATmvVkPCF8GYy3gw3V6LQkRMtSNyGvq7Q87XcqZNjmc3XN+mYMWZ6Sr475nmd+AyOq5Hicf12+10T+PNq/1SYqJfvPgOqUY/H35/2hWbp99i+i/N5jL+67cKv8RtRqDifAhV6ndcxQt0RNt0L1qWnVR6Fz+nWh1+VzPp5En26fofbJ59xSPGfCbL19IiE/M3tMDFO/V7H3wjmm4x7mvLy/ntiqxytX2tFh+/5wgp0bX1jaqHbLW5kIn0j7t9c4pWr/GAV7qaNefaE/OU4B9KdR4u9xU3WQHe1mBETNLIGqHmOrDni6bbUlO+py4bxenEzKX/Po/E1VdsR5f6xp0Vf5Va+l9Wo5bkq3+SWvv5yEI7tu0aon9D8W4/e0fwuNV8r2j9/Vzqjf1v2x0QHoT6NM3mO/8NlmlMKsIY5rlR1X9reiOwLR2hqV1Tz1VvT2QSi2kn0II0Q/LFQU8iR8t65FP1PodTnP19KS8zuPX1S48lWPIiJxOe3f/2YoB/vH6OaJ/cnRAehPo5zeY4oCaVL/Yua54lbtzKoGbHZhQ2/8QMru6d9kCsNy0d9jSVnxnaOSvTB/f6UfbdI2Uy20lRwIsR2H+6FjmDJo//7SLyf7RwzPAf3p0QHoT6Pc3mPfdBjAX+D5fjNWVU/LIVb0deU9zGffbkV2hIWuWCn3IRjoQM8qOnKuX6tNdFJ8cSY2rpOpZ5xHvjL1of1v3KyePpeV/Sdk57FNH20bTwfAk+nE/2LEBYzCk9/1E5v189hEaMdY1EhjExkLLyT9KbvO3wx7enry36gdEBQ4b6NDRX3smK6ewCjA20VdPMxFyJ0f7wBP2v8wLZz/1+Vo/x+rli/1EaID0EeizP+aACkMD/2lrlVfO+EyPTaqOEwQC5yWSTb0Q0f4KxtyoyoTQ/YP+Nn5m3qibXavuVz70j5wyO6wwQ6Bi1YcSBu6biyT9r8xkeI/l6v9g9iX+6jRAegjwb99BL6d7JG3sFLg/L4DUfqbTnxkvL7qpWURlv694qvMCAszNz+st7fTEa7zEEvQjxnyDlhxyLAcdr9+xcTqLe3fn+YqZ/tHkrO9+yjSAegjwb/9CYzBSoEfYzOhNzEicET/L8J+nxDZwYYO+FFY6Wxs6OpFZl/Ak7XOH8phnn3AUqNi9TXbpaKzXlzs9bmuMyNI/edBc50XxeO0f2+tQvsHPy07YovsMYYkHQBv9lTSV+NGaVYI3A9v+a9mZ8Eo7KuODmE7G9DTaXnQhtyoyfzXSrnHl4C/ISrmOvLJIb4u7Cst9xR2QX5nj66S3fM7M1pn0f69tQftPzNN56SrZaohSQfAmz2Vx9WObA9n4FqpkndN0heTKSusisNgfXcAkCFrhXnaDKtOQZVrddizXyXgYKzt99Hb2wp50puA7FdjuefO2b+J9lHaf/HtQ/v/iB1ifzIjqcmPDvEdCQxDAGvvcQP6rpOU7yIV6TK8/x2Gzh9du04ee79JrRnmas9f4wdcB5d1tGdBGwlA5Pr8jQ6V1scm7dRVyf02h/37A4MD8F7/z17eOx/Ks26VpOCA+nqvUloGpET1omNQ19L+iyRN+x8EDhlhP2MO4h7OFwkUTgCGY1Kqfhs3+3uxycoHGBl42YwO4N+JfkWBb6wVtue1Mv+PH8NTG5dVMp8DvvkZbnAK/+QXv7Ym1QlZL/olr5+cXfu9j8Vb2n8RzUT7zwUtE6fjq1edqyQe904Ac3+/w/Kl0XnmaPdeYAESep/OdsIl5p9ItwieVlZjaP11DDW9gdz6C5GB7W+4gb3vpGUNIplXjxghqxefq1Znzs//f9vmf2r+Z2IE4H/zPzteZ9aNlPvQI9uJ9s+CAna61unyN54CTqZx0Pyds3dkM+S92LxthnonSzWieoj2X2DL0P6zA8PvdIr5hg5Adj6RO4qn1DWbjpUjVqySB3FD9J61zXYN108XmJv27sgvn9m1N2NseG+GnVLr4CS04lkx7JcrnX5vaxt2lTLl9z35BNj5Z8pVcl3vU7t/GBx5xT9h/SRp+WckbLCfSoG/pf37izwm9o+HtpHjW3QNpwD8bX6r0l4+U/W016uDXC23Wi2ovIQvKsXqZp58bK3zzwEs8/Tv+L+XAvIBLMxRJA97J0D7984wIyFu9p9MyBSOAPjU+EGK6WhQJ9XO0f9RCTkryHJLsixtp3NB+xyMaY+vYLRmZ0wxTIbHvbm40oFjb2JK5I+YBnkIW9++ZIMphrZ/g2H/wDe9wdPE120MqZsRmrJ/UrdhKEYm7d83snGzf5WSrekA+Nb8wQpqn6nOxg5uK9HBzAq25NIqTSfkTT9rhCDIPbE97k8gc0e0TeaFuI31L0dq8LYGUyL7Yibkh4iTeBBfnIfth9t6z/D8J6zOHx3JcTa3UcbT1RI4UZM8A6KAAQRo/wNwFP8hhvaPB8gtOAVQfJOHfiWmA75vbrxm6Cl0ZWKqANaD+zMEijn3mrn6h2iPZ4Aiv02V1g/R//VTrdp7kJ6Z8zfpfQN+8oftpRDJ8fW2BnWnTROAU+V7RkCb+sZFNu3fW0vF2v61jKUD4K39Q7/a3HgRIPh584QUujJxVEDJcj/UrqmU2WiHi/GUWthvCsGS6EAfQOf9naL16Av4C37OP4VVHsfAEb2vaN3zvRABe/meyvMKIED7LwDWwFNN5x9r+0/LmMJuVgPrz08RIdA2Uy1c0yWfwxyzGVLmqwAC+BEXuhRxkHRsnHS4k5CGQV8UcsCRaya26rMLuaTv3InV8uugkvz0lWn+4qn8pEA6//WF/rt/2XzvDwHaf/Ec427/mP4xid34KgUCK5vUaszBHo6I6enGMy2FOgVRB5OXwEs5ZnMRzPFf7UVG37WIC/gZRgJO7fs87N/eYX9s3HTksOf6eIKxryCG/furjPL+0/8z3/tDgPZfOMdSsX9kw+QUQOHNH+0rEBx4Keb19kUSnhXR1jQa2pmkRF40ee8DpEYWGe9FxoBrHbmxtlmfPuBYjg9hLPUzqgT85JOpPR2AHEbg8TDtv3CAJWT/nAIovPmjf8XSBjXfrZCt0lpugLcKX4CvXAQqKr2NAMCL/nou2cUeR2d3fW2LPj7n9SUe8Jet3lg+yRGAbGA8HqP95w8wjCf/Pu2s2L9mDEAf35L7u+x8tRKOwDcxPP0lGO6CkqugTxVqm6ZWFStqfJMeiaC/3Yu9Ptd1JpAQ7XZbLiegtlruKoM5/wF44Gh5GqkZIIwfNhCg/W9AMeybMJ78+5SyZP+MAegDXKp/2xvUcx1d8lnUbxrGAngT3aih65p09UaH8v5YXZnZECnv8ws9EQmEbkauh4/m93uf/OEcHFWoLC/nh/nk06c3VlgwZ0kfDB//0v6Hh1mq9o+hYZdBgMO3f/zPaFJuW726AglotkKj3xP/CvlXg9RoGVmsNDchY4u9Np/rMBKQROKge/ucgHJ88u/jlEbu8r73/OsfAdr/8CzDfPLv086G/eP+spoOQB/hMvhr0rR21KujEST4eVTXauKWuOB0u2VUsbqmUsEkYMo4AS36D0E/+Rsu2HfiGNtJfvLhn0gX3075yC/Xc2j/Q7d8Sds/ptXoAAzd/iX5bfsM9QpGBEwGwU+jgtdhasDsuV6Wr6RbfMeSrJD3goKGzn/PoMoy5fQNe2LfibuDLDdXWXBaR+f6jseLJ0D7z86uHOwfo8Fr6ABkb/+yONrRqJbAEThzXVJq3bS0lGOMAIbxix4B6N345p1SMxZz8wssw1me8OAAbJLnqTytAAK0/8GwysX+0fnTARjc/OV35N3p6j3suNYoXfJJM+SlXfltuVBAdO3/81JXLLUsua2ZozDnuXGbQKfNNz7Gz94J0P4HMywb+9eyiiMAg9u/bI+0NalOM+Tb3qgOlXXycTgCZ8AheBIecSnnEjDTIEW/0iI/MU8MRQuI0IWmHkFn+Mu3+rDDKfmey/MKIkD778VVbvaP3AIf0gEo6LdSPifDGVgFR+CXcAj2q9wEzoCWr+Jp91L8SJ4rJQqOK5O91Gd5g+rAU9T1XmRE5dooPvlsYEMHYAMKP9/Q/j+iWW72j3v6u1xb+1H7810OAovPVSZ/wMO9/8SsHdYjZDeVlr2RkGZXbEG7I/5uluPyaB9Oyme8Kqi65Xy3SnawkRTIq255X2/2M7e8pW/eumx04ifn6c3QURUdq7GROH7sT4D2v55GGdo/4mrepAPQ/8fA93kRMFMFOPGp3n+ZayZcpscmemQHLFnbAQc+A+9yG0Sub4f3YzInRPR/cGImeVXN8Jh8lT6oZ408qRKys1d5QV9v4j6iEu2fre5VaQz/w7D48p8A7X/9UtdytH8E+i6iA+D/b6osJZrUw6j4AKegD8TYJj26YhOpxlru6mpXqru1VCeTMhJTCpUJjbGDPF9pJSdi57sz8jw9v9McqTFPmCYQMr8Lsp9lRkngBOzbvU6eRIVi4wREvfM3tDE0a4UnnNQTMH2zPHuLRu8o7d//Niln+0+7spAOgP82RYkbETBbFeOQ+efphYx4JvOevw4ABFa5shf+3ONJOVzc5wTEYSTABDyZpX548rnPa72tX68w1YToRF9frnS3dyEZFrJk+irXojDav39waf/S+XajWpb305d/6CmJBIojoCvl1eKuHOYqnXEAhjkpv6+NE9DTLVN1Wl7K74rgz+q7+bXXx6DzBx43JV/ynZKCLcWo8zf1p/37YwW0f3B0ZKGhSQfAH5uilAAIdExTS/DjXet3UdhoZqqfMpc3qbVRdQLMzQ+/+uPi0vlPmK23d2zsuWAcgJi9aP/eG4z238swLYvMOzoA3m2KEgIkgPlg/5+sHdneBDH6WQ3jBKztln0wz/ysn3K9yjJLnbAfhOfpDq965Hu9StpJgYyO4OV8dYjSebR/b61B+1/Pz03K38w7OgDe7IlXB0wAE7Z/tVGkk5Kv+i33/Sa1BuslvoLOJvTcCebJB9PoX4/qUr9c7BEkeniu77wcxz6osRsBMPWl/RfX6rT/gdwwRfmCOUIHYCAXfoo4AURt27lxu3KyjaqbJYJOl+wbphNgbn4m4C8uw/597TD+Uj0OUdr79X326y94uMvWySt+yQtSDu2/cNq0/4HMDI/NxmZWbNEBGIiGn6JOAE+xT1vRUcs+ZjmgDdlhOgHmx45feWzm/PvzT6TkZCRX8v0hBTb0IgIAY5m+mfbf30KGf0/7H8wI+VleePlM1WO+8f3HNbg4HiEB/wiYHQyxJCwTwOKfVPwQ0NGM6JFT/ZTZX1afE4DsW0/3P27zfd+TT5zm/PvzwPD/Kf0/+/Ue88Amq2UsX7T//JuN9p+dFRa+/m/fN3QA+kjwb2wI4CnIym6FrrLT4fSBNU7AuP+S/YNwAuL85GN4TZqjp+DxZPs+dn7+xXSIFfvxU8ehZNH+h6Kz/jva/xCM1Prhf3MGHYAhOPGriBLQdp7gMAqwTV2z3ttmrc3Qm20nIO5PPoY/dln8no12AJt32mYoO3EkNhTOJpP2n43KhmO0/w0oBr9xpbOtS+b3fUEHoI8E/8aGADK4PY0f+RobCmOLzHobcvvL7HMCMJXxWP/jfrw3Nz+49bGc8++rv1mSiXlK3zM+Gvlw8h7sKyeuf2n/uVuO9p+bjfkG97c/Iv4Fi0nWv+gA9JHg3/gQMAbsyCM2FMaeMwfWzNHb2JDdX6ZxAto65RA/nYBSePIxjJLdcMIcqezPy6/3yMsQewcgcwOn/Q8yCdr/ICSDD7jym/4H6QD0p8H3sSGA7H332lIWP4qLbMkeIBeR6FiXf4B2fZqTVnJC3Jb6DeCBD3WX6zFY+nf2xsd9+axlNfIyPOmLrJCF0P6zNADtPwuUgYfSVXJ7/yN0APrT4Pv4EOjMeLKrbCiMYMCjxrfoGhuys8nEkO7XvIwEmCcfBIZ9Pcpbmmard7Zj6S45G8P0o7J95/UYHK3bTCCmVzmRuJ72v6EZaP8bUAz5BqNf9/Tu2rrhPDoAG1DwTZwImBs5slndYUNnsyQwqeTHNmRnlWlGAjrlIGyPfGnW74c66Mp7kpSD4v7kb6po5v6x9M9eDEZSfjEUyjh9R/vvbS3afyFme9PGJ9MB2JgIP8eGALKiXWdLWfwwjqpt1l+2JX+QXMQ1LG1Q07FH9wEYDcgvz4ErN0tCduiYrp4YJC+GBxI9cIAcGW1FdVdea5+hYpn9LxcP2j/tP5dtDDoOR6m9QQ3Kf0EHYBApHogLgbZZWM6FG7stfRGJfo0t2bnkLm1UjyEuYCs4AcdhLnzwfLUrqzHycU0qJTu0NapTsaTtnVyy4nS8rlXvigDM02zpjCmS623JDksu7Z/2n6/tpZXcku3cZLaDPEYCcSFgbuzoOH5iRV8lU2qadT2yr7VakT+E0N5Ne+40p9TN0VvjSX8Mcncue7tRLRvisjh/ZdXZUtVya5zh5NKd9p+LTOyO27V/V27MRgT3Tr78JoAb9l24YX/DV7lpubttpjrGV5klIKyuSY+RKvknho6rbVXHTcu2HTPVAlvyy11ubYv+PkZbLrHFASMptyJA8iRb8sOUS/sPk74/ZVu3f1d+h4eYQ7JpyymAbFR4LDYEEAy1Cql1r7apMIIC78eN1pqDYVP3qMvGzW93RCdfbEtPRIi7jiuzbckPWy7tP+wW8Fa+bfs32mHr65y/LzoA3tqPV0eAAHK7z0MsQLc1VTAVkK6Wn1qTX6aCJ1+lRyOQ7X6z6sIWAows3IeRs4W25EdBLu0/Cq1QuA5B2L/Zd2RZvXoxl3bWfni5CuRxEvCbgAmEw1PkDX7L7S8vgdS0CFQ7ov8xvvdGoGed3IWu38oWzH2aIWfkD/rel+pf2n88WzYI+0cw8Y+GokMHYCg6/C42BFRSfmQSgthUGPJ/NWG2trJDnU29oyi7Zq7+IQKQDrSqmysPlvrTfx8/2n8fiXj8DcT+RV5AfpCnhiJCB2AoOvwuNgR6l8PdZFNhk6EumZRHPzlPW31qtVmHKMiubdVHIpVtznlJ33RMBJTS2TeFixdE+y+eXdBXBmb/7vC/MToAQbc+y7NGIGUxkryf0puPcOXR8U16ZL9jfJsnARP0hCd/a/s4bFDDPP3HfdvfDZXJ7w3tPz9OYZ4VlP1jSvRZ5AkZdsM0OgBhWgPL9pXA8gbVgTz+F/kqNLuwHSur5X5pwuaafOVNwOyvgHz8D+V9QZEnYqpmbdqRs4q8PLaX0f6j3XQB2n8KS5fzsn/ewKJtM9SuQAIdM5SJBVhc4GWFn65k/7oRwWcKLFzRaFxhpk2wv+/jTkLG2tbITC8srVfLbZcTRfm0/yi2ikiQ9i/IYLp0lno9HxJ0APKhxHNiRQBG/a2AFP72xBZ9L0YCmFFzCODIpjhpREr+jBvTlCFO8+UrOH8L2rqL2FTJl9KjIYT2H4126NMiUPsXWbGuU2b2lT3cXzoAwxHi97EjgLmvp7H85ZYgFMfywCNrR8rjjAnITjuzakKj83fE+vbK6PxdlZCTBBsrZdemPI7S/qPTzkHaf6bWSi54v0mtyZcAHYB8SfG8WBFIVco0KLwqCKWRzGbvZLX8wWxnG0R5cSmjZp7eDysnng9i2N8wQTtcW2o7/hXb1rT/Ysn5d13Q9g+v9yVMARX04EMHwL/2pqQIEVh2vlqJjVLOCEolR8lOyS75i9nVLqgyo1xOXYtuQArex+EABLJaAm39Vk+3XBhlJkHqRvsPkvbgsoK2f6OBmyr8fkcHYHDb8UiJEEASjPvM1rmBVQfD3BiG/gPiAs4PrMyIFVR3uR6Dm9+jmO9vDkw1pIFOp+TI5U1qbWBlxqAg2n/wjRSK/aOaWF3z3WWzVMFbo9MBCN5GWGKABFS3nI/d4BYEVSSeeJOIC/gxkn38PrNTW1AFR6CcCa16F7dT/o7Of/8g1cHT/wXF3PyC1DGssmj/wZEPy/7xe3ugvVEVtVcJHYDg7IMlhUAAu6V1wgE4HE/mgT4dZtLcVskbSPl5cgjVDrRI89RTO0dfjSH/5+EAbR5k4ej8Hyn25heknmGVRfu3Tz5M+0ft2j9cKycWW0s6AMWS43WxIbCsUS2GoZ8TuMLY6AZr0m/GMqA/luQeAkiEVNusT5dOeQPR92eh8w/0foJhz7crRsgxgbdrzAqk/VtqsJDt3+yAmkrJYYVE/W9MItAf7MaF8zMJBEUAS6NuwijAL4Iqr3856Bh3xx4Cf61r1leObdKj+38X1/fGoampkj9gK9obbO/ol5WRC7cjIYctPletzvo9Dw4gQPsfgMPzh9DtHzXwY+oLI5V8+U2gbo6+Czenb/gqNy13Y2czPu14hNoboBboHHV/lZGicyX2qL8GT8w/7d3Apf/XkX9f06L3xI1nmsl/EKayuHEd/o969WCYOsSxbNq/t1aLiv3j6f9mOHWnequNCDOYeSXI62NFIDlSju7+MDNXvU0YiveuiZ8laZmOEYE7EJ8wt2OmCixIsag6Y6izZoQcieHCC3B9FJY5TmPnX1RLCu2/CG5Rs38tj7V1yelF1GTQJRwBGITE+wGOAHhnaFPCxFY9PiHyMsoINGAtV53SrryQcOSO7oTcvvxCtSLXeUEfr5utd0wn5ASMWByPzn980OXnKO+6tnp1Zo7veDgPArT/PCDhlCjaP6Yxn3O6ZF8T3JlfLYY+iw7A0HyK+pYOQFHYAr3IzOFhbt5ErQeSqCbfypmodmS0uxmZ3B4zyVzyvc6v8wyXBObWocMJmNvf2i+5vsgxW/w2qsN9kVXmQmj/2Q0g4vb/2uou+dLKJv/iXugAZLcDT0fpAHjCF9jFE5v1/njyfjSwAgstyJXXsL3xM5jvm99VIfPfna7eK1TEcOdPnK23w0TgXogo2hcZ9PcOKm3vcHoN+l7L/O5OOYjJfgaRKfoA7V8kLvaPB4O3OhFM7Pc9gA5A0T+f3BfSAcjNJmrfIGvfXnjafRgjAaOiplsWfd5BR70oLfImdH5TK1mIofn302lZk3Rk9bqkrB3xoaw2w4OTr9KjU50y0knJ6HRSRmHocBQi9uvw+dOQuzWCVKfg2OQ41NuMiiCr3UFZePCQRwK0/xj87l3pQDNPxehXm8fmHnQ5HYBBSLwfoAPgnWGQEmrn6p1UWp7CkHdJLNELkp31spDlrG0tVhyU+Q5/NjnT/m3S9SbbZDHtSsg+fj/592mFBwi+SKC8CZgd5FKufAmJZSITgFfeLbK+9rj53crO374l0P7tMy6qBEx7reuUL9rq/I1OdACKahleVGoETC75hJY9sKXm8lKrWxzrYzZx6mhQJ/HJP5jWo/0HwznfUjDtdUdbg5rqJctfPmXRAciHEs8pCwJLZqpFXY58Dk+er5RFhSNYScQlpKDWtPaZ6uwIqlfSKtH+o9G8WstliHk5Pght6AAEQZllxIaAGW5zOmUP44HHRulSUdSV1ViRcBDW+V9RKlWKWz1o/+G2GBzgM9sblEm4FciLDkAgmFlInAiYKHrjgae1zMIPErMCfNkmAM6L3Wr5XMd09YTtsih/aAK0/6H5WPr2HQx9fbGjUV1nSX5WsXQAsmLhQRIQWdqg5mCp3ZHonALdSrjs2CPYqXIT+XzHNLWk7Ooe4QrT/oNpHNxfnkMW0M8uq1cvBlPiR6XQAfiIBd+RwCACuAk+gB/JtvjihUFf8oAnAsaxwijLBW2dsg939fOE0trFtH9raDOCYf+XdiC7X1gpwLkZkN32pfQSINCbgGO32mb9TeTF/7Eo5gvw2qwItHwypeT05Q2qw6ssXm+XAO3fCt9ViDM6Aw7WfVak5ymUIwB5guJpJNDeqH6BhbNbIV/Ab0mjOAIm1wLSG5+CJX77sfMvjmFYV9H+/SFv8lusw30EcUahdv6mNnQA/GlTSikTAm0z1Du4ER6KH/Ex6MzeLpNq+1JNPPHc2FMhn+mYoW7xRSCFBE6A9u8BuUnjrWWqyW9hM7lPIRrSASiEFs8lgV4C+BHfrbpkMnLzN2KdwGqCyU0A65qfddOyLZ54Tg9rrjO3dvymGAK0//ypIdZljaSlHrEu22LIf37+V9o/k3sBWGDMvQAsQI2wyE/O05uNcOUSqPjtCKsZvGrYxAQjJRd0zFT3BF84SwyKAO1/CNKu3Jx2ZObSehXJDKMcARii7fgVCeRDwAznIXnNmemUfBbe/u/yuaakz3HlPexYeA6Cx2rZ+Zd0S2cqR/sf2MbmiR+O7xX4DWyB38CpUe38jdZcBTCw7fiJBIomsHSWeh0XHzJpjp6ScuQsR8mp+DymaIFxuxDr+aHyNZuOlXtfPlP1xE196uuNQLnbPzr+d/Cbv3JNl1y9sknFYlqQUwDebD7r1ZwCyIql7A7WNelqt0pOxjDbOQi33b4UAWTmN5XciDiIn+Npf0Ep1pF1Ko5AOdh/L5kX8Du4MegsfsW1ysCr6AAM5OHLJzoAvmAsKSETW/XOCVdOQiT88cqRcXGvHIY4n1Rabu/pkjuXNylmSox7g1rWv9TsHw5vBwKAb3JHyM1xzmBJB8CC4dMBsAC1VEQ2aaeuSvbHWvgTcAM5wnFkVFyqhk7/FTgwtyUcud0sB4uL3tQzQgTibP9pWekk5B6sarkZG/Y8FyGqRavCGICi0fFCEiiCQJNy20QewZWPZIZIq+UovD8AzsDucAYmFSHR2iW9w/t/wvTFfCzju31Zo1psrTAKLg8CMbL/3gZ5Fbb/COb2H8UU19Ol1kgcAbDQohwBsAC1DESa5VTVruyJJ+3dMLy+O2IHdkbnWxlg1dvxhP8ctj98NqHkuba18prghh1g+SyqjAlEwP4xsi8r0Ck+jqf833Ul5LGoJOyxZRYcAbBFlnJJoEACvTcbkx50fYrQJp3colImJR3ZEnsQbKnTMkU7MgV7EWyFO9V4jBjARyjwhaRFmH5YjCeaRUhOssh15E18XrR2nSyMS+RygTXm6TEhEIj9GxZYpoqOfjF+R0scV5a4SXkLbu5ixOYsQZbKspraogMQkx8H1SxDAk0qhVzDi1Bz82/Q6xNNepSziYxMpKUaIwfVuJGNxFRCNdKNVmIb406VkrVqpKx1erCdcYV0tk1TqwYJ4QESiCoBj/YvKemsxO8AT/JrdUI6e9ZI5/tNak1UqxuGXnQAwqDOMknABwK9NzPe0HxgSRHxI0D7995mhQ8hei+TEkiABEiABEiABEImQAcg5AZg8SRAAiRAAiQQBgE6AGFQZ5kkQAIkQAIkEDIBOgAhNwCLJwESIAESIIEwCNABCIM6yyQBEiABEiCBkAnQAQi5AVg8CZAACZAACYRBgA5AGNRZJgmQAAmQAAmETIAOQMgNwOJJgARIgARIIAwCdADCoM4ySYAESIAESCBkAnQAQm4AFk8CJEACJEACYRCgAxAGdZZJAiRAAiRAAiEToAMQcgOweBIgARIgARIIgwAdgDCos0wSIAESIAESCJkAHYCQG4DFkwAJkAAJkEAYBOgAhEGdZZIACZAACZBAyAToAITcACyeBEiABEiABMIgQAcgDOoskwRIgARIgARCJkAHIOQGYPEkQAIkQAIkEAYBOgBhUGeZJEACJEACJBAygWTI5bN4EiCBIgmMb9IjZZSMVGmplrSMrEjKSNFS7WpJumlZrZOyUq+Tlcub1Noii+BlJBBZAhc+qjfRlTIisU6qExq/gwoZqdMywhVJiJIPtCv/dhPywaUHqA8jW4mQFaMDYKEBXEe6fR9aUbjJ81V2BGqa9STY0hR06lPEkcl4vxVublsBRG0GRroXSQJ/9fr3jhJx+n7ZI0TqWvGFK+/hulX4tzKtZTlOX4zz/+Em8TcpSzqmqSW9kviHBCJDYPqT+tOOK5PRmW+VcGUKLHlLKGd+C3UZJbvxfxizMX1t/ocfCMw/81I4bu7DDY/iCy3v498H+PJf2pF/4vewGOf9Az+TxV0V8o95+6q3ei8rqz99t4myqrTtysLcuvwuQydktN8yKS9aBOqa9BhdLXvgRrUbbmp74Ml+V9zBMo6fuZF5ejmyGa43/ySx4Q6JGyQelwQ3UeMkuK4YJ2Cho+UZlD+/rV69YM7niwSCIDDtET22UskesPVdcA/9EsqcKqn1JRuTRcdd/EvJJ9D5f8IIUMZR6P0NGPEJ/C/jJLjSht/bAvz+5uOc+c0HqefN+aX86rsVlHIdA68bbqbXotBv+1kw7tMvddSrL/gpk7LCJ1Dbqo/Ej/AAPJHshZvP1uFr9JEGcAjW4kb5PO6X/4ujzy5tUPM/+pbvSMA7gYbf6+NgY/uj090d9j/Fu0QfJWhZA9v/k1LyVFrJs/P2V8/4KD0SougAWGiGmhZ9FYZhv+uraC2L2hqUGfrlK84EmrRTVyV7waE7ATe9I52EjI1NdVzEFWi5DTfFn3bMVAtiozcVjQ4B2H/DbrI3bP8kKPU1dP7/FR3lhtFEy7/hpNyB6Yifth6o/jbM2bH4mg6AhWaqm6ubYeANfopGh7EcIwBb+CmTsoIjUDNHb4MhzNPwNHEsRjInBFeynZLSrryAOdZrnLVyd1uT6rRTCqWWCoGZj+kdYTOnoMM5Bp3+/4t7vVCPF7WSa6or5M6mfeJr/3QALFhi7Rx9IW6O83wVjaevtkYVH2/Z18rHV1htiz4eT83nOA6GOEvwhWmCNajb7ViFcHnbTLWwBKvIKnkg0PCYPhXz6WfhN7AzOn4vs/getLB4KaYJ8LB3u3Lk8uYD4mf/dAAs2EZdsz4Vpn6j76LXyQg+bflO1XeB41t0TdKVszANdDrsIBN453shURToyoNQ63I4qk9HUT3qFAyBTOR+j3wb9v9NdPxjSrLj3xglYmhRz0cQKzA3TrECdAA2bkgfPn+qVR+GedIHfBA1QATWdm/LudcBSCL1oeZyPUl3yTxE2R8ZKcUCVgZrsV/CdMe8jgZ1d8BFs7gQCTQ+rKdgtdI8dISHhahG6EX3Tg9c2rK/+nXoygyjAB2AYQAV8/WEVr0L1lf+qZhrh7oGTsXX2+vVfUOdw++CJzDhMj020S2zML9/fvClR7fE3mWFrR2N6rroaknNvBK44Ck9rqJTZmO0y9eVT171isD1izH9Mbf5QHV9BHTJqgIdgKxYvB1EEODmmBf6pzcpWa7W0oiVAC1ZvuGhEAh8/lpd8a9Vcg5GZn4Qq2j+gFnBEViAOIEzmFcgYPCWi2v6m67sXCrTUEwjnvoZn5SLt5a/wRH4VhTzCtAByNVoHo8jDmAdPOJMEhePojZcjhGAGzECcPqGA3wTGgEEeh6MJ/5r0MY1oSkRs4KRgfAGpG6dsex8tTJmqlPdjQjUP6oPRefxUxym/W/EJtdH3L9v6NYy4/IDo2P/pReVmYt+8Mfb/C7SpMP0WyblFUZg/KV6HBI93YFVHg+z8y+MHWIjznA65U04x98RrAcv7GqeHQUC9Y/r/2p4RN+Izt8EfK7v/E0AnHnx75AcwOyMKpEl4BcZ++ePMGO5/v8PlrDEb6kwoGhlyvK7ghGXZ1Z3VKblTah5bMRVjax6makSR66prZQ/TZqjac+RbanBiiFd7peRnvrvGO4/dcO366Pf1/cjZpnfxp/NiTy+ns96B+lj/7+9awGTo6jWp2cmu5sQIRcQBJLNXh4BQbgoyEMEEh5JABFFQF4CIoKoFwyS7G4CsiBJdhOeUUF5yEP0cgGRdx4QEkBFRBS4wlVebpYQ3lweIdlsdqbuf3q2Zmt6u2e6p7t6enaq82W7uurUqVOnauqcqjp1Cvy4un1vepyNJgt8rFLAKACaGA8nEZF7SsNZ003NoKmpwUqg5WN94+eJZRjebgDYmBKgJsknB7CCsnu/RX+zj8z6zGPAqsOBjmWiqX2h+CmE+4MQXlsUzfTl2X45+5fCnkmVcapSoMYxTD3Bc10H+MV+EXBi4hn2k8BsqNZjFABNnIew/h8dqNen6SAdeA1Odw5AQE3N5I14JrpDmNhKOQDDwFGsVLXMEf+Ni5AitZeplCaTr5gDrYvETr299AwmNGdK4VUQ2gPCrGjWrwp7KdwlnIpapnGcDEs4+e2WNhzwSz7wDa+CbsB9CLfw1cYyOs63UQA0cTu1np7VgRr7qJN14DU4h3KgpVO0YSvnfgiq0UNTTUxkHEjTMWIk/X3sbLFLZDgNotAcgGD6KrYd/wIlbUJBSDNWVQiXCjOsKsxLwUrhzzDOfCoONezEV2k+tWw17MTnLE+FVcPOfGqaDPNb1jVFJ+DY+NPsLpmzxvkYBUATt7tnWU9rQZ2lSVrwGqRFHIDwvwmD11wIf/MbKeKMng8Imm0yGXpm/FzxfT0lGKxBOICZ/+Xo+exzpMHOpwo/KcTUOD/hSvN54a4UX5h8TAs/jCNI2FkHJw5BW+cE/Q0GgrH2f/zuzKOLA7AW/xtwR67V4frqPVe2Wn/WRXc94918vtisaT3dz3vU9cyHatYdA+EV8CLI58vNEzMHOhaLzdYR3Ysja3sMKVoKMflmgCBhL9igeFR4L5zl4sulq2WEDXN+frzKzKcW0mEfcAVuG4yl/5vZjWS+jneOHtWBFk4ljB2ABsaOnSu2HdlPTxrhr4G5AVDCh/wP4GfhqgBZDGgEHLD3+wX93Rb+LKz4Ud9y5hx09ivhZX6nIORyJIzfMMPx44WzXHzQ8krBMx3OOqnlB0yHf5EfYPvlF5xN92MUAI0cxkzmMR3ooQCcoANvPeOEIdoOaaLHsbDXXM98SErdoYSdycaBxl9APC3C+89YDv4DStvELlEKPCnI5DcnlhJ2El43TFh6uB4qjjBhP3Uth5/T+WFc/MCtMo5d3qa7/5stAJvbev6wj/jMenpXB/b+fvqPlbMsLYaGOuhNMk4c8fsclKqloNEc8UtaQ1l0d/caOoo6LOx8mUcHB3DEb29Y+S+BQMwbu7oJNDVOEqHGxRnm8tXynN9qWtBwJbj85AlKh4QXdE9TI32tY5Ke/m8UAG48jU9zp3gOS5o7Rl0E3Kpe8mqbNT1qvPWGb3yn+AL23BbXiKX/Gxj4XsgSvQiF5UUM2v/AtOHtbJZWZ1L04doMrRn5MX3IV0Zvu0Bs2N9Lo1L9tGE2Q6Phj380jqa2wJHLBOTdDsu8WyP/jvZRvIQ3Ouhcbq2hQ8xV2NE3FDz7TUGfuAvCn4+k8ZW2gzNRGeZiZZrzrabpDvP9Kha9gL7Ll+y8yL8FCLA3sFq0Fv//b0Q/rV1N9PElU6yP2WNhOkujcDPlJ6wRNAqrsRuDvC0AvwPyb4+abo3vnYEv41pnWU8/dfIDWwpPqbQ87seaGmgqlIBeBo3yMQpAlNx0wQVr8i50sBkuSaGisE60qqfV2ioUkjrP3DxfHET9dHdihWCOnoVy8gdK00PZEbRchw/95jliRzgkmYjBcv9cmg7A6L9pErsF3GDft6LdOjyJtNUqTQP+/O8pCHeuiJswU+PUyqrxUYcZH9H/QtAvh8Beus6iR3T40Ge7BwjBSRij90PdJ6LMTcoqBMwDtb7ObzVNhuXbD6wKM5jvgc4p1mGcFOVjFIAouemCC45kJkKnXuaSFDoql6KDe6ZbD4VGVIcIeNkfs4PHkib8MdgtgtD/NXzm34cZ7/txN8242eIzcNf7FQwM38BAWHVXpWr9MYu7BacDvqHGmXBlHLCX/VP0x0LuQUEzVLgxkEx3vtW0KMKCHsJ4efM6QQt1CHwmsdTDCgHSvwbF4wTQke//ss6c0StcLq1Ueimcar4c/brzEOtEjorqMQpAVJwsgad5rvgIgiZ6ZzKCbsb1wCeXKNokuXBgqy4xdgTRk0j6lEty7FFYnv8jZt6/6htBd6w613ondgI8ChzXJXZPCToOS/DHgr4tPcBijTZHBMOze/pSsU16PT0FBW8jT4EmhZJ8c7Fq2PntN02FGwhDCP0ZSu+vmiy6rWOK9Vb4GkaDgQ0jszk6GfR9HbzKu0CW2yIu9bBLdYt3iyvFPwkv3wqslaOf4VrhyHwFGAUgmr5SEgvfHgeAyC+QgeDox2xtXPcM642SBJjEAgfsvfGP6Qlo9zsUIqsQsNtO0J1Y57ywZ6YV+b0RkVYJN/e1NNExGARbgTdyvxaBaRXUDsW3M3A+k4F4bxzmZE+j/7cUCXQXYWOzS8bLN0eWC5dLH8TxWwj+C3Hm/Tm7rAT/wbG843B/5QysDOyC3wH0YTx+6qnC+YFXYdS8HJaPoLbOqVaX/AzzNgpAGO75zDu+SxwJRv/WJ3ggMCxjX71ipvXdQJnqFTgvyJbhB7xf1ViQo14MHzfjXvDZq9qsnqrRUWHBfDcC+NdeVR6CdtgEfAs2Ab+ssBp1mQ2X+mR618E3iUV7FzFAFTpeYc7gN00iV+FlfgGrG6Ib0w00Z/aB1goJWitv22gyh/5PtL9Ns1pHt7AaJyupxgUJq7AWfbNzsnWjRFnp2ygAlXIuYD5t2wCgA1bhW73aaq0KSFLdgY/rFNfxnfTVqjhmO3fgBrxpr7VaK6tFQ1TlsgFlKks/gzCpmp0AtgP2hU3A76Oq03DHY58rJzq6IMhVgaKGmRHqd7mwW7pLHLaS7hT9dPa8Q2u//5+3SBzUL9D/2U7Apa5FfUmmy7dMVL/9hB3tAiV4365DwvX//FKGJMi8tXEAR7Du1YUcy1JtunAPF7zwMX9atYQ/BNXzEP77rGizjh4Owp/7BBufdvcSG0xNwwD4YTX6CY7X3s6+NqpRdq2VCaO/c0DzoPDnCvBSNgseZ9iPMFJh3JbEVdxszZ+jL3RNtr42HIQ/s+viqdZDTc20M+r1Q3x+xHFDFAFnnMoTlX9+w4xPwQGPgbdNWxSu/xsFgJkaw4OOcrOuYmCodUbLPJEIgzZddQyDl738YanrJ2FwVJIXGvo7GF7P7OmlnSH8By2uK0GWxDxwztPdal3Rl6FtYNNwHf7nhUl8tH4Kxmy3xVdcbZbExmw4XTLXpl4RIEMEFqfxo8L4CbMAc+bLx32EMs6EI5tdYbj2uA0zjP507GT1oV6XwXhxAjhwTaFqqkBX+ecVL/mupvsJwzCxgcL1f7MFUGg1/YHmLvEqfmFjNZV0DQbjMzThrlm0fM98rpGewimMyJ0xlWIKBtylvSk6/s3pybFqLkVvFGmwdZmEet+GPh6vL4EstXbPtOZFUYfhhoPvmc/k6O8Q6s0FwS4FDlfWTdC4xXnBSoYNzfMYjvIdWY2jfJKkuN/Tl4j90zm6HXz+ZIGvKl9UHqrxlYZlvhBGgXmNL25O1Wl5WAW4SVfVMfs6jc+268Jfq3izTfTTOIU/z4JzFl2wYi1Nrifhz/1jRau1bF0K2wJCzyVYXn0Q/J49tksMvb3OK0MdxWcE/Qbz+hZb+HO9vWakUpg4YaSyoKY7w2oepEEJvBBOaybWk/BnFsyfbD2C1YDPIPhIgc8q/ySf5Jv5WGm4ON8cnFL4vI0r4B+zAhCQYWHAYQi4NYTRy2FwlMqLX95fYRS1WymYekqDF8Zj8UPkI5jxPDl6K2vR0XDR/Gg8BSa3FGy7XAgPhj+Ki0KMpCtTDbRz97T4nSfFVceg5bQvEt+GMP55kTBShbdEqMa5hd3iOK8znujdbIqOZkEoUdfru32x+DF4f55dfyefpBKmKgeVhFW8MMvBMcVdug62PgjCc7MCEIRbIWF72q1X0CkWhUTjmR1GUZ+Da9ezPAHqKGHz+WIzKETXxlVllPU8fPHvbIR/nuNYkr8A85tD8L83jjbAQDaW+iiSs9Fx0Ku7jBkPiLEYaxYUCX8uVAofDrMA4aec8FHzeIVh6MezXyP8bY7S3CnW+RDIU8HhviKeS/6V47kq3L3CEle+yGb4dwi8DWYUgDzz4vubo/k6C4MS8GMWfjrLqAXcI9fTT7R4X3SpPJb9/7i2l/astyV/F1YURXW3W4twz8A+EDSxnBLgbbCxs8UuRUTU6QfGgetRddiI4VEFhSpMvOJVGA47caj58uHHcbx1zyR58bNprvIfzMYXg4Qvov9/UFbJcvKc+cpPqXhOL26L0wZcGXOKr8coAL7YFB0QnJc8zEv10WF0YErRhiOFYpHqSK6HT9tZTRqe62J4+Gw/Vnb2ebvDwkVk5nFyYMUM668QIXviRMRrzrSov6HwpVIZW/BFjbqm8LUtEUdDfEx2CIf8WK8KDFW4qPHBwg80jaOJfANfTTEpJmLhu/9J3La4BwT56yWFOfOcH7VNyoU5nR+ZF28cCQ9kZ2YUAJuDsf/Ru1Qp6AjYG5wee60SUCBb/YOMX8REyjV8tj+msmq2GGwH/APXte6OGbp2l8cY0HaHz4dTa5ZZIQlnq3+IhSttQcK4VGEuBYYsQwoOGa/C+gkLuo5vqOPjcBKleQ/lwNzDrBewPbIr2uQlO7WcYGcgPzDO9uM8KdoNCuApdjk+/hgFwAeTogbBufA7MBjmO0PUyAfwoWGv5KteNaFPLFpY/f8YP4Jm3QTyzN8cu/TPZb6vAvdWHIgpyyr/uSqDxN5rF9/5UFnu2s41Igc7CL64xinAuVoyzik4ZLwKUybMXv0wuzXHjplPPh7eHsG2zEQI9tcL7cD51LYIGub8qqLA3/zkaB7f+ZD/KP3XKACl+aMntcPKoTOcrwf5ANYUNWFJ9HdbdohRWstJEHJ2+ANvf+fqJgnGVUvNzD84l+1Lq7J0MAYtrTYBGNQ27VtDFwensLZz2A5/UvQ9WyhwVVTBzoLCGaemBwhD+V3KXv1sfOaPbw7MmWq9jrGD+3+xTUCYdnFTGuCHINVPs/0QZhQAP1zSAIPbzG7VviQKD1UNjXSVBvKTiTJNF2gnLEfPWmvpS9rLGaYF8M2HMBg7GOJI7+kAQd/bslNoXwlKUjPhTpD8pMJNmLsJCnX26DcMa/+Rjab/V9ru9s2Hwu7/fYXZu5dyxoX4bRe1fTmbRWfOWirGl6PTKADlOKQxHfcD6F0FYNpTdHLzPHGSxmokAvVWc8QEEHKsTmJyWXoPZ9undHdYeoWXzkokAPfKVuvPmJ1+UycpbBAIJzj6f186KxEAN86d7wADsCNdZ/+qcKg0nKflXexlH9AxyfT/AE0zBJQNAzGOnFhY/uc2cVMCKhH+sn1Ran9/+f5vFIAhzRNfBDyn3YmGf1R7iVm6ftxcMVl7OVUsIK1ZmcJqTQ57y1+1l7GrWM/hUjSvgKEug/7T9VTslHq5IwNLyxfZLNQhTFgQ5YXRseaoXzQdFVf53g6u5vu/l6B3tiUX7QXrEg/Ps9+YuUhsUYpiowCU4k4caTk6A8KlX2dRmA1l0kR3j+8UX9BZTrVwb9UlxuKHcbzO8nHz1gXGyU/EHF5LZ+vcBuN+D/wzI6Y6ceimLxXboP/n9+RdBIFNsFOYMBw/fuIBBgWD3fs+bOcxfyLhQFMTnQ3GPldYCXC2HZeito8zndP48YpPUQPsNWbZMB5/jALgwZi4ovmIFBpB/z49jAKxRLhwOJ4MwG2IHbzkq6vNsJ+2HEZ/dWdUpoufEq+9ldJEh0MUaTMK5Jsyt7xExHs5kaxgTO90H11YEBReQoFpUYWJ33A+32PYu74opurUTTG8lZIdQUdAgK/2FOKqcHe2GXNKTXeG7WT69g+Xefd/bYNm3bRiBBX9eB3Ngjqu/XgUROSGOH2wjO8kiIDsRKAY1yW2hOX/t3QRww5sspmB2ZWuQuoYb880uMdOabQHwCyooZ+mD1cW27N/i46z6+cUECwQ+PEbz7BOIYJja3yrHyeZJ3oOzD/Qehnj8qm+2sjZNkxOubZF/8+s8+7/RgGIvk0DY2Qvcliq+W7gjJVkSNFmyPaHrfNGc5VgSFQezPBO1UkQVha+u/Ic6z2dZdQ7braFgaS6Qxcf4Hnzuxt3DE+/AJl+OqWsEGDGlhMUDOMUMMiD1a8z6u1WP2ZFnI9tD0D2NcJ5eezSDjY9ftrQBQY3/p3l5RfAKABxtnSJsrC/fHdW0J0lQCJLglD7FG6t+8Nw8JuObY1vR8YYByLsey79V6t1jyPafGrgAI6wTcN8VcvpCvT30aMb9Z4Q0cASXygxccivfrkM/DaCUvEMoAobhlXi7PP+U6x77TjzRysH0hnM0vniIH682kxtqyBhCz5hsu6u0Y0CoLVZgyGHJTs78dC2H6pSgyOIm2ZS9FgtGwY2zxcHYchqVusVZRg+vL8fJT6Dy5sDr7VaK9H3A99m5o2xOAVGnN8ojqn9L8zqpkBYbGELca6Ol+DwincKEcYh4/DOjNC3tcZFmWeQA7MPtFZgtSXvvEe2ASerYa925HgnrJoPYUxmXI/dGgXA5lwy/thHzAR9PTZqYBMALf9B+/Kc2AqNriAcczk1OmwOTDlawAaajljzqZEDm2xCF8Nq/w0dRUAB+CL6eYsO3FXDKeh0u+xSgoEFAT9uQsIt3wAcBMYCFkp2XvMnFg6MHEedEPh5V8FcokOI20S4tZkbrGxvOxP+WLS3m2MgowBIBiXkzVeo4ie7IC5ysDw6CvrjwpYu8YO4yoyiHFz6MwZ7W3njpygQOnD0jcCdAuaJlQNPnWGtR4EXaCtUuM+CtJWnEfG0RWJjrFANeqT0Esm1Y/UAADJzSURBVAxqvF+BgqVorEWb/q+x/dxQD1yqdJEt+BlACnFnu7nFq+2shpW8uX46zVmuUQCcHEnAN5SAs0HG0zGTcnlLp1i8+XzBRoKJf7IjtZ77v2bVudY7iWfCMCQwtY5uhgL8lpaqWTCYGybPCAue5GDhbVeHB3l+1IE/iJAYmu9GY/hnczT2P02NdCMKfdcu2Ktd3eIVQV+0cqC0LU40neiskFEAnBxJyDemQoejIWOxByhU2aLJTf30XC14DcRxRi3X8GIJmv/NLfDEBGLlAPsGyKXpZ1oKhb0Irgo+QAvumJFi4PZ2+ysFhFMoMI2KQHANI0+6gebEXB1T3AAH2DcAtl9+an+WaysGYhj5lu2u5lP7QIpa2hYX93+jANjcS94fNorCqQAtQq5Ubdk4EMaIi5s7xYKk3iT4yQ4xGtb/E0vVo9I0XFl7L1ZguivNb/KF50B/iq6CIrYmPKahGNC/47OxGVp8JDH2kS5B+xYGf3WQV8OqIPAbJrrP7P1H0kwVIxlp0c+LtgHcBLsU/DJNbXc1rLY7x+eK+79RACpuJv0ZX223luTgglZ/SUNLwAz7PzMj6cUkrgZs0KTsfQ4lPVQMBM8loRCYzKE5wNsvUPBuCo3IBQHa9wCX6JqKsvpRB1UAeIW5VqoA8BGGUfD8mmLGMCTWvm9B0HVllQAvQa+2s+wD8p0q7v9GAUh4B+qZARecWbqtGmSic2zJqwG4UOUu9rhXDRrcysSG52Fu8aHjcvSPnjbr96HxGAShOVBYBg2NqRgBjF63rRU7l2LKB7/gOTHf/1UBEEU4Ry90HWL6/yCnqxfCkcAFZZU8VfFjUlXBr4a5b/CTf2/bsXjQzssoADZnkv2nu4+Ow0HOpVWjUtAROHL3z3Gd4hzqwPBT5Qfe/76shQRLz6xTC63DHGnPTOt5DFvP6qhmY5Ym68AbF06sjuT7vzrI+w0zkV7KgkW/jKsOppzSHMDdC89BCc4bgnu1rRTsXukynt/KA29bB8vPogQZad4J40CHlevvpS9j+fL5alGGmdNo+Ny/tLmR/tk8T5xULUXAdlwE/wVR8wG8zeFncmPUeA2+EBwQ9OsQuT2zwifAAZ6JCU+YuUTsipneJ8suD8vBn+ujhr2EP+IhDG5OePXrijwoereWbGcp2Eu0qccqwkGSkUYBkJxI+HtVh7VmXYYmQVC9Uk1SeQkVM/CboAi8CIvqU6EIZOKkB2f/99NRHmwefm87YtKB3OCsiAPr0/QbWzGrKLd3JvShmlUA+sVA/1eFut8ws8Qb9rE5U63XvblmUuLmAPr+oAIcXMjnPIR/DkrFRFkX/BbMU0sc2KpLjE0TPQ7NbWwi6M5RDzaYZvP5bft6V81E4XTCryCsh5xnDVsszsh+e0W7dV1YPKXy87W0mfU4vmXRpwG3KWai9jW1MLxinwNs+PZctpHuTMLlQy2zxa7ZNB2aytFYDBKbYHq4CZS/1dkcvQMF8A3E/d52WlWqwhGkob0fQnsfGAGqYhQ5+vdaPO3RtkjcgIqc5Dm4y1kh19ZNaLjFARR97/S5U61rOZt5ksMBHNtbDmr2L1Dk0X6ubc2ZPOBx90ALn/aIdfZWqIQJVMwBPh6Im/wOxOmAx7BkXX2nPThbDWXkF7lGuhTeBH+Dit3Q3Wr9qeIKlskI4bMLBr/In94M3RM50gGEcLB0LCwnzoDntonFu3F5ACgCAwEiKAjXQugtxYbEz7EPfsdASiyvbReIDft66QcwOj0ZdG4NRZPI/kN5srEpiW0gnkXaD1zrfgjl7zZqorl8rW8+Ntq/KPIBYIxcAcDv54vA2x0ttfqxwThsVwjr/OMxuBcGfTnb57ca5tyOvGjS+wawmleCOADbq3vQ5vkjn442K6sEloDP9tv9fwXGbvPUGgdemWm9AEG4by5L7yWFdswOR4OW0/H/8ea54jk2GOQZb6T0wQARAuczkeJkZIJeeHO6Fbn3ObZXaO4ST+KH+l8YtCf6pZtnvPBHcDuOYD4+fp74nN98FcNhGwfK21l9a+ll9KsL0ZZb+8IFWwzAnoY7/P7JfiPGXiY29pUvABDwLw8A7hsUA9/OvoGTAoj+D4GwY2Hgl0Kd6QsTFvSSWf5PSiMX0wFd77HI2xt9BauOu3BJRgEo5nfNfLESgEbcP0lKgGQeBu0d2WAQs9nXx88RT0IQXvrvXeLLYe9kHzeCdgTu6PusFbGQwUDdPEfMxcz+DyB2d8mXoG8cwdxLZOlJKFMzg+b1C89Ce3wDPQ74K0FrRQob2iQDpeU/U+vpn2O7xB5+y/YDt2INLKFzGjxiCtrBT/lJgmndC1tH5dz/8qyPn2AKwXI7j/mTOA50HmI9iQnKanvFhqkL1q6e8Fjxsft/9INp4lg4fAl6dZb1dxwPnJREJYC5zoLBStPuEITnQJO9e8OR9AGWjZ9hhYANCHmG3HK5GOO3hdJpDbN/FA5F6hG/NJSDY++J45rodszg28rB+klnhQfK1Gy2ffADHwRm7GyxC4T2M9xGQfJ5wbICgT3FJ3jLwwsmcDxOwKDvPBo4X7kMVu0pAPgd7Rq1ILAFSkoDf8vx36T754CF9olI8BfwDCjAxgbAfzMkEnLlLOvZ5svF52kdLUTjTkgkkSpRKdoF2ufgPj6uHYNS8BZo/wf/hzB+FVOYNWlBa+ATfg310xq4b12LtDWY20zFO/IH+8HLo0KaaaJ7dBitAeeJUJiaVrRZkbiH3mqOmJBJ24qPbwXMN4+w5QElgLrbrFt95ykBiO2Tx5D8pRIgwZMS9Fs5d7HYAG6/GzNZamhookb8JDJQzJqwAjQCyv0IKECN+C2kYZtxCFYAUrYSwAJBCoVKw8w1rBjA2jwyBTh4Q5gcZTkgbAWNx778hL3E3r5vmIH+r2E4LVsdA6CBA2zAtX4t/TcadKoG9MMXJW6egzX45lFUEIrMjfiJnhwFLi8cUJAugxLwQ690P/G87J9ZR38Drc1+4CuCycEyIEWTojAIbZ4vDoLxx4MV0VEqU5Y+3T3T+kcpkCjTWNBDmh+PNjwKeCeAPy2B8Ecx8HOBEg+/cfNc51Sr+sbEgRhRX8DnLRIH9Vvo/7LduPoRhOFSenuzBTBM+tJLZ1kfrmi1DsEs4aJhUqVYqgEL2xeiKAiGj6frFv5MJ2+njO8SR4ahOdNHv9Mq/Jm4FDVButzLimkYWjkvjh5qEdLZFG0fljY/+TuWiUz7QnHOCKIe9LdrwJvJ+N/iJ6890DNgBAO+XZ6KJz+jfMkXHQaoahwQI+hFHe2Pk0k7GQWgas2qp2DMaC6AXn8IOsyHekoYZlgt/LhCPvatiSmaHRKN7+zwWdDlG9gBiFUKXkrczxGt5RODy6Z9q6k9LHI++hoWh1v+dE6/AsA39/Wuo0cx2F6KmX9+u4WFMD9+3nLZl98SPqow8EEhed6NNyYuORywb2cM2+ZcHe4/sj/lwxOMApCcdo6MEnbQst6indDcz0aGdJgigoVZ6BlQZhSdy8IuLhbBMHBbe8UhaIF8j4NFVwbNFgYetgs/iOLyHbRT5IIK3Ihk68eLP5j5N2GZle/w2NOGkYOvHMzVbwZwi5dCf+jgnR+7w8SjPGwZ/sumzfxJNgfgJMwhvIO1P9dO9q+BMGxLPmUUgGQ3e8XU2bOmdfbAc03FSOogI85Vh98C6Kezq8CqwGU2b0AHYBCI11AUWwFNWds/RCgWQekJvVIzhACL/m1IXIQRmPlfjXn7bgWUXsKcAWSaOkirwl2Njyqcxx++/xcqaAK6OABl9Z+ufcTZF5gAtd+UCEP5G2MUAF0tlgC87JoXRlhnoEMcB0vfNQkgKXEk4ITBqjBE4XjeF3HkL5ADHCzh34fTDZ9F21j8P0v0ebTRkiB0QCDuiOX8liB5YB/y5UDwAIYVemf/CNpE0ooTEydj/TrYknyOjgharhNe9IdrJyc+/saqwkZu8VHEtS4WhwPPSTYuHqTVxzloew3SKpwXTJh44IefCeP/X22bhIZT3E6yH5Vqc6bfDxy3PTvySmh9DVkRcoCPY2UEfRZC5s8Roh0WqLJZONkI8UCL/qrv7LCMxz7wl3DnwOHds6z8VZ/I/Gqr9Re00RSkneAbFwCzFu4VCPII8n+EENtHfYLGwx1xu3o3Qc8M6+aeVmscjq1d77do9jMwrkts6RfeDQ6K2kdu8WHioEQFUtyClIWVpUuKBmLOzAMzD95+w+pAHzSvH3jgh2+NUP3frov5o50DULw/Luo7XKLaP5xhTi/TB3C8dhOjADCj6uBhz4EQMnti4A51hGy4sSqTCmcsCQVgd788wch/No7w3e8Fj7Tf4Eft22gORmz5vWUvhEp8yzzxKQi8TylRJYPrU3TYqjarxwvo1TbrNMyg/+qV7owHn77gjAvyjVWSD4LA+4HFABi9DwQU3LpQfBGifkLRgM0DND9lBuUCjBPWOcAzHn7CxAMHblyMXLGy6TJ/ouWAhXZS+06Ydh/ICxuAjYwCEG0zJR4bBu7LsB2wDQaORxNPbAwE9o0IPQPyJVTZW2NPu3VNuSrBoPCqcjCFdL9HyZChf32Ai6NydJNPy/vLC7SUCWCgGVsGpGQyZtQ6Zqp6bAAsOsCujDpglwozsHNAd8aVys95+fELI3HjjVseI1esGL15ouUA/GDkt3C5jfmRb2e/CRCP35SxAYi2mWoDGwTRK1gN2B8a4NcwdPTUBtV6qFx1rvVOGMxQpjb1kx/m1r/3A8f+HIDzj35gITRafMEBKNUQQAEgf54RcYTsYb/lY7VgvF9YNzjw70O3+JBxWmwA4Kshf2GV38GZK+EmvNXBXMLw2y9eNb8alriA5xOkRbHiEswTIQdEGhe/cbvzo77Vdg0e3jSvTURIqEFVOxyA46A7cWRwPJZXv5fU+wSSzk2/BoDYr+/3Wxf8KH0pJRgNRvvFCWOvDfzCYr/RF63ptf5vo8Qtg6Fm21A2+vzSHwBOyxYAbDk2Di2kvQZzrhynSSEQMtwxyeoNwC8DWi0OCFpfmPVLGrz6SLn4wfyjjQIgmVHHbxihXZUaSdvAPuCSemNDaE91PldQsAfu+/Y5CPb8DLJ8Y7xRHiQPAQHq29oby43b+cI7wn+d4Mned/luZUOo+lZ23PK7xWlTenlZvdwgzAI8ATDsqMiNNyYuWRyAvcoomyJnv+FI7kdeCiGne+f5wCgAzCDzUPc0633YB0xfTzQOQ9NN9cKS/t6BH1alFfZ5jBBL2DuOmy3KCna+ThfGelv7IQdLzb6PMGIJ3reygOHkWD/lY1nyG37gGCbXH04BAE/yA6DfAn3AoU102BWQfWTLa0COM5554Bz8HUpHOhs9X32w3oAE5YAg7NbgKSXs3fpW6fY3CkDQdhju8Gz8hW2BU/gIGITGT6AMDOslwtyIkANg1r8NRWoE+FnmgWHOlWVACsmw4egufJQJlLLoH5IVzoJwbO+7Q+KVCJwq2BWzkpIwCjjhuFm3+h00rGUFQNP+N9rlD0X1Czpo+4XnQkoN8JzuEPgcpebB1lBesNgJ5k9SOYBtudF2uzGBQfpHadiPzApAUlu8ynSxwOhps87CNcNb2BcM+VzqrjLZgYvPrQm3tJzLkOexPicxEJgTm7vE7fbdAY7Elg4xBpf8PIQrYPdyJHl+YlthoWeiSwIE0yKXaNeoNNHPxs8Vp7kl8ioFZvRLsVLQ5JbuFrd6rX+DQbf8qKsOQfW+W1lh45qacNkSDdgsuM3KSg/KeUMvPzClhD/n56dM+VZYBdguxPyJgQMb+Bb8ss3l26svEX2YiYFwU0QNcwDeBHmQvID/2xfJCPom9nOPqeEqFZGOmWmovWUoAPfh7nbfD0bloxoaab/xc8RvMUT/HkpBA957Yz/6KKQFckwzYhQ8CgZ44IHwd3CoM9VvFsBeC4XlDCxpPwBnPk9htrgDlv0nQRhPRR/w/+Tonrc7rFDL7aD9E6Ah0gf103GygNiwrnWRWIC2PbfcDFydjQcOy4Gd36rADxCGI6xQ/T/SBjHIPDmAvroh+sfg7F+2uVQC+VsNq5hkPMcVh80KgMonEy7NAb5kCLcNfj0zEi5Uc1AELLq71l0MwzgulIc69pIXZGZtczhFm0GYnYk9/F/jZ3sD4k73e5qg0ELgPR8ZLHz7CKzL0F0+wIpAoJTsDmH/I9Txbry7bOFfBOHjw6L/8gFVEsTKhGsnN+SoUyilxA2njMOpj4sQftP+Lh50ozP+Y+Ry4OdwBeWgH27BWc2TcA7k0P+5fflR29wrrPYFLxgYq+L3bR7DgWAcYMEDZeDG7hnWV1LraBOcHvgKBlMe5LUsqQajLhg09pYnBMsxFBrHKC8YGqs3Bo59fhS0hDenW2+hvpcFzRcGHgri8+yKOgwOO282+qt7wQttTnAumWKx69YjbNqdAzBHqgN0VGFnOV4CQy0/gv5v19H80csBCydzSrWv2qYcVmE9+hfG7A+NAqC32YY9dr5wCKcH7oZPgeNxYcy/QUedhOXsTgxwS1B5/5bnVeIUZrSfDlv0ylbrz1CC7gyLx29+GGfesnKW9axfeBUu20Cz41y1wSrHDLX8isOpAEcOfRaCZdUen6AVgXUeYj2JgfgY/BZ67QGZsXgJZa94mYcH9HJhTlcHfq+wKhBy4fu/TZf5o5sDny6pNHLpanurbazGq2FBPUYB0N1sdYYfKwPL+QIZvtwGCsEWtJb+De5GD8b+8XR04JvBjqeTxBJY3e8QBT3p/B0L+ldAcvQWti1aK6WZtyzwo/9epfkD5cvSbaXuPvCLa6s5IvQqjVtZ8Hfwglt8lHGdk63boXBtB8V4SckBnAdmftSBW1UK3NK88pSLV4VAAP8UNn3mT+wcaL9/oP+r7VYqzBSq6c4+xWkMIuhFYwTInDCPNg4MGBE+hAL4f+EZO1vskknTjliG/Qxm4TtDSdgS3uLY0GUMuudmBUDNAcxQIxEuUHy6W7rEIRjol4H+Jh1kQ5Csxv+DV7Zbvs//u9HB2zfNc8T2sDtoc0uPKO5PsIM/OQpc8AEQepXGjY7+LD3vFh913LxDrZXAOaVtsTgB/ftyDM6fLAzQPBjLwbpU2GMQH6IwDAzuZeMHy9w26voafNFyANf27lRoz8F2K234qfYXjz6B3///Yuw1j+FAbXCgZY6YwYZoUVMLK/ft+bbEKPCO6xRHpK3gxnblyraX7TN0RM90q0iRKpevVHpLp7gJwuekUjAVpeEqYRwf3X9A+asIhZoJ7X4hGyKqcZGE19JI3sKKBFcAJO2LxQ5QeMdbWdoV+7CNUHxXY1VnDQZ5tknohUrwARTJjzgug8uqRvTT2o4p1lvtC8U5EAaX2kWpA7xXmAG90pR4q5+2n3tYNP3fps38iZQD6C8/xkRpZpGiyCUobVg27AILf9+jzQpApE1lkOnkACyrn474JJhNLq5EPQiBSBQAtofAOfk9scZ2P/5vGgU/YPq7Cj/wgyH8I52xYpvm5PGd4kUMLhdilp1fgg5JMBSVB2AY+rUoBSuE3gFRz1TA05U9VRD+zN65U6x/4MX/F/O33weK5bP9ciB3zgTd4mUcF+AV5qQ0HYBXJP2fizJPtBzA7/NAW/gzWo/ZfNl4Z38h6mFD1Uh+9NFW12AzHHDngGikv7inhIuFcJkUDkNxbjYKxEC9GwbdR4tTgn/h/Pt961L0WdhVRCr8JSXYo78YxnBHQyC+I+MqfmfpItw0eViUwp+dJmGb5osV0+SVUdA/vZKSGg9FlY0K82O2l0BX4+WgzxXyCgMeCtbBSa1zvdPV8ZxowDiym80Hblt+1Db2G+Z8Sh+AUvEiRxkFgLlgnprgABuwgdDoTxZk7RlQpDxgT4p85TKQfhU/2MCzK8ykn8fJgv1XtFuH8/G9SIlzIONbIfvX4rpeCHCUG+hsPOBzqN/NOAq5FXxEXOBAHfoz3ahB+IMqGH8GbpPQlQmJoOtg6wPw+nUbjTKYqwN7UdiPcAAebEFMDEmaya6JA2tXYXKSgrMw9eG258dP+3rAoM15BcooAMwE89QOB7BnGvkpAnbCw0aJOriAkxB3QRHYHjP5A3ES4upSN9BBmL4Bzfwy/N8HM+mdsJ3wqA6a3HCu6rDWsABfvY62gt/xk0HLA25wStyfoKD8MIu9bN5KwI2SoQwTFbxFQXhqjHR1RiLH/nrk/Uji1vx+0sbvMbAXCQWfSgJ+UxvPXCJ21Uy3QV8JB3hywm3Nj9qeftq/NMwzjNLYADAXzFMzHIAQfRrey6ZGTTAEzZeBs6Kz9X5owUz+YcDx/++2XC7G4Be9ca4vbyOA42jvQPC+815HMM9+fsoNCsM0YJnlZuTj/7T5fLFZ43raFNsEY/B/DYT+W7qEvSutWfqKjmkK+M9tUXMPtkOehcD+si0MmPrSg7y/EwZAk83Z/b9WlaKaa0e/BOOo3jHo/0Nn/GFXAfrpEabBKAB+W8LAJYUDT+kgBLPuk4H3Yh24nTj56mXE8f9XnGlJ+x7YftC6BeFV5/HzxOcg4CLx06CWgdWY13CU8iU1rlbCoP2vtjiQgj+sIOCKAxcUC77a+aJa4UM90MmrMnD61VJQ8uQKgPp2hpkxsm94hbGNJE995DWLeuCmqeOw4EB/Ay23950jrg2s4LflW+4iRmvQheFAjk4Ik90rL5b/l3mlJT1eZLByIQd4fvMjv8OFt21bKD5v4zN/EsEBrMrwpKR46V8V+JzmbHsveDVeDK5+GQWAGWOemuHAqnMttlb/kw6CYRhznA68BmcFHOgQKSx/nlhBzrJZ0M5LywIlFMA2BCR6omjgl0KBaeYwP07B4CMeitHxdl7zp/oc4P5PUIClkuds4zDx6UGnbEYBqH5TGwoCcgC/jHsDZvEFDsFgBkBfnNIP1LwBjJ80eYRcnxocAPXXREsJdxcJei5CFRAVCH/ObwscLeQapEE5cN5e6P+qx0hGoLax3zDnc/SHXP9g/zcKADPIPDXFAbhwLWehXll9IHCa54mTKstsckXJAXinOztKfBIXto9eea3Vds0ro2ruDSPA+zxnhlwbp3DgOIcQsGGc8USbtC0Rp3C0earLgX6Lpnm2cZDZv7PdcQHQgGtqu4JGAahuO5vSK+AA34SHzU8tx85wFr7ii3YqqIrJ4sKBcbPFZ3Di4EsuSaGjsK0QyPte6AI1IOiaaj0H4dDjKiDchINTCLCCwI9bvIjo9kYN9a4XlK2LxE6o66FDFDm3ti3VlsywoelLVD4aBUDlhgnXDAfQce/TQSyMAXdkf/46cBuc/jiQztAsf5AVQKXolgpyJS4LluvvdxncB+lUhXuwFYHtYQz41UFEJhQ3B6CkthfKdLadmxKgtrUzzIiUOKwe/aqAGwGjAKjcMOGa4QA68q26iMWRqPN04TZ4S3Ngy07RjGX6Y0pDVZbKy/9wffzHynInKxdWwPL9Xxnc1YG+SDlg0lVB4pVnMF6fApYsNiaOmllLxXi0Vd4YmduDH7XtOMzPYFsNTZf5bED8kflz1N11iPV7Gc1vowCo3DDhmuEA3Ncu4wFdB8H4UeyOVYD9dOA2OEtzoMGiWViF0TIuwcr9+tKl106qPZCzO2M5uDPpalgKATWOw044GVcsUD47fYnY34Y1f2LlQLbPx61/zjZU204NO9s+Rdc5K6Plh+YsxHwbDujgAGbqN+jAyziBO3/tqq4CDN4hHNhqjpgApe7UIQkRRABvLp2iX0aAKjkoLNRHHfDVsHPw5zR+5FtNV/MNhNNZ0//jbuj2+8UEKHGn2eW6KWYu7eQJywkOeJxyGtL/jQJgc9D8qUUOwFDsOh7YddCOH8buzXPF6TpwG5zuHMB1tzdg9p9xTw0ZC+c/3TOsN0JiSVT29Y3KioZjsLcJVYW8FCiyBiq8E47TUrRb2yLxHQlu3vo5gGuZbyyUwm3Aj1vbOOPdYNX2RRhbpsvmTLXyF0nZiPN/jAKgMMMEa4sDPKBDCSiyao2yBhBGXWMvExtHidPgcucAH78Ev7/gnho+FkZzQ2Y/4bFWF8Olk6x3cJXvXTYVfgWFVATk2014DOLqnLbI9P84Wtk+fmnR3rbA5wIH26B8WG1LGXbk91otNQpAHK1rytDGAWi2Ovd1x2TW0WXaiDeIbQ7w5UipLM3Xxo4cvWX10p3a8FcTsRiYNTpmfAVBosarQqG04M8LHYs2aiSzFaC7eVsfFBthvj+vsD3jp23KwajtLujtfhpQFB2VMQqAgyHms7Y40NNq3YG1Mj0+AZgVKTp5fKc4rLa4UlvUinV0Lfi8mS6q0T8u6+6ACjAMn64pFnvF7PE1Y1SFgqoMeIXz8Ke0LhaHD0PWJadKvDfPXv/k49UepeI5r7N9ZRyUuEumWB9L9OrbKAAqN0y4JjmATqxv9giOYPnslnFdYsuaZE7CiWY7C/D3KI1kvt+/jn6iEX/1UQuaaxNRTkCo6aqw8AoPwONc+q9mPCDGVr+iw4+C9kXi2+DvkUXC26s9SsUza5ztm2fXR/Aq+FMvzhkFwIszJr52OLCWfo5ZHl8SpOsZkxb0O8IFHboKqEe8LXPEDmDolTrrnrPo8lUd1hqdZVQbd9M4+zTA6yWFCBOpChBVWHiFJTy2AtJp+q3p/9G2dPtisQO2MBfYWL3aoNJ4zmc3OV3mNfvndDOgMRfMU9Mc4OVdrXvIzB2L9mgZRbNrmlEJIr6lQzRBON+LEahJF1k4IbK6oYmu0IU/KXg7drL6MIu8pIgeN8ExIBRsRYCB3WBkvHyzEoBHCNq9da+BlQaOME8oDnQsE00Q/veiDZp8tcdAO5RsMyeMoNWULq1gGwUgVDOazInhQJ+tSb+vk55clmbAHuB4nWXUBW5eSWmiu2H1v63O+qbS9NOXzrI+1FlGUnA3NtFVoOVdmx6nIODIUsJehWdY+c1vqTTgjZMU57YtFicwiHlCcAD9v7eX7gaft7ax+G0b2S6yTdT2UcMDpEHBuGrg+mhPYo0C4Mkak1BLHOBVgKzQawsAgZXCfvWvx88Rh9YSb5JG6/iR8Ehm0WSddGH2v6YvVT8W7B2TbCPHS23hXYlAkcJFFSQqnsH4W2C1PkVn2w133G174eRSCv1f5W/Q8GB7FG/tyHYk6usj6irHS6MAlOOQSa8ZDkCr5v007c5e4FL2dqwEaDuzXjMMr4DQ5jliLmaS36wga9AsF60619JpFxKUHu3wA8Zeb9oFsUDhp5SgcINRBZGaV4m3snRX+0Kxt43f/AnEAdz01wXBf0phlUXha0mFgEtxtoczTqbzm6jj8qnWewxS6jEKQCnumLSa4sDbHdZq/Eim6SYaKwGjsBJwP4TZjrrLGk74wa+zsCzfprtOmP2/0rOufmb/kp+2sZeg7xWEixQIDOA3zLBSMVCFk5qfqAFK8MKBa2s5h3l8cGDGYnEWxo0ZvttCtkNeoBdv47jFDcL3NDX66/9GAfDRcAakdjjQ3WbdisFpeQwUj8GP+ZGWeWLXGMqq+SJg8T8DguXyOCqCQe1b1GHB90n9PZ2HWL+DgHmoIiEzKEBsw78iHGoah3EyAEYBj85cYvq/n14Gt8qt8MWf7//Mv9ICfND2QlW81LAXDsBk03QKtoR89X+jAPhpPQNTUxzAEuU3sQim3fEL3BBvCsPAx1rmiok1xaCYiYXNxFWwRu5iGwrdRUNy3dHdbi3XXU6S8cPx+7dAX1+RkGGCVQHiJ6wKGYbnR4nDyYAxWG15zNwcaHPG8w/c/F4NvnWqvPMM+2kXl7aw8YECdg09f7L1iCcxjgTtP0hHeebTcEA7ByAAurMW/Vh7QSgAQm00XotbOsWxcZRXU2V0iAxm/v9tpenMOOhmw791KSyB1/kz71BrJY4FzioSMn4FCwt4fpxCRo2XYX5bNBo3By5pWyjyd9jXOe/V6uOoXwanJm6D6nS6He+nDSRv/cA6YQT1jhTBfmtGAVBbzISHDQdebbPmQCA8H0uFUtSAgfC/WrrEWbGUVwOFfLJDjB4/ih7EzP+YGMm96M3p1lsxlpfYouYeYl2GY2BPy5lhkTLgV8g4lQCuLeeV8fLN/T9Fv8Ey9/cTy5CYCTt3sdigtw9bMURHe7aB5J8bT9U4P+F8/To6pgTr/0YBiLljmOJi5IDAjy+GrQClRldiO+DGLTvEKCWu7oJjZ4tdNmiipzALnRhX5UWW/gLDP60uoeOqS1Tl5DJwsZxzbAVIocNvFiz8eIWdgscJq+bnNIt+AiXgBhZ+/FmvD9tFZHL0V/B1X5sHYXgu8zrbwhkv6G9+Df/UdjEKgMoNEx5WHOiZafEKgPZTAUVMw+VBI0bSs+Pnic8VxdfJB1ZBfpBJ0RMQBhNirPL7uTQdAcO//D51jAUnuaj5B1ovYwXmDFdBX06gcMWcigHHqflUITQIf0oGKw/1ahyI45HnYOXxcahWEwq8koqSyjuvsJPnMm+peKKPYJB5uF/DP24q+eBIrnkMB4Y3B8Z1it+mLVy4EeeTn3md390HF611IJg2ny82G5mlX2HQmxwnm7msbI6mvNpuLYm73Fopz96HFvQ1V0VAFSxcIee3M86ZLr/lWzKF+79FP+r8E1Zl6qD/dywWm/Xm7P5/0BDBL3kj3+V4WirdBQcM/6bC499iyfogb7MCEIRbBrYmOQAHQSdjargyVuJ5XxSW7+Mb6IlhvRoAt6a4KfG7jevpf6si/OED3wj/0j27qYFOgmDvsaFcBEghngPqzJRhnXHOdDlDdcbn7WI62/akPw/r1QD0f7Z9WEfo/6p3P8kXld8qj9zSJb/VPGXCOIlxRaXCP9+0dgubP4YDw5sDY7vEHqkc/QFW+1ihjPfBkmAOS3S3rE3T9OFkpMbeEGFodi3qVhWHSLzvv6KP9qyHGWbYHstCGEdWn4CQaiia5ZcRMHa5XjCcKNPkWxI69PvGJotagxqpSXRJfLM3RPgcuRa0fbqgOHkJdin8/aZzhVUeqmGZhn3/zidojzD932wBMDPNUxccGD9XnIqz+9dXq7J8TA0DxlXpXprd3WFpvbhIZx3Z+RFmHuzSd6rOckrhhjB7Dw5P/uO1VivelZ1SRCU8beAin1tsMlWBUmlYzcdI5bd8q3H5cC8UxgXso96Pm1rOksTHVqaEfTPooUPo86q7BPSb7gUn4wV9gPHkM3zkU6Ku5G0UgEq4ZvLULAcgvOZioNLujrYkgwR9iIFw/ppeusJ2X1wSODmJW88RE/rTGPhydGQcTn28am4rUina/9VW6y9eMCbenQO4g/7H6Hvn2alSmPCHV9hvmprfRl4CJ4QXFOFLskSXl7qrXqJJyrv9fjFBZOhi8GqoPYVafzXMxMtv+Vbj1LCazvH8qHEyzNf8CjoAXh+fzANV/tcoAJXzzuSsUQ6wc5qYz6e7ckrk6B2sSMzOjKRfJvnaWvBrh1yKZmGp/0TXisQcCVoO7plu8Rlr81TAATjtuQVL1sfZy9acXwqWSsJq+RKPfJfChzQIn/egTM7GccXry11bqxYTdxhK0w74rZ6H7ZPBq5D91DEojMovNa8aj3BG0MEXT42m/xsFIO7eZMqrOgd2+4UY8fZ7tByz2GTc6AdfBfBc+AAE7K83HUP3PnWGtb7aTLKt+nN0PPbZT4Anv92rTQ+Xz7YUUJiOXtFq3ZkEemqVho7nREPvq7Qc9O8ZWgmQgkq+JVPUb7ewGocTAyJN98GF9y1NzXR/x04Wdgmq+7BV/7ocnYjVkuMh+HcrKEkq3VGHVXxcffmtvgUdZd/3EBF7jAIQESMNmtriQEuHGJNrpKegBGydKMpz9CEGnFthfv1gbgQ9vPKc8ld6RkU/326IgXgijgYdiYHhwKjwRoUHCsAZPe3WNVHhq2c80xaJjRvFwHl1yQgpaPg7aFjN4yevN/wHKJtX6B6CAF4ap60A326Ifr8vhP5RuOjLvf/Lusm3Wo+wYTW/il/GE32vc6r1c/6M6jEKQFScNHhqjgNbdormBtxoBsLHJ5V4XOzyPNzbPIJB6WEcX3j2lZnWC1HQyq56G0fSjhgAdocv9/2hcByEq3o3jgK3DhwwOjx/RZt1sQ7c9Ypz5iKxBfrXH7EK0BzZSoBkpirA3MJqnFuewbjn4FFyORTTR7Au9szcw6Lp/+ytEN76dkS9eRVkP1Z48RvL939Jm9d7kLby3hQlDs5TLqymO8oAbed3TYm+/xsFQDLavOuSA7zU3dhPy7ASUJWjbJUwHYPBy8j3IgaU5yG434WTo9XYS/0Qg/lqbCOsRlovlso3hNAchbgNYXA1Gt+jMZC2IM92eE/AKsNmlZRdjTxG+Ovjuu3ARtDDKCF/lI2LUgWRn7AkT8LKdylcapoKXypelkP0Evr7K+jXz2Om/g7o/QD9mfv9x4jj30Evrt7dEIrzaKSPRvoncvwbIPp3wGyP/9tC6H9yEN1AyEkHRzvjSn2raUHDkhiZT77z8ed1TrFmS5Ao30YBiJKbBldNcmDsZWLjzDpahkFkl5qswDAlGkv+/RjAT8bM/zfDtIqJqFbrg2Ij3B6/FELxs/iPHSA8qgDyCqtwKowa7xX2gveKZzxhH4nb6834nWnl4tT0SsJqHlm2jOO3RSdB+P+agzoeowDo4KrBWXMc2HaB2HD9alqaFIO3mmNgxATzUT+4bDrCWPtHzFgPdPaSuMDtjRbtXRCCDOsUSkEUBK+8kgaZLt+l4iVM2LezDL/fbnCSFk6rNKzmU/FgFQNtcRiEP6/OaHvy2p429Aax4UBtcICP4a3vw164wEzIPFXlALY13oEitq8R/vE1A5/H77foYJT4gL0KwIKJH+nBLoow45B4VcGnluGMl3mk4qG+3WAlLhXOSbuaj8N+0t3gZFnO/KXiGVYtX4WV8YLexpbk3rqFf55s/msewwHDgQIHmjvFAuyl/2chwgRi4wBm/i9hVnJwd7vVHVuhpqAiDsAa/kfYernQjpRCiT90hyUVshz5VsuWcfLtluYWp8Kr6c4wf/OjwsuwfHul+4n3wsF5+clRd7qBJs4+0FqRj9D712wB6OWvwV6jHGiZK07B1OBaaOIwvjdPHByAceOiNWvp6FryjhgHX6pRxnmLxEH9RHdgBWAjV2HIRHkJs0rj/eRzluv89sKhwnnByHj5VvNwmB+vNK94Zx7nt8yXfy8Cz4+J0zuiUQC4QcxjOODCAVwjvB8siX+X5ONxLmTXXBRm/TlYb5//aps1p+aIH8YEz1oqxmfX0/1QAnayqymFFX/oDAfBHQRWbaug+SqF95/vR7os/dVqO8NGAXByxHwbDigcaL5cbA1znHtr6ZigQn7ig+wOGf7VjzP7/clsKjYOTBNdiaOj37TtAZhM/0LN/4kCFadkhRrnFQ5KjxeeqOKd9Di/neUQfYQlxqOicu0rWef3bRQAv5wycHXLAXYd/O678AVu4RIhvk7VPJFwAAaXf8XM/3Bc6rMqEoQGiTYOtC4Wh0MJ4Js0N4lFEXAKSmnUFyaeuSPzy7capyNcohz0/WfTgg6dM9V6nYuuxmMUgGpw3ZRZkxywXeVadH06RXvVZAUSRDRm/rNXtFvnJYgkQ0oZDrDToLUWXQ1F4MiCIOU8JYRcxcqCDrwqnbKuapyOsEc9IHgvnjvFOl+SUa23UQCqxXlTbm1yoEOkmhvo+xjYZmNbYHRtVqKKVAt6FDP/b8Kn/ytVpMIUHYIDbUvEKbBWvwK/gfgMBJneMAJa1lfikG9nfNhyVLzu4UcgdL8D4f8PWXQ130YBqCb3Tdk1ywH7HoEczU/CtcI1wcQcvQWBcXZ3m3VrTdBriCzJAdtAsI9mY0vshFCC2V1IhhP2Kk6uhfyWb1kz+S3fKmzUYbjsRv+fptOrn6xWkLdRAIJwy8AaDjg4MLZL7IHLdH5mPAg6GDPwye58MfD9dG0vnW+O97nzqJZj2xaKz4P+q9HG7m6EuXJxCNhKbQQk81UaI6YZx1sX4Lrv8+I83ierVe5tFIByHDLphgPlOIBtgZYmOgYDXRdmRM3lwOshnV35Yq/4pvUp6lzVZvXUQ53ruY5QBI5D/eeg/7fYfJACVb45MqnhqOlifER9qO/N2QaaN/9Aiy/vSuRjFIBENoshqhY50NIhmnBG4CzcPDYN9gGfqsU6REDz+5SlBf1NdOXKc6z3IsBnUNQIBzqWiabedXQ2yOX/m2NVYOgxQK5L1AI3LE6/+f3A4WZCeFH8Sa+gyy+fmvz+bxQAblTzGA5EyQGsCIxrosPhTvg7sHafDGUgPxBGWUbycK0ASZfRWrqmu8PqTR55hqI4OYAVga+ivO9ACTjIVgSk0JdvJqbWwl70cl3gwhf1vLSpka7rmFQ7/d8oANx45jEc0MSB5rlia5z3PRMeBU8dbh4Fscy/GoPeXULQr15dRw9RB2ppHsMBhQPTl4ptUuvpdAiaMxD9CVsZ4HQvYVqNeD9lyjoVw65GPe7OWHRjppGWQ/DDk29tPUYBqK32MtTWKAfYmdA779PhOAJ3Ajv/wJpAUy1Whd32YhBfBvpv7l9Dd6zqsNbUYj0MzfFyoOM50dDbQ4eJNJ1oZelL6D8NWpQArlaxkOb+OnQrQoWRrFDj3MIcZ6OnZVaKbukXdHsSDftkdfy8jQLgh0sGxnAgQg5su0BsuP5jGA2m6QQYyk2MELU+VDi/j+HvflyNdHP3DOsNfQUZzMOdA60Pio1SWToG0vTr2C8/sFBfN6ErE73S/MQzjnJw5dKJHgGOhdAkbq6m5z7JjqjeRgGIipMGj+FABRwY1yW2TOVoKmYUe0LA7oe5yg4VoIk+S456YMx4d9qih9atpYfMTD96FhuMRDMXiS1wTO5L2EbaHfyYiNn6toUZOzOovGAuD+MHh1oWwxO9CeX8zlyKFmeJHq71mT5Xz+0xCoAbV0yc4UCVOICTBGNwlmAfDHx7Y4VgHwxCrBDoPlGwAoPwSxgMXobR4v9gaXPJazOtF6rEAlNsHXNg2iKxcYNF+2CmvQf65L74HUwAO8KdKGB+llICBPXATudl/NZehvLxP1iVeCgpnvp0dwWjAOjmsMFvOBCSA1t2iFEjRtEOMLGbgBnJBMxPtsMA2QxhPQoD1yigb8JJg1EY5EZhANuQi8tl6T2E38Og9j5WF95DnvcxoLI3svfwo1+JWc0r+H5lZbv1UkjyTHbDAa0c4BsJoRRshz79afT37dCnJ2ClbCz69Gj05yb0+w3wbgQR3P/z7olxyx7i30TcR/j/LuA/APz/If/76P//gi3Cv1J99K+5h9W3ovv/suZb7IzTWt8AAAAASUVORK5CYII=;" parent="1" vertex="1">
                    <mxGeometry x="170" y="375.54" width="38.93" height="38.93" as="geometry"/>
                </mxCell>
                <mxCell id="4" value="&lt;font color=&quot;#2189ff&quot;&gt;&lt;b&gt;Github Actions&lt;/b&gt;:&lt;br&gt;Triggered Daily&lt;br&gt;&lt;/font&gt;" style="text;html=1;strokeColor=none;fillColor=none;align=left;verticalAlign=middle;whiteSpace=wrap;rounded=0;fontSize=14;" parent="1" vertex="1">
                    <mxGeometry x="170" y="420" width="110" height="30" as="geometry"/>
                </mxCell>
                <mxCell id="13" value="" style="edgeStyle=none;html=1;fontSize=14;fontColor=#000000;strokeColor=#1D3557;" parent="1" target="11" edge="1">
                    <mxGeometry relative="1" as="geometry">
                        <mxPoint x="550" y="395" as="sourcePoint"/>
                    </mxGeometry>
                </mxCell>
                <mxCell id="6" value="&lt;font color=&quot;#000000&quot; style=&quot;font-size: 14px;&quot;&gt;NHL - API&lt;/font&gt;" style="text;html=1;strokeColor=none;fillColor=none;align=center;verticalAlign=middle;whiteSpace=wrap;rounded=0;fontSize=14;" parent="1" vertex="1">
                    <mxGeometry x="537.91" y="345.54" width="90" height="30" as="geometry"/>
                </mxCell>
                <mxCell id="9" value="" style="shape=image;verticalLabelPosition=bottom;labelBackgroundColor=default;verticalAlign=top;aspect=fixed;imageAspect=0;image=data:image/png,iVBORw0KGgoAAAANSUhEUgAAA+gAAAGaCAYAAACc1mkHAAAAAXNSR0IArs4c6QAAAERlWElmTU0AKgAAAAgAAYdpAAQAAAABAAAAGgAAAAAAA6ABAAMAAAABAAEAAKACAAQAAAABAAAD6KADAAQAAAABAAABmgAAAADW8Z0DAABAAElEQVR4Ae3dCbx153wv8LzNQIwhghhfIoIgMRShrTSK1lBBW63SptFW2+sqbfVq1aWTW61W0Vtaek01D1cuFVUlIjEPNSRoiCBCRCJBJESS+/vLeeu85+wz7HP28Dxrf5/P53/2OWuv4f98n7X32f+91l57x+WXX76HRoAAAQIECBAgQIAAAQIECMxX4Ifmu3lbJ0CAAAECBAgQIECAAAECBEpAgW4/IECAAAECBAgQIECAAAECDQgo0BsYBCkQIECAAAECBAgQIECAAAEFun2AAAECBAgQIECAAAECBAg0IKBAb2AQpECAAAECBAgQIECAAAECBBTo9gECBAgQIECAAAECBAgQINCAgAK9gUGQAgECBAgQIECAAAECBAgQUKDbBwgQIECAAAECBAgQIECAQAMCCvQGBkEKBAgQIECAAAECBAgQIEBAgW4fIECAAAECBAgQIECAAAECDQgo0BsYBCkQIECAAAECBAgQIECAAAEFun2AAAECBAgQIECAAAECBAg0IKBAb2AQpECAAAECBAgQIECAAAECBBTo9gECBAgQIECAAAECBAgQINCAgAK9gUGQAgECBAgQIECAAAECBAgQUKDbBwgQIECAAAECBAgQIECAQAMCCvQGBkEKBAgQIECAAAECBAgQIEBAgW4fIECAAAECBAgQIECAAAECDQgo0BsYBCkQIECAAAECBAgQIECAAAEFun2AAAECBAgQIECAAAECBAg0IKBAb2AQpECAAAECBAgQIECAAAECBBTo9gECBAgQIECAAAECBAgQINCAgAK9gUGQAgECBAgQIECAAAECBAgQUKDbBwgQIECAAAECBAgQIECAQAMCCvQGBkEKBAgQIECAAAECBAgQIEBAgW4fIECAAAECBAgQIECAAAECDQgo0BsYBCkQIECAAAECBAgQIECAAAEFun2AAAECBAgQIECAAAECBAg0IKBAb2AQpECAAAECBAgQIECAAAECBBTo9gECBAgQIECAAAECBAgQINCAgAK9gUGQAgECBAgQIECAAAECBAgQUKDbBwgQIECAAAECBAgQIECAQAMCCvQGBkEKBAgQIECAAAECBAgQIEBAgW4fIECAAAECBAgQIECAAAECDQgo0BsYBCkQIECAAAECBAgQIECAAAEFun2AAAECBAgQIECAAAECBAg0IKBAb2AQpECAAAECBAgQIECAAAECBBTo9gECBAgQIECAAAECBAgQINCAgAK9gUGQAgECBAgQIECAAAECBAgQUKDbBwgQIECAAAECBAgQIECAQAMCCvQGBkEKBAgQIECAAAECBAgQIEBAgW4fIECAAAECBAgQIECAAAECDQgo0BsYBCkQIECAAAECBAgQIECAAAEFun2AAAECBAgQIECAAAECBAg0IKBAb2AQpECAAAECBAgQIECAAAECBBTo9gECBAgQIECAAAECBAgQINCAgAK9gUGQAgECBAgQIECAAAECBAgQUKDbBwgQIECAAAECBAgQIECAQAMCCvQGBkEKBAgQIECAAAECBAgQIEBAgW4fIECAAAECBAgQIECAAAECDQgo0BsYBCkQIECAAAECBAgQIECAAAEFun2AAAECBAgQIECAAAECBAg0IKBAb2AQpECAAAECBAgQIECAAAECBBTo9gECBAgQIECAAAECBAgQINCAgAK9gUGQAgECBAgQIECAAAECBAgQUKDbBwgQIECAAAECBAgQIECAQAMCCvQGBkEKBAgQIECAAAECBAgQIEBAgW4fIECAAAECBAgQIECAAAECDQgo0BsYBCkQIECAAAECBAgQIECAAAEFun2AAAECBAgQIECAAAECBAg0IKBAb2AQpECAAAECBAgQIECAAAECBBTo9gECBAgQIECAAAECBAgQINCAgAK9gUGQAgECBAgQIECAAAECBAgQUKDbBwgQIECAAAECBAgQIECAQAMCCvQGBkEKBAgQIECAAAECBAgQIEBAgW4fIECAAAECBAgQIECAAAECDQgo0BsYBCkQIECAAAECBAgQIECAAAEFun2AAAECBAgQIECAAAECBAg0IKBAb2AQpECAAAECBAgQIECAAAECBBTo9gECBAgQIECAAAECBAgQINCAgAK9gUGQAgECBAgQIECAAAECBAgQUKDbBwgQIECAAAECBAgQIECAQAMCCvQGBkEKBAgQIECAAAECBAgQIEBAgW4fIECAAAECBAgQIECAAAECDQgo0BsYBCkQIECAAAECBAgQIECAAAEFun2AAAECBAgQIECAAAECBAg0IKBAb2AQpECAAAECBAgQIECAAAECBBTo9gECBAgQIECAAAECBAgQINCAgAK9gUGQAgECBAgQIECAAAECBAgQUKDbBwgQIECAAAECBAgQIECAQAMCCvQGBkEKBAgQIECAAAECBAgQIEBAgW4fIECAAAECBAgQIECAAAECDQgo0BsYBCkQIECAAAECBAgQIECAAAEFun2AAAECBAgQIECAAAECBAg0IKBAb2AQpECAAAECBAgQIECAAAECBPZCsLvAjh07dp/gr7EEDthv/72zwPUTN1qKG+T2gMT+iWsviyvn96smrpG4UuIqifXaJbnz28tm+FZ+vzhRt99c+v3Cpd+/kdvzEucmvrb0+66/zzzn/HMvyjSNQPcCl19+efd90AECBAgQIECAAIEfCOzwAu8HGPWbAn13j7X+SiF+09x3+8QtEwcvxS1ye+NE6+9ynJ8cv5z44rLbz+b30xN1e1aKeJVPILS2BTx/tz0+siNAgAABAgQIjCugQF8hpkBfAZI/U4zfLDdHJO6aOGwp9svtUFsdma9C/ZOJUxIfX7r9TAr37+V3jUATAgr0JoZBEgQIECBAgACBiQko0FdQKtC/X5DfKiz3TfxI4h6JAxPaFafUfzQQH0q8b+n2kynaL4NDYB4CCvR5qNsmAQIECBAgQGB6Agr0FbaLWKDnCPnVwvCTiSrKK+o0dW1zAl/PbCclTky8M/HhFOyX5lYjMHUBBfrUiW2AAAECBAgQIDBTAQX6Cu5FKdBTlF8zXb9f4meWbuuibdr2BepidP+WeEvizSnWv7r9VVoDgdECCvTRLqYSIECAAAECBHoVUKCvGLkhF+gpyutr9e6dODZxdGKfhDY9gTr1/d2J1yRel2L9S9PblDUvooACfRFHXZ8JECBAgACBIQso0FeM7hAL9BTmdcr6ryWOSTh9PQhzaHVV+LclXpp4TYr1uhCdRmBbAgr0bfFZmAABAgQIECDQnIACfcWQDKlAT2F+53Tv8YmHJfZc0VV/zk+gToN/YeLZKdS/ML80bJkAgV0Ceb78ifz+oMTVd01r+Pac5PbKPH/UBSsXvmXsdgbhmETdtt6+kwTreiWvyvi5XknroyW/sQTyWNw7C/xi4u6JHs7SPDN5viSPxf/MrTZHAQccdsdXoO/uMYjvQc8TZF3w7YmJe67onj/bEqgXZy9L/Gn+OXymrdRkQ2BxBPKc+Wfp7ZM663F9hObYPHe8uLO8J5puxq4KgX9N1MVOe2pvSrIPyvj5FpCeRk2uawosFed1/Z2j1pypzTvqjMafzmOxrh+kzUlAgb47vAJ9d4+uC/Q8OR6Z7vxpor4eTetHoAr15ySekn8Q3+gnbZkS6F8gz5u3SS9O6bQn30reB+Z5o24XsmX8PpaO367Tzj88Y/eKTnOXNoHdBPJYfHQmPG+3if388bmkelAej/VxRG0OAgr03dHromFa5wJ5UrxT4q3pxjsSivP+xrM+fvC4xCcyjjfvL30ZE+haoOfnzDpqfFjX+ttIPs+X9XGEXovz6vmPbqP7FiXQmsCPtZbQGPncLPPeYIz5zUpgqgIK9KnyTnfleXFy7US9W/mBxL2nuzVrn4HAjbONZ89gOzZBgMAPBK7yg1+7/K0+87morfdrq/S+7y3qfqffowWuOnpyN1MX+bm0m0FalET3WpSODqmfKcrrjZVfTzwtca0h9U1fhnMGRPbTOnX4jomDE7dM1NGuOuJ3pcQ3E3Va7hcTn06cmnhfTi+7KLcaAQIECBAgQIAAgYUUUKB3NuwpeqrYeWHiHp2lLt3NCXx+c7O1N1f2zXr3uS5Q+POJeyWulxinfSfreG8WOC7xihTrXxlnYfMSIECAAAECBAgQ6F1Agd7JCKZw2ZFUfyvxlwmnxXUybltI811bWGaui2TfvE4S+N3Erybq9622OrJ+z6X4q6z3+Pz+5ynUq2jXCBAgQIAAAQIECAxewGfQOxjiFCoHJs36+oe/SyjOOxizbaR40jaWnemi2S+vlqg3jM5IPDGxneI8i+/W6rOlD0i8J9s4IXH4bvf6gwABAgQIECBAgMAABRTojQ9qCpO6KuZHEnXKsDZ8gRN76GL2y4ckz08mnpCY9oVh6qj6B7PNZyWmva1sSiNAgAABAgQIECAwHwEF+nzcN9xqCpEdid/JjG9PjPtZ3g3Xb4YmBT6X07nPajKzpaSyT145Ud8c8LrEjWaYax1Rf2zi/dn+oTPcrk0RIECAAAECBAgQmJmAAn1m1JvfUAqQOo39lYm/TlRhoi2GwLta7mb2ywOS38mJR88xz9tk21WkP3iOOdg0AQIECBAgQIAAgakIKNCnwrr1labwqKPl70j83NbXYslOBZot0LNf3jym70nU16bNu9UbWK9NTnVROo0AAQIECBAgQIDAYAQU6A0NZQqOWySddyfu0lBaUpmdQJMXiMt+ecMQ1JtGB82OYsMt1XPX85PbMRvOaQYCBAgQIECAAAECnQgo0BsZqBQat0sqdfpwHanUFk/gnHz+/FOtdTv75TWT01sSN2ktt6V8XpAc799obtIiQIAAAQIECBAgMJaAAn0srunMnALjrllzHaG87nS2YK0dCDR3env2yx1xe1Hitg377ZncXp5cWzq63zCX1AgQIECAAAECBFoWUKDPeXRSWNw5Kbw1sf+cU7H5+Qo0V6CHo66afvR8WTa19WtkrlfnsbT3puY2EwECBAgQIECAAIFGBRTocxyYFBR1WvvxiSowtMUWaOrz59k3d2Y4/ldHQ1IXr6vvZNcIECBAgAABAgQIdCugQJ/T0KUAulk2/a+J68wpBZttR+DCpPKRdtL5fibPzs99G8tpo3T+KI+rm240k/sJECBAgAABAgQItCqgQJ/DyKSIqKK8ivMD57B5m2xP4ORcIO7SVtLK/vljyeWBreQzRh71hsIfjzG/WQkQIECAAAECBAg0JaBAn/FwpPjZJ5t8Q+LgGW/a5toVaO3z53/YLtWGmT0ij7GdG85lBgIECBAgQIAAAQINCijQZz8oL8gm7zH7zdpiwwLNfP48xe3t43Tfhq02Sq2u6v74jWZyPwECBAgQIECAAIEWBRToMxyVFD+Py+YeOcNN2lT7Apckxfc3lOYvNZTLVlN5eB5rrui+VT3LESBAgAABAgQIzE1AgT4j+hQM9bnev5rR5mymH4EP5fPn324h3eyj9Xzwiy3kss0c6hoPPZ8FsM3uW5wAAQIECBAgQKBXAQX6DEYuhU8VDK9I7DWDzdlEXwInNpRufVXZ9RvKZzup3G87C1uWAAECBAgQIECAwDwEFOhTVk9xviObeEniBlPelNX3KdDSBeKO7JNwZNZHjZxqIgECBAgQIECAAIGGBRTo0x+c38wmfmr6m7GFDgUuT87vbijvIV288JC8OXbthmylQoAAAQIECBAgQGBDAadcb0i09RlSIBySpZ+x9TVYcuACp+Tz5+c11MdbN5TLJFK5TVbSzBXyd3Uozwt1PYo6Bb+HjxNcljzPSrw5+2pLbyYlJY0AAQIECBAgMDwBBfqUxjQvwuvshH9K7DulTVht/wLNnN6e/bWeCw7qn3S3HtwyfzVVoMf5TsnpHYnezl76g+R+eIr0j+8m7A8CBAgQIECAAIGJCvT2InGinZ/yyn4r6x/SKcNT5lrI1Z/YUK/3Ty5De8PuwIZ8d6VyRH7p8Xm3cvZ8tmsU3RIgQIAAAQIEpiTQ4wvFKVFMbrU50lQXhHva5NZoTQMVaOno7tUGaNxin3p+E+TKA9xHdIkAAQIECBAg0JSAAn06w/E3We3Vp7Nqax2IwBk5XfjMhvoyxP3Vx0sa2sGkQoAAAQIECBAgsLGAAn1jo7HmyNHzI7PAw8ZayMyLKNDM58+X8C8e4CB8b4B90iUCBAgQIECAAIEBCyjQJzi4Kc7L85kTXKVVDVegpdPbS/lbA6QeYp8GOEy6RIAAAQIECBAgsEtAgb5LYjK3x2Q1h09mVdYycIETG+vfuY3lM4l0zpnESqyDAAECBAgQIECAwKwEFOgTks7R832yqqdOaHVWM2yBr6V7n26pi/k8/EXJ50st5TSBXD47gXVYBQECBAgQIECAAIGZCfR8ReGZIW1yQ8dmvhtvcl6zjSdQnyW+cGmRS5b9vnItddXu2qfrgmctv/l0Ugriy1cm38Df/5kcbthAHpNKoak3QSbVKeshQIAAAQIECBAYroACfQJju3T0/A8nsKpFW8V30+HTElUYnpH4YuLMxHlLUaddn5didkufJc647Jflr5q45rK4Tn6/fqJub5S4SeKmiSpM90zMorV2gbhdff5gfvnxXX90fltnKZzReR+kT4AAAQIECBAgsGACCvTJDPivZzWOnq9vWUe+qwA8OfHhxEcSp6X4vjS3U2lZ9/lZccWGp26nmK/HQhXpVawflLh94naJ2yaul5hka7VAf3s6+YRJdnSO63pno2cpzJHEpgkQIECAAAECBFoXUKBvc4RS2F0pq3jSNlcz1MU/lY4dn3hz4uQUTPU55yZbcqvT6D+/FLtdwC1jfECmH5a4W+IeiSMSdVR+K61O1a83J1psJyWpOquhrqfQe3tb7x2QPwECBAgQIECAwOIJKNC3P+YPzyrqlGntCoHP5eZliVel6P3EEFDSj7oaeBV83y/6UrDX59tvnTgqcZ+l26vkdjPtE0tvBmxm3pnOk7y+lb4dl43+7Ew3PPmN1Zstr538aq2RAAECBAgQIECAwHQFFOjb933c9lfR/RrqgmdvSDwv8bYUepd136N1OrDUv1MyS8VzUtTWEecfSTww8eBEnSa/Vvs/a93RyPSXJo/eC/Q3Z4zqM+gaAQIECBAgQIAAga4EFOjbGK4UZnVBrfqs8qK2OlL5ksRfpiBa2Ctmp+91Wnh9frvi8dkv7pDboxNVrNfn2He1Z+WX5+/6o9Hb+khCfT1ZfQ6/1/Z3vSYubwIECBAgQIAAgcUWUKBvb/wX+ej560P3xBSnp22PcHhLx6Q+Y17xlBTrN8vtoYlP92CVHL+XnP8q+dbZED2296UP/9Zj4nImQIAAAQIECBAgoEDf4j6QIqaOMNYpzYvW6kj5b6QIOmHROr6V/sapPpNf0VN7YZL9/cTNe0p6KdendpizlAkQIECAAAECBAh8X6AudqVtTeDRWWzH1hbtcqn6XPmfJw5TnHc5fptOOuNbp+z/900v0M6Mr0/ub2knHZkQIECAAAECBAgQGE9AgT6e1/fnztHzPfPLI7ewaK+L1PeI/3iKnz9KfKfXTsh78wIZ5/pqvFdvfom5z3l+Mljkj5zMfQAkQIAAAQIECBAgsH0BBfrWDO+dxRblq9VOTF8PT8FWt9piCfxGuntGJ13+teyjX+wkV2kSIECAAAECBAgQGCmgQB/JsuHEYzacYxgz1FeC3TuFj6+sGsZ4jtWLjPvXs8DDEheNteDsZ35mcvW957N3t0UCBAgQIECAAIEJCyjQxwTN6e37ZZGjx1ysx9mfnqLnUYn6PLK2oAIZ//en6z+XqGsQtNiqMH9Ci4nJiQABAgQIECBAgMC4Agr0ccWuOKJ4pfEX62qJP0lh9sSuMpbs1ASyL7wpK/+lRGtFen1O/heT36VT67wVEyBAgAABAgQIEJihgAJ9fOyfHX+Rrpao04Wf0lXGkp26QPaJl2UjD0q0crr7S5LL0cnLGR5TH30bIECAAAECBAgQmJWAAn0M6Zzefu3Mfs8xFult1pcn4d/tLWn5zkYgxXAdSf/RxOmz2eLIrdTR8j9IHJN8Lhk5h4kECBAgQIAAAQIEOhVQoI83cPfP7HuNt0g3c783mf5Kip7Lu8lYojMXyP7xoWz0jolXznzjV1xR/sjk8Bf20zno77HHNeayVRslQIAAAQIECCyQgAJ9vMF+8HizdzP32cn0Z1L0OF24myGbX6LZTy5I/EIy+MnEZ2eQSe2XT0vcJts9aQbbs4nRAv5fjHYxlQABAgQIECAwMQEvuDZJmdPb982sVZAMrdUR819I4fOloXVMf6YrkH3mX7OF2ySOTUyjUL8463124uBs60mJVj7/npQ0AgQIECBAgAABApMXUKBv3vS+mbWK9KG1Z6fwecfQOqU/sxHIvvPdxAuztUMSP5V4RaIK6+20D2ThxyZunHX/duIL21mZZQkQIECAAAECBAj0IjDUz1NPw3+IR88/HShfpzaNvWXB1pkiui7e9paKnG1y5dwekbhX4rDErRM7E3smVrZzM+GTiVMT70q8Lev6Sm41AgQIECBAgAABAgsnoEDf/JBXsTG09ugUQ9s92jk0E/3ZpsDSPlVnZex2ZkYK9/0y7eqJKtS/WZF5XfcgEBoBAgQIECBAgACBElCgb2I/SGFxk8x2i03M2tMsr0px9M6eEpZr3wLZ385PDyo0AgQIECBAgAABAgRGCPgM+giUEZOOGjGt50nfTvK/13MH5E6AAAECBAgQIECAAIGhCSjQNzeiP7G52bqZ6zk5mnlmN9lKlAABAgQIECBAgAABAgsgoEDf3CAP6Qj6henyMzbXbXMRIECAAAECBAgQIECAwKwEFOgbSOfz5/X1UQduMFtPd/9djp5/raeE5UqAAAECBAgQIECAAIFFEFCgbzzKd914lm7mqCtmP7ObbCVKgAABAgQIECBAgACBBRJwFfeNB3tIBforc/T87I27bA4CBAgQIECAAAECBKYpkDN1r5P1H5Co2+sl9k/sm6iDqNdI7GqX55cLlv6oj6vW6/lzEucmvrr0TTn5VRuCgAJ941G8y8azdDPHs7rJVKIECBAgQIAAAQIEOhdIEX6ldOE2idsvxUG5vXniZomrJbbdso1vZSWnJz6b+FjiE4kPpXD/XG61zgQU6OsM2NID6rB1Zunprg/kQfrhnhKWKwECBAgQIECAAIGeBFI/7Ey+d0/8SOKIxO0Seyam2arQ3/UGwIN3bSi51FH2kxP/XpFa4JO77nPbroACff2xuUPu3nv9Wbq598XdZCpRAgQIECBAgAABAh0IpAi+StK8T+LeS7e3aCjtOn3+6KXYI7l+Jr8fl3hVivUP5FZrUECBvv6g/PD6d3dz7yXJ9JXdZCvRZgTyRH71JDPtd32329/v5p/Mt7e7EstvKHDl7A/7bTjXdGb4Xsa4Tt/TCBAgQIDA3AXy//CaSaIK34ckqji/cqKHVm8e/G5F+vCp3L4o8YL8j63PsmuNCCjQ1x+IO61/dzf3vtkDr5uxaiLRPGnXP52/Tdy0iYQ2SCL5fjSz/Lfs53UalzYdgf+R1VbMpWWM35sN/0bGuMZaI0BghEAeJzsy+ZhEPYdXAdF6uzgJnpB4Vh7bF7We7Mr84n14pj02UZ8lLvuW2/lJ7jWJl8e6LjimjSmQ8a4DFvdL/FLiAYleivKkOrLdKlP/IvHU9O1l9Xv2jTrCrs1ZQIG+/gDUZzmG0P7vEDqhD7MRyJP0/bOl3vaZw5LzW5P7Ya39c0lO9bmw+hxaRb3Trm1N4G5Z7N/ieeuMsXf6t2ZoqeELPDddfHRn3bxv8n1gHttH5rFdZ/x10ZLvUUn0LYm9u0j4iiQflJs7JuoIqrZJgYz1DTNrPa5+NXHgJhfrabZ6o+FRiWPT11fn9sl5LJ7WUweGlqvvQV9jRLODlk29s9R7uywdeFPvnZD/TAX+aqZbm9zG6jNgvz651W1tTXnuuHbiQYlnJOrzXXXU4vjEkxK3TmhbF6jP0v3C1he3JIHhCuT5pi5E1VtxvmtA6oJavT22n5GceyrOd1n/TvaVg3f94XZtgTjdIfHyzHFG4smJIRbn6dZ/tToL5GGJU9Lvv0ns91/3+GWmAo6gr829M3fV9xD23k5ytKn3IZxd/nkyrqO9PReR9bUlM20xu342+GNLcc/cHppo/VTHpNht29lt5hInMF2BurBtz63yf0lHHejZuz7C6QjpGjtb/q/fNXf9QaLOOFjEVm88PT7x8Fg8JnXEaxcRYZ59VqCvrX/bte/q6p43dpWtZOct0PtzwtTzzz+rnRmkH01UMV63t0xosxOY+hjPriu2RGCiAr2fFemNzYnuDuuurE5p1lYI5P97nTlbZxE+YMVdi/rn9dLx18Tl9bn9tRTq5y0qxKz77YXO2uK3Wfuuru45oatsJUugMYGlf9jLC/KbNJaidAgQIECAAIHtCfxFFv+ZROvfXLO9Xm5t6bp+zg/n9dDDUqS/Z2ursNQ4Agr0tbWGUKB/Pd378NpddA8BAisF8g+oTlmvf9K7jpDXO8gaAQIECBAgMFyB+uy1trbAjXPXu/IaqU55f97as7lnEgIK9LUVh1Cgn5gHUV0kTiNAYBMC+cdzn8z2ukR9Fl8jQIAAAQIECBC4QqDOLnhuXisdktvfS41xKZjpCPT+eaXpqFyx1p3TXPmM1n3ijLZjMwS6F8g/nPpM3j8nFOfdj6YOECBAgAABAlMSeFzW+5K8bvJxgCkBK9BHwGaHqxfo+4+4q7dJ7+stYfkSmKNAfTdsfY2XRoAAAQIECBAgsLbAw3PX61Mz7bP2LO7ZqoACfbTcztGTu5pap7b/R1cZS5bAfAX8k5mvv60TIECAAAEC/Qj8dFL9Z0fSJz9gCvTRpjtHT+5q6in5bMiFXWUsWQIECBAgQIAAAQIEehH42ST6t70k20ueLhI3eqR2jp7c1dQPdZWtZAkQIEBgKwIvyNGLb21lwQEs4/OPAxhEXSBAoHuBx+T/0OdzYPAZ3fekkQ4o0EcPxM7Rk7ua+vGuspUsAQIECGxF4KCtLGQZAgQIECAwQYGnp0j/SIr0f5/gOhd2VU5xHz30O0dP7mrqp7rKVrIECBAgQIAAAQIECPQoUDXlq1Ok36TH5FvLWYE+ekRuPHpyV1NP7SpbyRIgQIAAAQIECBAg0KvAtZN4ff2a+nKbIwhwNOD1Rk/uZupFyfTz3WQrUQIECBAgQIAAAQIEehe4ZzrwO713Yt75K9BHj8B1R0/uZupp+QzI5d1kK1ECBAgQIECAAAECBIYg8Oc5in6rIXRkXn1QoK+Qzw511Uzad8Xk3v509Ly3EZMvAQIECBAgQIAAgf4F9kkX/r7/bsyvBwr01fbXXz2puylf6C5jCRMgQIAAAQIECBAgMASBH89Bz58fQkfm0QcF+mr1A1ZP6m6KI+jdDZmECRAgQIAAAQIECAxG4K9TpPd+VvJcBsP3oK9mV6CvNpnKlKUH7WOy8iMT9dECbW2B7+SujyWemesLnLX2bO4hQIAAAQIECBAgMHeBGySD/5Z4xtwz6SwBBfrqARvCKe5fWt2ttqakOK/Pp7w9cbe2Mms6m/sku0fG7i4p0n2MoemhkhwBAgQIECBAYOEFnpjXrc/P69YLFl5iDACnuK/G2n/1pO6mfK2DjI9Jjorz8QeqvgLwyeMvZgkCBAgQIECAAAECMxWouuqxM93iADamQF89iFdbPam7Ked0kPGdO8ix1RTv1Gpi8iJAgAABAgQIECCwTOC/L32sddkkv64noEBfrdN7gf69nEZy3upuNTelTnHXtibgcbs1N0sRIECAAAECBAjMVqCu7/XI2W6y7615ob96/PZbPamrKT2c3t4VqGQJECBAgAABAgQIENiywO/kKPqOLS+9YAsq0FcPeO9H0M9d3SVTCBAgQIAAAQIECBAgMBeBQ7LVI+ey5Q43qkBfPWi9F+gXru6SKQQIECBAgAABAgQIEJibwLFz23JnG1agrx4wBfpqE1MIECBAgAABAgQIECCwVYGH5jT33j9KvNW+j7WcAn01V+8F+jdWd8kUAgQIECBAgAABAgQIzE1g32z5YXPbekcbVqCvHqze39n55uoumUKAAAECBAgQIECAAIG5Cjx4rlvvZOMK9E4Gaow0fQZ9DCyzEiBAgAABAgQIECAwE4F75TT3a89kSx1vRIG+evCuuXpSV1Mu7ipbyRIgQIAAAQIECBAgsAgCe6WTD1qEjm6nj4Wk7S7gO/p29/AXAQIECBAgQIAAAQJrC3w9d52a+Ezii4mzEucvxUW5rVYHRvdfihvk9naJ2yZukVik9tPp7AsXqcPj9lWBPq6Y+QkQIECAAAECBAgQWFSBy9PxjydOTpyUeM8555/7udxuqeWU7xtnwfsljk7cNzH0g4VHpc97xex76as2QkCBPgKl80kuEtf5AEp/bgLfmduWbXgcgXPHmdm8BAgQIEBgAgL1GuHfE8cl3pji8ssTWOf3V5F11RH3f6hI4XpQbn8/8ajEnokhtmukU3dN1Bsc2ggBn0FfjdL7Z9AvXd0lUwgQ2ITAhzPP2ZuYzyzzFTh+vpu3dQIECBBYIIH3pK+/lrhuCun7J/5xksX5Sses+7OJR2f6YYn3rbx/QH//xID6MvGuKNAnTmqFBAj0KJB/iPXu+CMSzkJpcwDrlMInZZw+2GZ6siJAgACBgQjUNyL9feLW+Z9z98QLEt+YZd+yvVOyvXsknj7L7c5wWwr0dbCd4r4OjrsIEFgsgfxDfFtOLzs4vX5A4oaJSb+Jebessz5f1mN7Z5I+YU6J14V23pbx+cSctm+zBAgQIDB8gfoI1V8nnpf/N3XRt7m25FBnxT4xr0vqwnN1CvykX5PMs3938jn0tfkV6Gvb9HqPMe115OTdhED+IdZp7v80jWTyz+hxWW+vBfoJsXnqNFyskwABAgQIzFGgjpjXkepn5v/ct+aYx8hNJ6cX5PVDXTjuH0fO0OfEfZP24QlnxY0YvyG9EzOiews56WoL2WudJkCAAAECBAgQIDC+wENTBP9pi8X5rq4kt+fn97/Y9fdAbutCcdoIAQX6CBSTCBAgQIAAAQIECBBYCIG6Bk0P7Y+S5Lt6SHSTOR6xyfkWbjYF+sINuQ4TIECAAAECBAgQINCTQI6i12fSj0lc3FPe6+RaV6rXRggo0FejfHv1pK6m1Gc6NAIECBAgQIAAAQIEBiSQIv30dOdpA+nSrfLZ+r0H0peJdkOBvprzktWTuppyla6ylSwBAgQIECBAgAABApsVeGZm/MpmZ254vrqw9SEN5ze31BToc6Of2oavPrU1WzEBAgQIECBAgAABAnMTWLqY3d/MLYHJbvi2k13dMNamQF89jt9bPamrKa7i3tVwSZYAAQIECBAgQIDAWAJ1VffmvhJurB5cMfNttrDM4BdRoK8e4t53dqe4rx5TUwgQIECAAAECBAgMQiBH0c9PR141gM7cYgB9mHgXFOgTJ537Cp3iPvchkAABAgQIECBAgACBqQq8eKprn83Kd85mM31tRYG+erwuXD2pqyn7d5WtZAkQIECAAAECBAgQGFfg5Czw5XEXamz+mzeWTxPpKNBXD8M3Vk/qaooCvavhkiwBAgQIECBAgACB8QRymvtlWeK48ZZqbu7r5avWfEX0imFRoK8AyZ8XrJ7U1ZR9sqO7UFxXQyZZAgQIECBAgAABAmMLvHXsJdpbYGd7Kc03IwX6av/eC/Tq0fVWd8sUAgQIECBAgAABAgQGJPCO9OXyzvtz/c7zn3j6CvTVpL2f4l49cpr76nE1hQABAgQIECBAgMBgBJau5n5q5x1yYHHFAO614m9/9n+Ke43hDQ0kAQIECCyEwNPTy08tRE9Xd7K+VvR/r55sCgECBBZK4L3p7aEd9/i6Hec+ldQV6KtZh3AE/Uaru2UKAQIECAxQ4C05gnLCAPu1YZdyvZX9MpMCfUMpMxAgMHCB/+i8f05xXzGATnFfAZI/h/AZ9Jus7pYpBAgQIECAAAECBAgMTODjnffngM7zn3j6CvTVpOetntTdlBt3l7GECRAgQIAAAQIECBAYV6D3z6C7dtaKEVegrwDJn19dPam7KQr07oZMwgQIECBAgAABAgTGE8jHnM7JEt8cb6mm5vb10CuGQ4G+AiR/fmn1pO6mHNJBxl/rIEcpEiBAgAABAgQIEGhd4HOtJ7hOfldf576FvEuBvnrYv7J6UndT9s/Fc67deNavbjw/6REgQIAAAQIECBDoQaDn+sUR9BV7mAJ9BUhOE6kju99dMbnHP2/VctJxfn/y+83ExS3nKTcCBAgQIECAAAECjQvUae69NkfQV4ycr1lbAbL0Z70L1fuV0G+ZPrx7dPfamJoi/Xk50v+aZHPXxD4zzuofsz1XjZwxus0RIECAAAECBAhMXODLE1/j7FZYX5mpLRNQoC/DWPZr7eS9F+iHLutPs7+mSD83yb151gnmjYG/nfU2bY8AAQIECBAgQIDAFARc22kKqPNapVPcR8ufNXpyV1Pv2FW2kiVAgAABAgQIECBAYCsCZ29loUaW2buRPJpJQ4E+eiiGcCX3O4zumqkECBAgQIAAAQIECAxI4PyO+3KVjnOfSuoK9NGsnxk9uaup18pp3DfrKmPJEiBAgAABAgQIECBAYIEFFOijB38IBXr17M6ju2cqAQIECBAgQIAAAQIDEej5CPpAhmBy3VCgj7b8z9GTu5t6j+4yljABAgQIENicwDU3N5u5CBAgQIBAPwIK9NFjdUYmXzr6rq6m/lhX2UqWAAECBAhsXmDH5mc1JwECBAYt8O1B927BOqdAHzHg+eqvSzL58yPu6m3SYfkcuiMMvY2afAkQIECAAAECBAhsXuC7m5/VnK0LKNDXHqHT1r6rm3tqfH+km2wlSoAAAQIECBAgQIAAgQUWUKCvPfhD+Rz6T63dRfcQIECAAAECBAgQIECAQCsCCvS1R+LUte/q6p77dZWtZAkQIECAAAECBAgQILCgAgr0tQf+w2vf1dU9N8vn0G/dVcaSJUCAAAECBAgQIEBgswI913R17S9tmUDPg7msG1P59eNZ6xCu5F44D5qKkJUSIECAAAECBAgQIDBvgWvMO4FtbN8V6FfgKdBXgOz6M1dyvyi/f2rX353fPqzz/KVPgAABAgQIECBAgMDwBC4eXpe21yMF+vp+QznN/fCc5n6r9bvqXgIECBAgQIAAAQIECMxUQIG+gluBvgJkxZ//seLvnv/8hZ6TlzsBAgQIECBAgAABAiMFrjpyah8T66xlbZmAAn0ZxohfPzRiWq+Tjs1R9D17TV7eBAgQIECAAAECBAiMFLjSyKl9TPxOH2nOLksF+vrWdYr7ZevP0s29N0qmvnKtm+GSKAECBAgQIECAAIFNCfR8kbgLN9XDBZpJgb7OYOdCcd/M3R9ZZ5be7np0bwnLlwABAgQIECBAgACBdQX2Xffetu/8RtvpzT47BfrG5idsPEs3c9zPd6J3M1YSJUCAAAECBAgQILAZgZ5PcVegrxhhBfoKkBF/njBiWq+TdiTx/9Fr8vImQIAAAQIECBAgQGCVwH6rpvQz4YJ+Up1Npgr0jZ3fnVku33i2buZ4eI6i36SbbCVKgAABAgQIECBAgMB6Avuvd2fj9zmCvmKAFOgrQFb+mc+hn5dpH1s5veO/907uT+k4f6kTIECAAAECBAgQIPADgZ4LdEfQfzCO3/9Ngb4CZI0/T1hjeq+Tj8lR9EN7TV7eBAgQIECAAAECBAj8l0DPBfrX/qsXfvm+gAJ9czvC2zY3Wzdz1bj/ZTfZSpQAAQIECBAgQIAAgbUEFOhryXQ4XYG+uUF7e2b7zuZm7WauuqL7Q7rJVqIECBAgQIAAAQIECIwSuN6oiZ1MO7uTPGeWpgJ9E9T5HPq3M9s7NjFrb7M8O0X6NXpLWr4ECBAgQIAAAQIECOyxR17L7xWHAzu2cIr7isFToK8AWefPN61zX6933TCJP6PX5OVNgAABAgQIECBAYMEFbpT+79mxgQJ9xeAp0FeArPPn/13nvp7v+jWnuvc8fHInQIAAAQIECBBYYIGdHff9kuR+Tsf5TyV1BfomWXOa+1mZ9X2bnL232V6QIn1nb0nLlwABAgQIECBAgMCCC+zsuP9fSo11ecf5TyV1Bfp4rK8Zb/Zu5r5WMj0uRfrVuslYogQIECBAgMCQBPYeUmf0hcAMBQ6e4bYmvakzJ73CIaxPgT7eKL4qsw/1XZ7bp28vTZHe82dYxhtNcxMgQIAAAQKtCFy1lUTkQaAzgcM7y3d5ugr05RpLvyvQR6CsNSmnYNRO9K617h/A9KPTh39Ikb5jAH3RBQIECBAgQIAAAQJDF7hDxx38Qse5Ty11Bfr4tP88/iJdLfGoZPu3ivSuxkyyBAgQIECgd4Gr9N4B+ROYtUBer9f3n/f8FWufm7VZD9tToI8/SnWae30v+pDbY9O5unCc092HPMr6RoAAAQIE2hHYr51UZEKgG4Ef7ibT0YmeNnryYk9VoI85/jnN/RtZ5LVjLtbj7Mcm6delSHfhuB5HT84ECBAgQKAvgbpgrUaAwHgC9xlv9ubm/kxzGTWQkAJ9a4Pw/K0t1t1SD0rG702RflB3mUuYAIFJC7iA06RFrY8AgeUCN17+h98JENiUQM8F+nfTwy9uqpcLNpMCfQsDnqPoJ2Wxj21h0R4XOTRJfyRF+i/1mLycCRCYmEB9zk0jQIDAtASul9caV57Wyq2XwNAE8ni5Sfp0SMf9Oi011WUd5z+11BXoW6f931tftLslr56MX5wngjrl/YbdZS9hAgQmIXCzSazEOggQILCOQB0U0AgQ2JzAQzc3W7NzndpsZnNOTIG+9QGoq7mfu/XFu1zyIcn6kynSfy+xb5c9kDQBAlsVuGMe9y4cuVU9yxEgsBmBnr/PeTP9Mw+BSQr0fnbrxyeJMaR1KdC3OJo5JaOu5P7cLS7e82J1NP2vEp/Oi/VfT1yp587InQCBTQvUVyAdsem5zUiAwKwFLpr1BqewvSOnsE6rJDA4gbz+vns61fsbWgr0NfZMBfoaMJuc/JzMd/Em5x3abHUxl39InJEniT9K9PwdjEMbG/1pV+CCdlPbVGY/u6m5zESAwDwEvjOPjU54m/fJ6wmvTSeManWDFPj9AfTqowPow1S64ElwG6w5iv7VLF5F6iK366fzf5r4Yv6pvinxyMQ1FxlE3wmsI3D5Ovf1cNcxeXxfo4dE5UhgAQXqa2B7b9dNB3q+KnXv/vLvQCD/h49ImvVNSz23OmBxRs8dmGbue01z5Quy7qenn7+V2HtB+rtWN+uzqfdfikvy5HFyfv+3xAmJD+fNjLmdaZBcamxumbhd4s6JIxN15UuNwKwFzpv1Bie8vSrO/zDxxAmv1+oIENi+wBAK9FKo11Rv2T7H9NaQ1xX1kR+NwMwFsu9V7fZ3M9/w5Df4vtQGvR+0mLzK0hoV6Nukzc715TxY6ij6Y7a5qiEtXgXxkUtR/aqC/VO5rfjk0u3puT0ncXYML8zt2C3rrGLhqom6vU6ivgbqgES9A3/TRBXhdeXpnQn7ehC0uQv0XqAX4OPz2HttHrcfnLumBAgQWC4wlAL9gXmOOSLPMe9Z3rlWfk9u904ui372ZCvDMak87pdxfXf2ufpe7tbbU5PgHVtPchP5vX8T8yzsLIqWyQz9n2c1v5KoYlFbLVAFex29rljV8qR4cSZ+LXFpon6vWN72W/ZHfUdqOV9t2TS/EuhF4Ou9JLpOnvvkvtfmcfsjeTFz5jrzuYsAgdkKnDvbzU11a8/Pc8yd8xyz8vXAVDe63sqTz61zf501+cD15nNflwJPSNZHZ4z/Z25fnf3ushZ7kfzqOjBPajG3LeT03i0sszCL+Az6BIY6D+SvZDXPnMCqFnUVVXTfKFFHvQ9JHLYiavquqKPkivMgaF0KDOEIesHX4/GEvFi4eZejIGkCAxTIa5Eq0Hs4ArgZ/UMzUxXpOzYz8zTnSQ63Tbw026grTivOp4k933UfnM2/IvGJjPcvJ64033R233ryeUimvGz3qd3+dXkyf1+32c8gcQX65JD/Mqs6e3KrsyYCBAYoUG/mXTKQfh2UfnwwLxoePJD+6AaBIQjUc8xQ2iPSkRfkOabO2plpyzZ/KPGTiTdlw1WYVy51rR1t+AJ1psSLEl/I+P9xov7Xza1l+3smnpwEXpuoM1KH0D6WNxTrzFltDQEF+how407OjvbNLFMXT9IIECAwUiDPE/Wu8RdG3tnnxGsl7dfnxcMbE3foswuyJjAogbMG1Zs99jg2/Tkxzy+3m0W/sp2DE0/Ltup5+vjE/WexXdtoUqCuZ1SnvH8m+8R7Eo9JHDjLTLO9u2d7dS2GP0nM/WySCfb9hAmua5Cr8hn0yQ7ri7K6RyfuMtnVWhsBAgMS+Hz6Mtd35Kdg+YCs8wF5MfGO3L40cVzejBjK6fxT4LJKAlMT+EzWfLeprX0+K75rNvuRPL+8JLfPyXPLRyaVRtZZH7Err3snHpSoU+s1AisFah+peE72mTqj4m2Jtybelf1xSxc6zrIjW9ZfH+O8X+LXE/caOVP/E8tPW0dAgb4Ozrh35UF6WR5Yv5HlPpDYc9zlzU+AwEIInJ5eHjXQnv54+lVRz4X1IvrdiXox86nElxNn5Xny27ld1TJ/HY2vb2HYf+m2jlRcf+nv+qaGLyX+KcuXn0aAwGiBKtCH2Oo11a9U5Lmink/q6PbJiY8mTq/XX7ldt2W5a2eGWyYOSRyeqIMpdebPvgmNwGYF6myOiscn6n/dJ3P7wUTd1r55RqL+152T23Vblq197+CluG1u67XBEYm9E0Nt30vHThxq5ybVLwX6pCSX1pMHZL3L+5z8+bgJr9rqCBAYhsAnhtGNdXvxQ7n3Tkux24x5fqy/L1g2sYrvHcv+Xu/X387y983zbL0w1wgQWC3w2dWTBjflVulRRRVI1S7N88JXc1txfk1Y1upbYK6ZqDf8rrRsul8JTEKg/tfVWRerzrzIPlnfTFT/676ZqFa3Na2K8tona99cxH3yhPwPH8pXQmYIp9MU6NNxra9AqFM+bzGd1VsrAQIdC3ys49wnlXq9ONlKu2oW+odEHWnQCBBYLbCIzy91dL0K8AqNQCsCtV/WWRsV2g8E6sKL2gYC9c6PNmGBvDNUp3Aem6gLQmkECBBYLrAIR9CX93fSvx+aIxN1KrxGgMBqgTrNdihftba6d6YQINC7wHG9d2AW+SvQp6ScIv1dWfUzprR6qyVAoFOBPDfU59LO6DT9VtKuI+kaAQIrBPL8Ul/jeMqKyf4kQIBACwIfznPUGS0k0noOCvTpjtAfZfV1oSSNAAECywXqDTyNAAEC0xB47zRWap0ECBDYpsDLt7n8wiyuQJ/iUOddojrN7GGJXReImOLWrJoAgY4ETuooV6kSaFWgPuOprRY4cfUkUwgQIDBXgfrY7yvmmkFHG1egT3mwUqSflk0cO+XNWD0BAn0JvL2vdGVLoEmBqzeZ1fyTUqDPfwxkQIDA7gJvT0101u6T/LWWgAJ9LZkJTs8O+dqs7i8nuEqrIkCgY4E8J9R3FX+64y5InQCBRgWWXgSf2mh60iJAYDEF6htYtE0KKNA3CTWB2f4w63jzBNZjFQQIDEPgjcPohl4QINCggOeXBgdFSgQWVOAr6fcbFrTvW+q2An1LbOMvlHe0L81SD08s4neUjg9mCQLDF/DPavhjrIcE5iWgQJ+XvO0SILBS4Pmpg+obJrRNCijQNwk1idmyc16Q9dw/8aVJrM86CBDoWuDdyb5OddcIECAwaYH3ZIVfmPRKrY8AAQJjClyc+Z875jILP7sCfca7QIr0M7PJn0x8bcabtjkCBBoSyHNBXdH0xQ2lJBUCBAYikOeXy9KVlw2kO7pBgEC/Ai/K89GX+01/Ppkr0Ofgnh31E9lsHUn/xhw2b5MECLQjUAV6ffxFI0CAwKQFXjLpFVofAQIExhCo1zdPH2N+sy4JKNDntCukSH9/Nn2fhCJ9TmNgswTmLZDngS8mh1fPOw/bJ0BgeAJ5fvlUevVvw+uZHhEg0IlAHT0/o5Ncm0pTgT7H4chO+75sXpE+xzGwaQINCPxNAzn0lkKdvqsRILCxwHM2nsUcBAgQmLjAt7PGJ098rQuyQgX6nAd6qUi/Z9LwmfQ5j4XNE5iHQJ4DPpjt+grG8fCdeTSel7kXV+Bf0vX/WNzu6zkBAnMS+Ou8vvHZ8y3iK9C3CDfJxbID1z/PuydOn+R6rYsAgW4E/iCZ1kXjNAIECExMIK8v6myTP57YCq2IAAECGwt8PrP47PnGTmvOoUBfk2a2d+Sf6GnZ4t0Sddq7RoDAAgnk8f+xdPelC9RlXSVAYHYCx2VTdd0bjQABArMQ+M28rrlwFhsa6jYU6A2NbHbmc5LOkQlfjdLQuEiFwIwEfi/bOW9G27IZAgQWRCCvLersnMcmnKWzIGOumwTmKPDKPOccP8ftD2LTCvTGhjE79cWJRySt3018r7H0pEOAwJQE8rivN+ieMKXVWy0BAgsskOeXOjvvBQtMoOsECExfoL6Z5remv5nhb0GB3ugY559pXdn5xxNfajRFac1PwFHW+dlPe8svzAbqdFSNAAECkxaos3S+MOmVWh8BAgQiUNe7+MXUL1+nsX0BBfr2Dae2huzkJ2XlhyXeMLWNWHGPAv/UY9Jy3lggj/k6BfXYxJkbz20OAgQIbF4gzy/17Qe/nPA1hZtnMycBApsT+MM8x7xrc7OaayMBBfpGQnO+Pzv7uYkHJ4160X7BnNOx+fkKnJ3N/1z2B9comO84THXrGd86Q+IhiYumuiErJ0Bg4QTy/HJCOv2kheu4DhMgME2Bl+W5xVXbJyisQJ8g5jRXlR2/Tn29VeL109yOdTcpUNci+NvEIdkPXtNkhpKaqEDG+QNZ4S9NdKVWRoAAgSsE6oW0/yX2hqELfDYdfO7QO9lA/96THH61gTwGlYICvaPhzIv2ryQempQrvtxR6lLdusBbs+jtM+6PTziDYuuO3S2Z8X5tknaxle5GTsIE2hbIc0t9lOaRiXe2nengsquv06zQZiNwWvb1+h96TOLbs9nkwm3lQ+nxT8X54oXr+ZQ7rECfMvA0Vp8HQh1Fv2XizxIeFNNAnv866ztr75Wxvm/ik/NPRwbzEMjY17v/vz2PbdsmAQLDFchzy3fSuwcl6n+NNl2B+uz/4xJ3SpyQ0GYjUEfQ98i+/uLc3C1xSv2tTUzgE1lTFecOHk2M9AcrUqD/wKKr3/KA+FbiyUn64ITPJHc1eusmW1+F89OJu2V8377unO5cCIHsB89ORx+VuHQhOqyTBAjMRCDPLfXC+j4JR9KnI17P2f+UuGWsn5Woj6t9ZjqbstYRAqfvmhb7j+f3OyeekfC/dBfM1m9PzqI/Gtdztr4KS64noEBfT6eD+/LgODPxiKR6x8RxHaQsxdEC78jkeieyCvM3JuoURI3A9wWyP/yf/PLAhHeq7RMECExMIM8t9ZzyU4lXT2ylVlQCdabj7eL7q4mzl5Gctux3v05X4LPLV59xuDjxhEy7a+LDy+/z+1gC9c1S94nl+WMtZeaxBBToY3G1O3MeKB9JHJ0MD0+8KqHAa3e4dmV2SX7558QdMnZHJd6y6w63BFYKZP84PtPqCEAdCdAIECAwEYE8t1yUFf184qmJyxLa1gXelkV/OKYPTXxyxGr+c8Q0k6YjcOqo1WZc6nPTd0n8RsIR4FFIo6dVXfGUxENi6DP9o40mNlWBPjHKNlaUB81HE/WP9jaJ5yYubCMzWSwT+EJ+f3LiJhmrRyb+Y9l98/6191O/Br2/Z1+p0yPvmnhWwptw83602D6BgQjkueXyxB+nOz+RcBHapc6RiQAADudJREFU8cf1zVnkHjG8d+KD6yx+Ru5T3KwDNKG7Ls56/usU95XrzBhdmviHTK+Pif5FYtCvHVb2fwt/11kgdZbnnyS89tgC4LiLKNDHFetk/jyAPpX4raR7g8TjEj73NN+x+242/4bE/RM3y9j8WeIr801p9daT0zcztY6m9NrqYjyDbhmjixL1mD4qMeoIzaD7r3MECExPIM8t78jaD028cHpbGcya6yy4lyQOj9v9E+/eqGeZp85QOHWj+dy/bYFTY73hAYfMc0HiD7K1gxL1xncV9truAvXxl0Pj9K+7T/bXNAUU6NPUbWDdeUB9I1FPOnXV9yMT9VnWwRcx6WMrrf5h1xslB2YcHpx4c6L1UwhPaAVvC3l8bAvLdLlI9qMTkvhhid9L1OdIF6lN8jHU+9GsKhIWtfX+YrrJo3Z5bvl64tjsVEclWjrDq5X9vI4m/mmizoL75cRHx0ysBdO6iv+kW0v78wfG6VzG8OxEvfF9k8SfJM4dZ/mBzlvXS6g3nh6W4DHjQf6hGW/P5uYkkAdXnb72zkRdDfr6iZ9PvDHR+wucdKGpVqf+VFH+hMRB8a5T3p6bOK+pLNdPpr6+b5IF0Ppbm9y9deT/DZNbXftryn51SeKvk+nORL1gXIQ3376WPk+yn++KW6+n7NUZL+MWB1lkMK1eQPZ8OvaJLY9EHmd1NP1OiV9O7HbBrZbznlJu9RxxfOKhiRvH5n8mtnoW3Lyvml99eV9i0u2ESa9wG+v7l60smzE9J/GULHvjRH1GfREvJlfFeL2GvW0s6qMb2hwEdlx+eT1OtV0CO3bs2PXrQtwesN/+V01H75uo70N9YOJaCW08gSoMT0j8v8QbtvFPO4u30bJf1IuQ5yYOaCOjDbO4MHP8Suxfs+GcA54h43aNdO9XE49J3GygXX1Sxvlpk+xb3OqIyZMnuc4ZrKveRDs2Fi+ewbaa3UTGrv5vvS6xd7NJjk7suEyuiy118WZonPdKvj+T+J3EDycWpX0sHX15Rcbqi5PodCyvnPWclKg3P+bR6nPEVYROtKVf9RisNzHuNdEVj7+yF6d/x4y/2Ogl0q8ap0clHp645ui5BjG13ux8duLv4vetWfdIPbq7uAJ9d489Fq1AX979PAntmb/rKtH3TtQT7BGJKyW03QXqXa06Re2tS3FynsymcbrY7lud8V/ZH/bNJu+TqH9OVfi12Mr9PxPHZQy+1mKC88gpY1dnRx2VqBcVVcDUG3E9t3rM1SmLL0o8L2M98XeWY/YTWXe9UXn1ROvtnCT4yjh8qPVEZ5Ffxu7W2c4jEzeYxfa2uY16zjoh8eqM36XbXNdcFo/3XbLheiPw5xJDLFiqKK83UGqMPpHbibcYXi0rrTc76nln+f/XKoy+lxi31ZvUG33c5euZ57Xp07+Mu/LNzp9+7ZV5H5G4e2KfzS43ofnq40pvT7wufZzG/4h6PVyviWq//+nE8nHLn922OpPn7xOvj9tG+9DUOqlA351Wgb67x0IX6Cso9sgT7VUy7W5LUU+2d01cJ7ForY6Q11VZ35M4uW7zJFYvkDUCzQvkcVxvtNwvUYX6Tyaul+ihfT5JvjPxtsTxecx5A6aHUZPjwgjkuaUKlvsnjk48INHrGXj1P/6kxPGJOgvuc7nVCKwpsLTv/1hmuG+iivbbrTlzm3fUm1CvSNQbvWe0kKICffdRUKDv7qFAX+Gx8s88Kd0i0w5PHJa4/dLtTXM7lFbvXtc75h9P1BPY+xMfzhPYVt7RzqIagXYE8vjdkWwOTdQbbhV1lswtE/Nu9birs1Lqc5H1mKs3wb6YW40AgQ4E8txSZ+DVqe91RPieiXpzv44St9jqSGudfVJHDusNwHq+GdxZcOmXNiOB7P8HZlN11lr9T71Lol4n1yn/rbSzk0i9CfWWiuzvZ7aS2K48FOi7JK64VaDv7qFAX+GxmT/zxHT1zFeFe0W92K/YmbjRUuyT25ZaFdv14v+MxOmJerf8lMRHE2fkievy3GoEFkIgj99rp6O3TdTjtk4V3vUYvkF+n/QL7POyzrqwV8VnEvUmWMXpHndR0AgMRCDPKz+UrtwmUR+Rqjfz6znmoES9ob9XYlatnnNOXYoP5rbeBDwlzzddfrwguWsdCGT/r7NL7rAUh+S24laJ2v/rjfJptXr9Wq9v6zVtHWiq17Xvzf5er3Wbbgr03YdHgb67hwJ9hcck/swTVZ1SW8X6dRP7J66fqFPl6/drrIgq9uud+F23mykQLsj89e53naZWv9fp5+cui68u/X5Wbs9InJknqyrSNQIE1hHIY/cqubsK9XoMH5Cox2M9Nuv2qolq9RiuF+PVLkt8I/HdxIWJeuzVO/dfTpyVx109PjUCBBZUIM8p9f/9homdiZsv/X6t3NYbhctj1//+ep7ZdSSyfq/PyNbzS511U//H6/mmov6/fyVRzzUVn03Ud2HXawGNQBMC2f/rAoE7E/U/tV4L74r6/1r/byv2Wbqt/X7XPl//T6vV2R+1738zUW8+nZOo/7G1738uUQeZ6vHRXVOg7z5kCvTdPfxFgAABAgQIECBAgAABAgTmIrDrqMdcNm6jBAgQIECAAAECBAgQIECAwBUCCnR7AgECBAgQIECAAAECBAgQaEBAgd7AIEiBAAECBAgQIECAAAECBAgo0O0DBAgQIECAAAECBAgQIECgAQEFegODIAUCBAgQIECAAAECBAgQIKBAtw8QIECAAAECBAgQIECAAIEGBBToDQyCFAgQIECAAAECBAgQIECAgALdPkCAAAECBAgQIECAAAECBBoQUKA3MAhSIECAAAECBAgQIECAAAECCnT7AAECBAgQIECAAAECBAgQaEBAgd7AIEiBAAECBAgQIECAAAECBAgo0O0DBAgQIECAAAECBAgQIECgAQEFegODIAUCBAgQIECAAAECBAgQIKBAtw8QIECAAAECBAgQIECAAIEGBBToDQyCFAgQIECAAAECBAgQIECAgALdPkCAAAECBAgQIECAAAECBBoQUKA3MAhSIECAAAECBAgQIECAAAECCnT7AAECBAgQIECAAAECBAgQaEBAgd7AIEiBAAECBAgQIECAAAECBAgo0O0DBAgQIECAAAECBAgQIECgAQEFegODIAUCBAgQIECAAAECBAgQIKBAtw8QIECAAAECBAgQIECAAIEGBBToDQyCFAgQIECAAAECBAgQIECAgALdPkCAAAECBAgQIECAAAECBBoQUKA3MAhSIECAAAECBAgQIECAAAECCnT7AAECBAgQIECAAAECBAgQaEBAgd7AIEiBAAECBAgQIECAAAECBAgo0O0DBAgQIECAAAECBAgQIECgAQEFegODIAUCBAgQIECAAAECBAgQIKBAtw8QIECAAAECBAgQIECAAIEGBBToDQyCFAgQIECAAAECBAgQIECAgALdPkCAAAECBAgQIECAAAECBBoQUKA3MAhSIECAAAECBAgQIECAAAECCnT7AAECBAgQIECAAAECBAgQaEBAgd7AIEiBAAECBAgQIECAAAECBAgo0O0DBAgQIECAAAECBAgQIECgAQEFegODIAUCBAgQIECAAAECBAgQIKBAtw8QIECAAAECBAgQIECAAIEGBBToDQyCFAgQIECAAAECBAgQIECAgALdPkCAAAECBAgQIECAAAECBBoQUKA3MAhSIECAAAECBAgQIECAAAECCnT7AAECBAgQIECAAAECBAgQaEBAgd7AIEiBAAECBAgQIECAAAECBAgo0O0DBAgQIECAAAECBAgQIECgAQEFegODIAUCBAgQIECAAAECBAgQIKBAtw8QIECAAAECBAgQIECAAIEGBBToDQyCFAgQIECAAAECBAgQIECAgALdPkCAAAECBAgQIECAAAECBBoQUKA3MAhSIECAAAECBAgQIECAAAECCnT7AAECBAgQIECAAAECBAgQaEBAgd7AIEiBAAECBAgQIECAAAECBAgo0O0DBAgQIECAAAECBAgQIECgAQEFegODIAUCBAgQIECAAAECBAgQIKBAtw8QIECAAAECBAgQIECAAIEGBBToDQyCFAgQIECAAAECBAgQIECAgALdPkCAAAECBAgQIECAAAECBBoQUKA3MAhSIECAAAECBAgQIECAAAECCnT7AAECBAgQIECAAAECBAgQaEBAgd7AIEiBAAECBAgQIECAAAECBAgo0O0DBAgQIECAAAECBAgQIECgAQEFegODIAUCBAgQIECAAAECBAgQIKBAtw8QIECAAAECBAgQIECAAIEGBBToDQyCFAgQIECAAAECBAgQIECAgALdPkCAAAECBAgQIECAAAECBBoQUKA3MAhSIECAAAECBAgQIECAAAECCnT7AAECBAgQIECAAAECBAgQaEBAgd7AIEiBAAECBAgQIECAAAECBAgo0O0DBAgQIECAAAECBAgQIECgAQEFegODIAUCBAgQIECAAAECBAgQIKBAtw8QIECAAAECBAgQIECAAIEGBBToDQyCFAgQIECAAAECBAgQIECAgALdPkCAAAECBAgQIECAAAECBBoQUKA3MAhSIECAAAECBAgQIECAAAECCnT7AAECBAgQIECAAAECBAgQaEBAgd7AIEiBAAECBAgQIECAAAECBAgo0O0DBAgQIECAAAECBAgQIECgAQEFegODIAUCBAgQIECAAAECBAgQIKBAtw8QIECAAAECBAgQIECAAIEGBBToDQyCFAgQIECAAAECBAgQIECAgALdPkCAAAECBAgQIECAAAECBBoQUKA3MAhSIECAAAECBAgQIECAAAECCnT7AAECBAgQIECAAAECBAgQaEBAgd7AIEiBAAECBAgQIECAAAECBAgo0O0DBAgQIECAAAECBAgQIECgAQEFegODIAUCBAgQIECAAAECBAgQIKBAtw8QIECAAAECBAgQIECAAIEGBBToDQyCFAgQIECAAAECBAgQIECAgALdPkCAAAECBAgQIECAAAECBBoQUKA3MAhSIECAAAECBAgQIECAAAECCnT7AAECBAgQIECAAAECBAgQaEBAgd7AIEiBAAECBAgQIECAAAECBAj8f4hvUlh0SvcSAAAAAElFTkSuQmCC;" parent="1" vertex="1">
                    <mxGeometry x="300" y="272.15000000000003" width="170" height="69.7" as="geometry"/>
                </mxCell>
                <mxCell id="10" value="&lt;font color=&quot;#000000&quot; style=&quot;font-size: 14px;&quot;&gt;NHL - Analytics Repository&lt;/font&gt;" style="text;html=1;strokeColor=none;fillColor=none;align=center;verticalAlign=middle;whiteSpace=wrap;rounded=0;fontSize=14;" parent="1" vertex="1">
                    <mxGeometry x="295" y="322" width="180" height="30" as="geometry"/>
                </mxCell>
                <mxCell id="15" value="" style="edgeStyle=none;html=1;strokeColor=#1D3557;fontSize=14;fontColor=#000000;" parent="1" source="11" target="12" edge="1">
                    <mxGeometry relative="1" as="geometry"/>
                </mxCell>
                <mxCell id="11" value="&lt;font color=&quot;#000000&quot; style=&quot;font-size: 14px;&quot;&gt;&lt;b&gt;./src/*.py&lt;/b&gt;: Data Pull &amp;amp; Process&lt;/font&gt;" style="text;html=1;strokeColor=none;fillColor=none;align=center;verticalAlign=middle;whiteSpace=wrap;rounded=0;fontSize=14;" parent="1" vertex="1">
                    <mxGeometry x="285" y="380" width="200" height="30" as="geometry"/>
                </mxCell>
                <mxCell id="12" value="&lt;font color=&quot;#000000&quot; style=&quot;font-size: 14px;&quot;&gt;&lt;b&gt;./latest/*.csv&lt;/b&gt;: Latest Season Data&lt;/font&gt;" style="text;html=1;strokeColor=none;fillColor=none;align=center;verticalAlign=middle;whiteSpace=wrap;rounded=0;fontSize=14;" parent="1" vertex="1">
                    <mxGeometry x="270" y="450" width="230" height="30" as="geometry"/>
                </mxCell>
                <mxCell id="23" value="" style="shape=image;verticalLabelPosition=bottom;labelBackgroundColor=default;verticalAlign=top;aspect=fixed;imageAspect=0;image=data:image/png,iVBORw0KGgoAAAANSUhEUgAAASQAAABuCAYAAACOTW5SAAAKrGlDQ1BJQ0MgUHJvZmlsZQAASImVlwdUU+kSgP970xstEDqE3gTpBJASegDp3UZIAoQSQ0IQsaGyuIJrQUUElRVdBFFwVYrYEFEsLAL2ukEWBXVdLIiKyrvAIbj7znvvvDln7nyZzD///P+5c85cAChqbKEwA1YAIFOQLYrw96LHxSfQcUMAD5QABLCAweaIhcywsGCAyIz9u3y4g0QictNyMte///9fRZHLE3MAgMIQTuKKOZkIn0T0LUcoygYAVYP4DZZlCye5C2FlEVIgwtJJTpnm95OcNMVo/FRMVIQ3wloA4MlstigFALIp4qfncFKQPOQAhK0FXL4A4VyE3TMzl3IRbkHYFIkRIjyZn5H0XZ6Uv+VMkuVks1NkPH2WKcH78MXCDPby//M6/rdkZkhm9jBGlJwqCohArAZyZ/fSlwbJWJAUEjrDfO5U/BSnSgKiZ5gj9k6YYS7bJ0i2NiMkeIaT+X4sWZ5sVtQM88S+kTMsWhoh2ytZ5M2cYbZodl9JerTMn8pjyfLnpUbFznAOPyZkhsXpkUGzMd4yv0gSIaufJ/D3mt3XT3b2TPF35+WzZGuzU6MCZGdnz9bPEzBnc4rjZLVxeT6+szHRsnhhtpdsL2FGmCyel+Ev84tzImVrs5EXcnZtmOwO09iBYTMMgoE/oINoxEaBCMBEfvkizwhgAUA2Lzd78kDeS4XLRfyU1Gw6E+k0Hp0l4FjNodta29oDMNm306/FO9pUP0K0a7O+/NMAuJohcGDWF4J0fSPSU6TKWZ8pCQB5RC+/4EhEOdM+9OQDA4hAHigDdaADDIApsAS2wBG4Ak+kykAQitQcDxYDDkgFmUAEloGVYC0oBMVgK9gJykElOABqwFFwHDSDM+ACuAyugx5wGzwEUjAIXoIR8AGMQxCEgygQFVKHdCEjyAKyhRiQO+QLBUMRUDyUCKVAAkgCrYTWQ8VQCVQO7YdqoV+hU9AF6CrUC92H+qFh6C30GUbBZFgZ1oaN4bkwA2bCQXAUvAhOgbPgPLgA3gyXwVXwEbgJvgBfh2/DUvglPIoCKBKKhtJDWaIYKG9UKCoBlYwSoVajilClqCpUPaoV1Ym6iZKiXqE+obFoKpqOtkS7ogPQ0WgOOgu9Gr0JXY6uQTehO9A30f3oEfQ3DAWjhbHAuGBYmDhMCmYZphBTiqnGNGIuYW5jBjEfsFgsDWuCdcIGYOOxadgV2E3YvdgGbBu2FzuAHcXhcOo4C5wbLhTHxmXjCnG7cUdw53F9uEHcRzwJr4u3xfvhE/AC/Dp8Kf4w/hy+D/8cP05QIBgRXAihBC5hOWEL4SChlXCDMEgYJyoSTYhuxChiGnEtsYxYT7xEfER8RyKR9EnOpHASn5RPKiMdI10h9ZM+kZXI5mRv8kKyhLyZfIjcRr5PfkehUIwpnpQESjZlM6WWcpHyhPJRjipnJceS48qtkauQa5Lrk3stT5A3kmfKL5bPky+VPyF/Q/6VAkHBWMFbga2wWqFC4ZTCXYVRRaqijWKoYqbiJsXDilcVh5RwSsZKvkpcpQKlA0oXlQaoKKoB1ZvKoa6nHqReog4qY5VNlFnKacrFykeVu5VHVJRU7FViVHJVKlTOqkhpKJoxjUXLoG2hHafdoX1W1VZlqvJUN6rWq/apjqlpqnmq8dSK1BrUbqt9Vqer+6qnq29Tb1Z/rIHWMNcI11imsU/jksYrTWVNV02OZpHmcc0HWrCWuVaE1gqtA1pdWqPaOtr+2kLt3doXtV/p0HQ8ddJ0duic0xnWpeq66/J1d+ie131BV6Ez6Rn0MnoHfURPSy9AT6K3X69bb1zfRD9af51+g/5jA6IBwyDZYIdBu8GIoa7hfMOVhnWGD4wIRgyjVKNdRp1GY8YmxrHGG4ybjYdM1ExYJnkmdSaPTCmmHqZZplWmt8ywZgyzdLO9Zj3msLmDeap5hfkNC9jC0YJvsdeidw5mjvMcwZyqOXctyZZMyxzLOst+K5pVsNU6q2ar13MN5ybM3Ta3c+43awfrDOuD1g9tlGwCbdbZtNq8tTW35dhW2N6yo9j52a2xa7F7Y29hz7PfZ3/Pgeow32GDQ7vDV0cnR5FjveOwk6FTotMep7sMZUYYYxPjijPG2ct5jfMZ508uji7ZLsdd/nK1dE13Pew6NM9kHm/ewXkDbvpubLf9blJ3unui+8/uUg89D7ZHlcdTTwNPrme153OmGTONeYT52svaS+TV6DXm7eK9yrvNB+Xj71Pk0+2r5BvtW+77xE/fL8Wvzm/E38F/hX9bACYgKGBbwF2WNovDqmWNBDoFrgrsCCIHRQaVBz0NNg8WBbfOh+cHzt8+/1GIUYggpDkUhLJCt4c+DjMJywo7HY4NDwuvCH8WYROxMqIzkhq5JPJw5Icor6gtUQ+jTaMl0e0x8jELY2pjxmJ9YktipXFz41bFXY/XiOfHtyTgEmISqhNGF/gu2LlgcKHDwsKFdxaZLMpddHWxxuKMxWeXyC9hLzmRiEmMTTyc+IUdyq5ijyaxkvYkjXC8Obs4L7me3B3cYZ4br4T3PNktuSR5KMUtZXvKcKpHamnqK743v5z/Ji0grTJtLD00/VD6REZsRkMmPjMx85RASZAu6FiqszR3aa/QQlgolGa5ZO3MGhEFiarFkHiRuCVbGRmQuiSmkh8k/TnuORU5H5fFLDuRq5gryO1abr584/LneX55v6xAr+CsaF+pt3Ltyv5VzFX7V0Ork1a3rzFYU7BmMN8/v2YtcW362t/WWa8rWfd+fez61gLtgvyCgR/8f6grlCsUFd7d4Lqh8kf0j/wfuzfabdy98VsRt+hasXVxafGXTZxN136y+ansp4nNyZu7tzhu2bcVu1Ww9c42j201JYoleSUD2+dvb9pB31G04/3OJTuvltqXVu4i7pLskpYFl7XsNty9dfeX8tTy2xVeFQ17tPZs3DO2l7u3b5/nvvpK7criys8/83++t99/f1OVcVXpAeyBnAPPDsYc7PyF8UtttUZ1cfXXQ4JD0pqImo5ap9raw1qHt9TBdZK64SMLj/Qc9TnaUm9Zv7+B1lB8DByTHHvxa+Kvd44HHW8/wThRf9Lo5J5GamNRE9S0vGmkObVZ2hLf0nsq8FR7q2tr42mr04fO6J2pOKtydss54rmCcxPn886PtgnbXl1IuTDQvqT94cW4i7c6wju6LwVdunLZ7/LFTmbn+StuV85cdbl66hrjWvN1x+tNXQ5djb85/NbY7djddMPpRkuPc09r77zec30efRdu+ty8fIt16/rtkNu9d6Lv3Lu78K70Hvfe0P2M+28e5DwYf5j/CPOo6LHC49InWk+qfjf7vUHqKD3b79Pf9TTy6cMBzsDLP8R/fBkseEZ5Vvpc93ntkO3QmWG/4Z4XC14MvhS+HH9V+Kfin3tem74++ZfnX10jcSODb0RvJt5ueqf+7tB7+/fto2GjTz5kfhgfK/qo/rHmE+NT5+fYz8/Hl33BfSn7ava19VvQt0cTmRMTQraIPTUKoBCFk5MBeHsIAEo8ANQeAIgLpufqKYGmvwWmCPwnnp69p8QRgHrEhHkC4JMPQANijdsAkJv0IRrlCWA7O5nOzMBT8/qk6CDfCwteA/yo8InDQD74h0zP8t/V/U8LZFn/Zv8FyxcGgiis0CoAAAA4ZVhJZk1NACoAAAAIAAGHaQAEAAAAAQAAABoAAAAAAAKgAgAEAAAAAQAAASSgAwAEAAAAAQAAAG4AAAAA9Nc3zwAAFvlJREFUeAHtXbuSJUcRvQO44gNWhjwkA5AjGRBESCsDAoeRDzKQMACHwAAMQC/AAByBATiAIiQ5BESwwhDC0EgRPIxdQwQYKyzJ0H7A7gcMfe5u3jk3p6o7qzP7cWeyImaquyorK+t01+nM6sc92mw2p91fpkQgEUgEFkfgI4tbkAYkAolAInAPgSSkPBUSgURgNQgkIa3mUKQhiUAikISU50AikAisBoEkpNUcijQkEUgEkpDyHEgEEoHVIJCEtJpDkYYkAolAElKeA4lAIrAaBJKQVnMo0pBEIBFIQspzIBFIBFaDQBLSag5FGpIIJAKLEdIjjz66wd/Uaa4+7rvvvqmHkvoTgQuPwGKEdPXqE5vf/u73k5LSd777vcn7AOFhHJkSgUQgBgG87T/737//899T+esmdXj/HRnt9KOf6D46j+iU+8D2Ejhmn/Ofu4n5dJgf3QO3y+ZLJa/i1Vde2fz8Zz8NMQKe0Veeeuqcrmee/urmxvXr58pbCxCe/f2f/zrX7HOf/czmzp0758qzIBFIBGwILBKylUIcEEjnyWy8azGajEB0kiJCRJBpiYzQx9e/8U3pKvNEIBEYgcDshIQJLQlkAa+FEyY7y3Bd3zaITJMRdMPr4j48pFTy7Fh3ySvrsznrEoFEYB+B2QmJuz85eWsbQvGkRr2QhsVbEiICkTEhQKeEZ8i5D+iHN2YlPvQBebSTBDJ9+FOf3PbBXpjFZtGReSKQCOwjMPsaEia2JExoTn0eyHs3b+7WZ2TSI0RiEoIukMNvfv2rneyQftQLWUkfrB/1ug8mO9RDXsI49B+1FgbdmRKBy4TArITEhFObuCzTeiA0UaA9yEIvNI/to0Z2TEjoMxe3gUKmRKAdgVlDNg55EK6VEsIreE7itZRkdBmIAiQgIZrUY02ptCYlIZy1D9EPz0eTG/pCGWQk5eK2IJF5ItCGwGweEnsl2pNBGKfLZBhoh4QHKXWqhWbwWHQ4V9MPnWP6QBvYxOEZh6PpJemjlfuJwDACsxASkxFM4snKdX2kMTyUu+GZJiLdLrqP2ljQr14j07bkfiKQCOwjMDkhMeGga00I7FWIaZBB0iGY1Ou85BGJDHTABp20Hbpe79f6QKjGXtLQeLXe3E8EEoEzBCYjpNIE1iSgJ++ZWWdbQk64A8bpwYce2oZM+g6YyFzviOjZH3x/c+vWrS0h8fqVyEg+tg9uz+RZeh4KsiwjbTNPBBKBMwTCCAkEhFQLmYbICJ5GjVzOzB3eAhFhbak0+Y+Pjzcv/vgnw0pGSHDohuY1shXyK9k3ottskghcKATchARvAKlGJiAavfh85f77N2/89c0dkBz2oO7LX/5KVd+ukdqAjtdefWXrEamqc7sgpi8dP1kM5c4JGwt4DNKkRkpSjzbycKiUZZ4IXGYEQgipREaYbJqIADQ8KXmIUIDX3oXI3ffxj28efeSRzScefGiPoKAb6b33bm49IYRlYxJs4T4e6sJAkIgkeDG8L+XIv/iFz29AnhwKlkgJsn3EpD1HyGdKBC4rAm5C0pMN5IJUel5Hy0JurROyZCvs1aRTkquNCQSItS8mscg7cc8///zmscceg5lh6Z133tlAb3Ty2vrCCy9s3n777Z1ZXn07RbQROfbHH39889xzz5H2tk1ti1dfrferV6/WqmYrd3/Hp7tTtvv2UDfpzulDWRfa7WREvpvM52S7US9eBrvERs5r9pbkUVbCgmVr+jwYnJycnEan7uQPPyZeG0sYeXXq9sCy1M+YMu9xKR2DjoS1ya79yPGOwQhtQp7UlhCqU7j3CQ54BPK0tA7rEPKsbWFX7GUPBmNC6rMX45DF6rvSd18QRmgqa2xcLttT5PAcopPnyh5tS5++6Kt7JJbwaKITvEL2Er364YUtnUIICWtFkph4SmHbD7tb8QhTxq77SD/ReeetbNe22H70AbK12AtSQrjK5Iz2/IoM+uA0BSHjBI2cSLA3ejJhInlSbXzRY4+a7F78YEfNlhoWHnyXbBtCSPpdLngapYRb8q9fu1aqWrQMRFHyiuD18EOPQ0YCByZnyOvnp0SH9qikPCL3TviSDd5JVdI5RVnU2GsEMIXNHp19ZNWqNwq71n61fEicjPUSWW/BelHXyfaPy1GPfalbOoctpbUt2HnlypVRdmJdSHBAzmOslbNM1LZ3zUIvRkSuL2jdrftDGHUTq1XlOfnI8XqPRXcx2DuP9PhR702R49X2teyHeEhdh3t31RD2dJMdxefehJfybeWC/7whWs10fgmYvSAO17i8psdbHu3Kw0PC32VJkfgdAm5rWD/CuRVGSFCm109QphNPTF031z5ssIZorQSq16DmGpPuZ4pJELG47Q0LLESxpnAr4jisaTz6PIveDyUkXj/hbwJx+Y8menXDAgzIBXe9SmRUuosGWTw3ZE2avHjRmvvkcqvuNchhckVMsKnH4rUxcl3GO9a5yMh7ofCOU9qHElLprpp0tHTeEqJBtlvv2Xs63GJ/jbyYqOYI1yy2jpXxTnbvg5trmThW/LxepcUjtNpyCHKhhIQBS9jGoYsmKp6gc4DUEqLVZC123n/lyk6MiadGVDvhA9rwTjAvoVmg8pLeoZGAF9M1jTeckPiEYeIRokI9l7N89Db6aQ3ROLRqtQfv3K0leYmjbxxjJ4DXu1nTxOnDR+qA01isRMdcIZv0t3Q+KSHVBoeXUqdOLSGa2MIPMUpZRM533mrPJUX0Izq8k0D01PIpya7Wp7XcSwKHuH7kPR7eC4X12FjkwgmJJ/VSoUot7EIYpR90hKwk72Izh6lzEI/YrfOpCWnspPeGUofmLXiJwuIRTn2s9bk19X44IdUmIhMVewyRA4wI0Ti0jLRNdOn1NCk/tHzMZPNOHgshjbGLsbeQAMsvve3FdG3j/djSgEb1X/OKQDAlr8izViQ2gwAtBMOek7SdMvdOSottrRPBGxasbeIMYQR8WjHSOi0ErNsc+n64h7QEIDUyKoVosC+CjNCnNSSd2utizL2TgHUNbXtJZkh/a72XBHL9qBXxePmDJqTWEC0KvhoBRun36JmTkFrWhFpkS+M/NG/B66VaPMI5j3XpmExRFk5INa+B1414PWnsoEAK+N6QDofgjVg+FzKmX/SJByZrHtacntAY+6PbtHgk3sljIaQ5SCAaQ48+L6YW0vPYN6ZtOCGNMaK1Tc1DKYVo8KIiUq3Pmu4aMUfZU+vXOylremvllv68od0aJ04NDyn3koWFgKWvi5RPSkh8x409mbEfZ2sN0VrfRasd2BoZ8fh022iPUOtfy36LlzSlzRF2dJ/g2HSf8Qj584zVSkaWi0GfHd4LRZ/usXXhhMThTO0O1J3bt5vtBSlYQzTIjnkXrWQUxsNjEhn9Synd95POhY8iy8TFLx1LfVS+1Ak2NDEu2/qR93haPEKvB+a1car24YQkhvJ6ig5TakQlbXVe81BKIVpNVuscu48+sUbFY0Cfb7z5tz2V7BHuVax4x3pl1kMYmhxD9Vqf3rfYNUSKWueh73sxtZDeEhiFEhImpiReuOb1FCYqka3lY0K0kjfD+hHGjU0gI/0095e6H52s9SlEDPKScYOopHysHbV23knp+Uh+bYLUymtj0OUWMtJtDn3/Mo5ZjlkoIYlS5Bym8HrK/7ofd7QkkJs1RBN9TIJSJjn0ecI4hGhMRgjRoG/J7zvJ2CLzsZOhRoZeQrJ8yRB9ePuJxNCjy4p/DW9r39Z+rPqi5EIJiT0FDmk4fLl+48ag7SAP1iUNSiEaexsgDPFEpA3ymj6WqW1bQzS0xy+q4E8SrxfxR+q4XGS9uXf9SFx4yVvtqZFCrh+1IWkh4DaNZekLT0iY9JIwiSVxOcpuffihVJ3Lx4RoenJrLwnEViK3c50XClpCNMjiF1XYi+LwbK6wrTCMpiKcqGNP1tJV2+u5WGwp9ds06BUJW8YbdfFZ0bB3poR5SDzpa+Has+Q97Cy4twHisoZokPWEX7rv0n5LiMafv+17pGFKL8k7Kfkkj/KS5iCj0rE75DILIR3y+IZsDyEk9oIQMrWGa2jPhCZGw+vQL8bCiyrJSpu+HPpwh6wvgTQsd9Ggo/ajl7WwjfvlMJbL17CNSTF2YjAxegnJGr54+1kD5rDBijljPMZ2az9jdHvbhBASG8EhExMVZHS41hqicT+t26Xwq6SDyRT1tbtoEqKVdFjCNrTj9a+SHmsZezfWNixX8oisZMB6sM3kMMf6EfenbTm0/bGYt47zwhMSeyw8Gblch2sgK2uI1gq4lreSEbfru4vGIRq3kW2EbfiVXkm8zjVl2Cb9ReQekhOSkHysPZaJ4/UWxto2RTvLeD3HBTaXLj5TjGWsTreHxF4Q3+HSV/+33nprZ2NLiLZrNHJjiIxQrxPs0w86QqYWoun22H/92p93xRyesQfG5TvhERveSVmbCLXyIRNhzxxkNGTHodWPxfvQxtlnr5uQWDmHa/wwJLwmTMTWEM3zECPbVdsukdWYEK2k/4QIGPVM0H3EXdI1dVltIoy9moKMvCRpDV+8xHd0dLSJ+PM8VIrjWzsG+th7cbX2o/uda99NSPzQI99d43AN3kJLiAZZuYuG7SnS2LtoVltAwLWwjYnbqq8mN6ULj5N37AnsJQpLv3P0UcNdl3ttsRKw7rd134Jrq85IeTchcdjB4QgbiZ8HYoKSOngo+i4aCIhlsR1NSt67aGL/UM5hG8sycfP6EsusZXusl+S13zJxvN5C5NjmWMCf8uLjPV5R7d2EJIb0hSFMWiJfWhiu/YYaE5S0j8qjQrSSPbzAX8Kg1Ka1zDsphyY+6odkWm0ekp+7vyF7LPVeD+kQx2zBpVXGRUi8LsId8/oRl2MbxAUPRT9AWNMl7aO9JM9dNLFpKNceo4xRlw/pmbLeMhEiPQnLWKzhy1pIYC47pr74WI7N1DIuQmLjLOsipRBNdGCS6vBN6pCPDd04PBJ9IDfvXTTR1ZdbiMfjOc3lwltIqw+HKermIgGL7V5bLH1EyKzxOOpxhRGSVqz3SyGalhnabw3dQICaFKYM0Ybs53oOcbl8rdtznswWovV6C1YvzHI8vOtHFg/UgkmfrXMevz47huom/102rKOAGKKSdRG49EXHklcEu0CWOoSMsremx+MZiU7vRGg5STFp5vAEWmwSHMbkkf14cYm0pQ8Lr519uqPGEEZIuP3Pi7hi/M2btu8fibzOQWbsGQ1NZIRo+n01fedO+sCDjnhD/1CT9wRrOYkgiz9vn0NYWz0Xrx0tY++zeS47vBcf2Om1tYaDnBu1+pZyV8imwyHpuLRuI3WteauHpW1aMkSTRWwZs7YN5WNDN68LbwkTxG7Jx7SRtpG5d2JFkRHG5LXFistc/VjtYTnrRYTb1LZdhFRTyuVDHg3L1rZLnldNVsrnuIsmfV2WPPJKWMPMQrS5flRDb5nySIIPI6Q+4tGewhjYautQpbt7c91FGxrHE088URThRxhK9hcbqUKvCz/2JJrSSxprk4JmcDeyH6/nEmnL4MAnEogcg5uQOOQQ4kFowuV9zyVZMSqFbiAp7T0tGaLpseAJdUk1QpX61nypiRB58ukxW13/pcau7Z3LDu/FR9sduR99PrgJia/wNeLh9908YDD5TP0umsdOaVvzGhmPMettlrBGbCjlXi8n+iQs2Vgrm4sEav1zudcW1tW3PVc/fTbU6qwXkVp7Xe4mJJ5QPNH4uz+YmFjTiUggorneRfPYy2EZ9DCZMlGVFro9/c7R1ktoNRstRJvrRzX0Lka5m5B4QmGicdjGEOkJynUt29wf2q0pRONx8KMKHK4xDlzObYe2vS6818NBe68OPcZofVq/7Ef24/VcIm2R8c2dWy4iLTa5CQmd1daLeMLh98uivCT0uea7aEw6sJW9IyYq1I1Ja5gI0V6S1fVfw9hxzOayw3vxGXN+LdkmhJA4POMJh4nIZPViR0oRCRO+9NR1yxcdI+wo6YCHyBgwKfcRVUlXqcx7RYq6KkNPlK7SOEtlc5FAqW9d5rVF66vtz9VPrf++8imOfwgh6btqErZhMExWj3ZEoidl34B5MovcWkM0se+lX/xSNrc5e0dcURob10+1bfVELP1HekkWovVOzsixez0XC3YWTCzHaSqZSDzFxrBXR0A8sliL983kzX0hK6mD94DJWJuoYtja30UTOzk/Pj7eI1wmHRAxe05D42e9ettzZfK0LdkRqU/rL+17+vO0XcIW2OslvpLday877QwM+es+sHbafXp2+9dNwD2dXAcZXS82lMpRJno577ylvT5ExxK5tlGPg+3WdUvYm33GnPOJYyyOR/cA7TJ/QqiGnzaSxF6OroOMxVNCiIYFcZ0sbXWbqfbxpUvxANEH1s3EQ8R+R0B73pF++RcymRKBRGCzCVlDEiARnnGYwp8K0XVogxAGk7WU1nwXTewFyQ6REWQ4VGN8RE/miUAicBeBj3bZ85Fg4LtCmISffvjh7R+2//mPf2y7QN1rr76yefqZr+26PD5+civ//vvv7z6mBpL6wx//tJORDdxF+/a3vrWTk/Ilcth47fW/bMco/WvPCGNnj3FNXp3YnHkisCYEQkM2GZieiEMTVdrh122xKLTmEA2eGx5fwB1DTnqMqOvWjXYiSUY7KHIjEagiMAkhoTdNSqUJqddWalYu8UVHbUuNiCBXGpsO5XLdSCOa+4nAeQQmIyR0pQmnNHG1jDYRXtP1Gzc2d27fnjVUA6HiZWG8n8cL1mwfvCI87oD1MUmaiEsyIpt5IpAI7CMwKSGhqxLh8N03MackJ3WcY4LjCwNYj4oiKZAI/mDDg90nQ2oEJHbUSEaPAXJ8t03aZ54IJAJlBCYnJHSrJyrKSt6SyPZ5JZDRCRP/f+/d3HpStz78UFfv7beSDzeuERFkdIiWZMTI5XYiYENgFkKCKSACPAagvY8aMaENiAyJb5tvCwb+4Slo/Iz1tXsf8Mf6D3SVFsv7VIFUkHRYxm1ayJbb5XYikAicR2A2QpKuaxMY9UOvUwhBtXhQeFTASkQgIISD+MYTrwuJ7ZyDYPmWvtSVwlGpyzwRSAT6EZidkGBOiZTETHhMFkKAPEhBvlLZQlJoy+SD/SECgkzNy0NdhmhAIVMi4ENgEUISk/uICTIgJ6Qhz2krdO+feFE6zLOEX6wH2yAgpFKoua3o/kFvX0gHOby1jZck8YZ39AueYkfmicBFQGBRQhIAQSIWD0cIyupBCeH1rVOJDUI+Q7f6Rd5CRPhcBj65+sEHH2zefffdDb4GgE82rP2zEjLGzBOBuRFYBSHxoK3khDYgBfmRgRpJgWhK4RjKreQj9llISGSRn5ycbL0i+Q60fD8GXlJ6SoxUbicCdxFYHSHJgRHCwL4Ov0SmlPetQUFnX/il9YGAkIZCMt1O9kFIV69e3RITvCVsy0fG0ksSlDJPBM4QWC0hnZl4ttVCUvpul4RvZ9r2t5h8UFPyqvZbDO+dnp5ujo6OdiEaSEi8pvSQhvFLicuHwEERUunwgGiQSmtQQkolMpLwC20jyAd6dAIBYTEbz0O99NJLm5dffnnzwAMPbD0lLZv7iUAisNkcPCHpg1h6YpofxrQscGudnn1Z2IaOXND2IJltLwMCF46QcNA0KcmBnJuMpN/ME4FEwIbAhSQkrDXpp6iTjGwnREolAksiEPoJ2yUHwn1jTQjrR5KwXtTycKW0yzwRSATmR2A1v9zRDT3Uls5TOu3Ct1Cd0TamvthjnngeNp4XMmTrTspMiUAicIAIXMiQ7QCPQ5qcCCQCHQJJSHkaJAKJwGoQSEJazaFIQxKBRCAJKc+BRCARWA0CSUirORRpSCKQCPwfdFzDTbu/n3sAAAAASUVORK5CYII=;" parent="1" vertex="1">
                    <mxGeometry x="529.82" y="375.54" width="106.18" height="40" as="geometry"/>
                </mxCell>
            </root>
        </mxGraphModel>
    </diagram>
</mxfile>